<?xml version="1.0" encoding="utf-8"?>
<svg width="916px" height="89px" viewbox="0 0 916 89" version="1.1" xmlns:xlink="http://www.w3.org/1999/xlink" xmlns="http://www.w3.org/2000/svg">
  <defs>
    <radialGradient gradientUnits="objectBoundingBox" cx="50%" cy="0%" fx="50%" fy="0%" r="100%" gradientTransform="translate(0.5,0),scale(0.0032869405,1),rotate(90),scale(1,105.13875),translate(-0.5,-0)" id="gradient_1">
      <stop offset="0%" stop-color="#FFFFFF" />
      <stop offset="100%" stop-color="#121212" />
    </radialGradient>
  </defs>
  <path d="M0 0L912.703 0L912.703 3L0 3L0 0L0 0Z" transform="translate(1.5 84)" id="Vector" fill="none" fill-rule="evenodd" stroke="url(#gradient_1)" stroke-width="3" stroke-linecap="square" />
  <path d="M37.0359 19.8535L0 19.8535L0 2.29004C0 1.01681 1.01859 0 2.29182 0C3.56327 0 4.58186 1.01681 4.58186 2.29004L4.58186 15.2717L37.0359 15.2717C38.3092 15.2717 39.326 16.2902 39.326 17.5635C39.326 18.8349 38.3092 19.8535 37.0359 19.8535" transform="translate(436.5 0)" id="Fill-7" fill="#FFFFFF" fill-rule="evenodd" stroke="none" />
  <path d="M37.0359 19.8535L0 19.8535L0 2.29004C0 1.01681 1.01859 0 2.29182 0C3.56327 0 4.58186 1.01681 4.58186 2.29004L4.58186 15.2717L37.0359 15.2717C38.3092 15.2717 39.326 16.2902 39.326 17.5635C39.326 18.8349 38.3092 19.8535 37.0359 19.8535" transform="translate(367.5 0)" id="Fill-9" fill="#FFFFFF" fill-rule="evenodd" stroke="none" />
  <path d="M40.5992 4.58186L2.29182 4.58186C1.01859 4.58186 0 3.56327 0 2.29182C0 1.01859 1.01859 0 2.29182 0L40.5992 0C41.8724 0 42.8892 1.01859 42.8892 2.29182C42.8892 3.56327 41.8724 4.58186 40.5992 4.58186" transform="translate(506.5 0)" id="Fill-11" fill="#FFFFFF" fill-rule="evenodd" stroke="none" />
  <path d="M40.5992 4.58186L2.29182 4.58186C1.01859 4.58186 0 3.56327 0 2.29182C0 1.01859 1.01859 0 2.29182 0L40.5992 0C41.8724 0 42.8892 1.01859 42.8892 2.29182C42.8892 3.56327 41.8724 4.58186 40.5992 4.58186" transform="translate(506.5 15)" id="Fill-13" fill="#FFFFFF" fill-rule="evenodd" stroke="none" />
  <path d="M40.5992 4.58186L2.29182 4.58186C1.01859 4.58186 0 3.56327 0 2.29182C0 1.01859 1.01859 0 2.29182 0L40.5992 0C41.8724 0 42.8892 1.01859 42.8892 2.29182C42.8892 3.56327 41.8724 4.58186 40.5992 4.58186" transform="translate(506.5 8)" id="Fill-15" fill="#FFFFFF" fill-rule="evenodd" stroke="none" />
  <path d="M33.218 19.7271L2.29182 19.7271C1.01859 19.7271 0 18.7085 0 17.4371C0 16.1638 1.01859 15.1452 2.29182 15.1452L33.218 15.1452C33.9819 15.1452 34.6177 14.5095 34.6177 13.7456C34.6177 12.8552 33.9819 12.2177 33.218 12.2177L5.98152 12.2177C2.6729 12.2177 0 9.54479 0 6.23617L0 5.98152C0 2.6729 2.6729 0 5.98152 0L36.9095 0C38.1809 0 39.1995 1.01859 39.1995 2.29182C39.1995 3.56327 38.1809 4.58186 36.9095 4.58186L5.98152 4.58186C5.21936 4.58186 4.58185 5.21758 4.58185 5.98152L4.58185 6.23617C4.58185 7.00011 5.21936 7.63583 5.98152 7.63583L33.218 7.63583C36.5266 7.63583 39.1995 10.3087 39.1995 13.6174C39.1995 17.0542 36.5266 19.7271 33.218 19.7271" transform="translate(580.5 0)" id="Fill-17" fill="#FFFFFF" fill-rule="evenodd" stroke="none" />
  <path d="M3.05398 0C1.39967 0 0 1.39967 0 3.05398C0 4.70829 1.39967 6.10973 3.05398 6.10973C4.70829 6.10973 6.10795 4.70829 6.10795 3.05398C6.10795 1.39967 4.70829 0 3.05398 0M3.05371 5.34577C1.78048 5.34577 0.763672 4.32719 0.763672 3.05395C0.763672 1.7825 1.78048 0.763916 3.05371 0.763916C4.32694 0.763916 5.34375 1.7825 5.34375 3.05395C5.34375 4.32719 4.32694 5.34577 3.05371 5.34577" transform="translate(631.5 0)" id="Fill-19" fill="#FFFFFF" fill-rule="evenodd" stroke="none" />
  <path d="M0.381079 2.1636C0.381079 2.41825 0 2.41825 0 2.1636L0 0.254646C0 0.126433 0.126433 0 0.254646 0L1.14502 0C2.03539 0 2.1636 1.14502 1.39967 1.39967L1.78074 1.90896C1.90896 2.1636 1.65431 2.41825 1.39967 2.1636L0.890372 1.39967L0.381079 1.39967L0.381079 2.1636ZM0.380859 1.04881L1.17863 1.04881C1.55971 1.04881 1.56327 0.413086 1.17863 0.413086L0.380859 0.413086L0.380859 1.04881Z" transform="translate(633.5 2)" id="Fill-21" fill="#FFFFFF" fill-rule="evenodd" stroke="none" />
</svg>