<?xml version="1.0" encoding="utf-8"?>
<svg width="75px" height="75px" viewbox="0 0 75 75" version="1.1" xmlns:xlink="http://www.w3.org/1999/xlink" xmlns="http://www.w3.org/2000/svg">
  <path d="M37.0021 0C16.5663 0 0 16.5663 0 37.0021C0 57.4379 16.5663 74.0042 37.0021 74.0042C57.4379 74.0042 74.0042 57.4379 74.0042 37.0021C74.0042 16.5663 57.4379 0 37.0021 0" id="Fill-1" fill="#24B5E2" fill-rule="evenodd" stroke="none" />
  <path d="M33 0C14.7747 0 0 14.7747 0 33C0 51.2253 14.7747 66 33 66C51.2253 66 66 51.2253 66 33C66 14.7747 51.2253 0 33 0" transform="translate(4 4)" id="Fill-3" fill="#121212" fill-rule="evenodd" stroke="none" />
  <path d="M37.0235 0L5.99933 0C2.68002 0 0 2.6818 0 6.00111L0 17.7469C0 19.0219 1.02037 20.0441 2.29716 20.0441C3.57395 20.0441 4.5961 19.0219 4.5961 17.7469L4.5961 13.6601L38.4285 13.6601L38.4285 17.6187C38.4285 18.8955 39.4488 19.9158 40.7256 19.9158C42.0024 19.9158 43.0246 18.8955 43.0246 17.6187L43.0246 6.00111C43.0246 2.6818 40.3428 0 37.0235 0L37.0235 0L37.0235 0ZM4.5957 9.06388L4.5957 6.00099C4.5957 5.10706 5.36142 4.46777 6.12714 4.46777L36.8948 4.46777C37.7888 4.46777 38.4281 5.23349 38.4281 6.00099L38.4281 9.06388L4.5957 9.06388L4.5957 9.06388Z" transform="translate(15 27)" id="Fill-5" fill="#FEFEFE" fill-rule="evenodd" stroke="none" />
</svg>