<?xml version="1.0" encoding="utf-8"?>
<svg width="460px" height="123px" viewbox="0 0 460 123" version="1.1" xmlns:xlink="http://www.w3.org/1999/xlink" xmlns="http://www.w3.org/2000/svg">
  <defs>
    <linearGradient x1="0.3309755" y1="-0.41690078" x2="0.69102407" y2="1.5249095" id="gradient_1">
      <stop offset="0" stop-color="#989DA2" />
      <stop offset="0.4427787" stop-color="#FFFFFF" />
      <stop offset="1" stop-color="#CAC6C6" />
    </linearGradient>
    <radialGradient gradientUnits="objectBoundingBox" cx="49.203827%" cy="0%" fx="49.203827%" fy="0%" r="130.26414%" gradientTransform="translate(0.49203825,0),scale(0.2642043,1),rotate(90),scale(1,3.8963814),translate(-0.49203825,-0)" id="gradient_2">
      <stop offset="0%" stop-color="#FFFFFF" />
      <stop offset="100%" stop-color="#121212" />
    </radialGradient>
  </defs>
  <path d="M0.15769 120.194C0.112046 120.193 0.0703661 120.193 0.0327366 120.193C0.0108638 120.193 2.24254e-06 120.193 1.99752e-06 120.193C1.45575e-06 120.193 0.0531046 120.193 0.15769 120.194ZM12.0926 120.239C7.32415 120.483 3.36732 120.32 1.30934 120.235C0.807094 120.214 0.417943 120.198 0.15769 120.194C1.00991 120.198 5.28054 120.214 12.0926 120.239ZM219.989 0L110.738 0C99.0068 0 89.9664 9.54277 84.4994 18.6299C79.0323 27.7171 54.4396 88.1115 44.9886 105.585C38.8885 116.863 23.2635 119.668 12.0926 120.239C53.0612 120.388 185.953 120.853 219.989 120.972L219.989 121C219.989 121 221.425 120.995 224.074 120.986C226.613 120.995 227.989 121 227.989 121L227.989 120.973C263.074 120.856 403.465 120.385 445.821 120.237C450.617 120.484 454.599 120.32 456.667 120.235C457.174 120.214 457.567 120.198 457.828 120.194C457.928 120.193 457.979 120.193 457.979 120.193C457.979 120.193 457.968 120.193 457.947 120.193C457.911 120.193 457.871 120.193 457.828 120.194C456.989 120.198 452.697 120.213 445.821 120.237C434.622 119.662 418.98 116.851 412.869 105.585C403.393 88.1115 378.733 27.7171 373.251 18.6299C367.77 9.54277 358.705 0 346.942 0L219.989 0Z" transform="translate(1 1)" id="Stop_button" fill="url(#gradient_1)" fill-rule="evenodd" stroke="url(#gradient_2)" stroke-width="2" />
</svg>