<?xml version="1.0" encoding="utf-8"?>
<svg width="953px" height="145px" viewbox="0 0 953 145" version="1.1" xmlns:xlink="http://www.w3.org/1999/xlink" xmlns="http://www.w3.org/2000/svg">
  <defs>
    <filter filterUnits="userSpaceOnUse" color-interpolation-filters="sRGB" id="filter_1">
      <feFlood flood-opacity="0" result="BackgroundImageFix" />
      <feColorMatrix in="SourceAlpha" type="matrix" values="0 0 0 0 0 0 0 0 0 0 0 0 0 0 0 0 0 0 127 0" />
      <feOffset dx="0" dy="16" />
      <feGaussianBlur stdDeviation="6" />
      <feColorMatrix type="matrix" values="0 0 0 0 0 0 0 0 0 0.7254902 0 0 0 0 0.8901961 0 0 0 1 0" />
      <feBlend mode="normal" in2="BackgroundImageFix" result="effect0_dropShadow" />
      <feBlend mode="normal" in="SourceGraphic" in2="effect0_dropShadow" result="shape" />
    </filter>
    <path d="M59.832 0L875.059 0Q876.528 0 877.995 0.0720703Q879.462 0.144141 880.923 0.288107Q882.385 0.432074 883.838 0.647591Q885.291 0.863108 886.731 1.14966Q888.172 1.4362 889.597 1.79309Q891.022 2.14998 892.427 2.57635Q893.833 3.00271 895.216 3.49754Q896.598 3.99236 897.955 4.55444Q899.312 5.11652 900.64 5.74451Q901.968 6.3725 903.263 7.06489Q904.559 7.75727 905.819 8.51238Q907.078 9.26749 908.3 10.0835Q909.521 10.8995 910.701 11.7745Q911.88 12.6494 913.016 13.5812Q914.151 14.513 915.24 15.4994Q916.328 16.4858 917.366 17.5244Q918.405 18.563 919.391 19.6513Q920.378 20.7396 921.31 21.875Q922.241 23.0104 923.116 24.1901Q923.991 25.3699 924.807 26.5911Q925.623 27.8124 926.378 29.0722Q927.133 30.332 927.826 31.6274Q928.518 32.9228 929.146 34.2505Q929.774 35.5783 930.336 36.9353Q930.898 38.2923 931.393 39.6752Q931.888 41.0581 932.314 42.4637Q932.741 43.8692 933.098 45.294Q933.454 46.7188 933.741 48.1594Q934.028 49.5999 934.243 51.0528Q934.459 52.5057 934.603 53.9674Q934.747 55.4292 934.819 56.8962Q934.891 58.3632 934.891 59.832L934.891 59.834Q934.891 61.3028 934.819 62.7698Q934.747 64.2368 934.603 65.6986Q934.459 67.1603 934.243 68.6132Q934.028 70.0661 933.741 71.5066Q933.455 72.9472 933.098 74.372Q932.741 75.7968 932.314 77.2023Q931.888 78.6079 931.393 79.9908Q930.898 81.3737 930.336 82.7307Q929.774 84.0877 929.146 85.4155Q928.518 86.7432 927.826 88.0386Q927.133 89.334 926.378 90.5938Q925.623 91.8536 924.807 93.0749Q923.991 94.2961 923.116 95.4759Q922.241 96.6556 921.31 97.791Q920.378 98.9264 919.391 100.015Q918.405 101.103 917.366 102.142Q916.328 103.18 915.24 104.167Q914.151 105.153 913.016 106.085Q911.88 107.017 910.701 107.892Q909.521 108.766 908.3 109.582Q907.078 110.399 905.819 111.154Q904.559 111.909 903.263 112.601Q901.968 113.294 900.64 113.921Q899.312 114.549 897.955 115.112Q896.598 115.674 895.216 116.168Q893.833 116.663 892.427 117.09Q891.021 117.516 889.597 117.873Q888.172 118.23 886.731 118.516Q885.291 118.803 883.838 119.018Q882.385 119.234 880.923 119.378Q879.462 119.522 877.995 119.594Q876.528 119.666 875.059 119.666L59.832 119.666Q58.3632 119.666 56.8962 119.594Q55.4292 119.522 53.9674 119.378Q52.5057 119.234 51.0528 119.018Q49.5999 118.803 48.1594 118.516Q46.7188 118.23 45.294 117.873Q43.8692 117.516 42.4637 117.09Q41.0581 116.663 39.6752 116.168Q38.2923 115.674 36.9353 115.112Q35.5783 114.549 34.2505 113.921Q32.9228 113.294 31.6274 112.601Q30.332 111.909 29.0722 111.154Q27.8124 110.399 26.5911 109.582Q25.3699 108.766 24.1901 107.892Q23.0104 107.017 21.875 106.085Q20.7396 105.153 19.6513 104.167Q18.563 103.18 17.5244 102.142Q16.4858 101.103 15.4994 100.015Q14.513 98.9264 13.5812 97.791Q12.6494 96.6556 11.7745 95.4759Q10.8995 94.2961 10.0835 93.0749Q9.26749 91.8536 8.51238 90.5938Q7.75727 89.334 7.06489 88.0386Q6.3725 86.7432 5.74451 85.4155Q5.11652 84.0877 4.55444 82.7307Q3.99236 81.3737 3.49754 79.9908Q3.00271 78.6079 2.57635 77.2023Q2.14998 75.7968 1.79309 74.372Q1.4362 72.9472 1.14966 71.5066Q0.863108 70.0661 0.647591 68.6132Q0.432074 67.1603 0.288107 65.6986Q0.144141 64.2368 0.0720703 62.7698Q0 61.3028 0 59.834L0 59.832Q0 58.3632 0.0720703 56.8962Q0.144141 55.4292 0.288107 53.9674Q0.432074 52.5057 0.647591 51.0528Q0.863108 49.5999 1.14966 48.1594Q1.4362 46.7188 1.79309 45.294Q2.14998 43.8692 2.57635 42.4637Q3.00271 41.0581 3.49754 39.6752Q3.99236 38.2923 4.55444 36.9353Q5.11652 35.5783 5.74451 34.2505Q6.3725 32.9228 7.06489 31.6274Q7.75727 30.332 8.51238 29.0722Q9.26749 27.8124 10.0835 26.5911Q10.8995 25.3699 11.7745 24.1901Q12.6494 23.0104 13.5812 21.875Q14.513 20.7396 15.4994 19.6513Q16.4858 18.563 17.5244 17.5244Q18.563 16.4858 19.6513 15.4994Q20.7396 14.513 21.875 13.5812Q23.0104 12.6494 24.1901 11.7745Q25.3699 10.8995 26.5911 10.0835Q27.8124 9.26749 29.0722 8.51238Q30.332 7.75727 31.6274 7.06489Q32.9228 6.3725 34.2505 5.74451Q35.5783 5.11652 36.9353 4.55444Q38.2923 3.99236 39.6752 3.49754Q41.0581 3.00271 42.4637 2.57635Q43.8692 2.14998 45.294 1.79309Q46.7188 1.4362 48.1594 1.14966Q49.5999 0.863108 51.0528 0.647591Q52.5057 0.432074 53.9674 0.288107Q55.4292 0.144141 56.8962 0.0720703Q58.3632 0 59.832 0L59.832 0Z" transform="translate(9 0)" id="path_1" />
    <clipPath id="clip_1">
      <use xlink:href="#path_1" />
    </clipPath>
  </defs>
  <g id="bl_button-copy" filter="url(#filter_1)">
    <use stroke="none" fill="#FFFFFF" xlink:href="#path_1" fill-rule="evenodd" />
    <g clip-path="url(#clip_1)">
      <use xlink:href="#path_1" fill="none" stroke="#00B9E3" stroke-width="12" />
    </g>
  </g>
</svg>