<?xml version="1.0" encoding="utf-8"?>
<svg width="1003px" height="122px" viewbox="0 0 1003 122" version="1.1" xmlns:xlink="http://www.w3.org/1999/xlink" xmlns="http://www.w3.org/2000/svg">
  <defs>
    <radialGradient gradientUnits="objectBoundingBox" cx="50%" cy="0%" fx="50%" fy="0%" r="100%" gradientTransform="translate(0.5,0),scale(0.0032869405,1),rotate(90),scale(1,105.13875),translate(-0.5,-0)" id="gradient_1">
      <stop offset="0%" stop-color="#FFFFFF" />
      <stop offset="100%" stop-color="#121212" />
    </radialGradient>
    <path d="M45 90C20.1472 90 0 69.8528 0 45C0 20.1472 20.1472 0 45 0C69.8528 0 90 20.1472 90 45C90 69.8528 69.8528 90 45 90Z" id="path_1" />
    <clipPath id="mask_1">
      <use xlink:href="#path_1" />
    </clipPath>
  </defs>
  <g id="head-5" transform="translate(1.5 1.5)">
    <path d="M0 0L912.703 0L912.703 3L0 3L0 0L0 0Z" transform="translate(43 116)" id="Vector" fill="none" fill-rule="evenodd" stroke="url(#gradient_1)" stroke-width="3" stroke-linecap="square" />
    <g id="пост" fill="#FFFFFF" transform="translate(85 2)">
      <path d="M24.6307 34.5029Q27.0125 37.0254 31.0028 37.0254Q35.0985 37.0254 37.533 34.4326Q39.9676 31.8398 39.9676 27.5332Q39.9676 23.1387 37.7088 20.6602Q35.45 18.1816 31.4246 18.1816Q27.2059 18.1816 24.7274 20.7305Q22.2488 23.2793 22.2488 27.8145Q22.2488 31.9805 24.6307 34.5029ZM56.6266 35.7773Q54.5524 37.0254 51.7047 37.0254Q47.8551 37.0254 45.4909 34.5205Q43.1266 32.0156 43.1266 28.0254Q43.1266 23.5781 45.6754 20.8799Q48.2243 18.1816 52.4782 18.1816Q54.8512 18.1816 56.6618 19.0605L56.6618 22.0137Q54.6578 20.6074 52.3727 20.6074Q49.6129 20.6074 47.8463 22.585Q46.0797 24.5625 46.0797 27.7793Q46.0797 30.9434 47.7409 32.7715Q49.402 34.5996 52.1969 34.5996Q54.5524 34.5996 56.6266 33.0352L56.6266 35.7773ZM14.9766 36.6035L17.8594 36.6035L17.8594 18.6035L2.91797 18.6035L2.91797 36.6035L5.80078 36.6035L5.80078 21.0645L14.9766 21.0645L14.9766 36.6035ZM66.6762 21.0645L72.0727 21.0645L72.0727 18.6035L58.3793 18.6035L58.3793 21.0645L63.7934 21.0645L63.7934 36.6035L66.6762 36.6035L66.6762 21.0645ZM26.8192 22.4971Q28.4363 20.6074 31.2137 20.6074Q34.0086 20.6074 35.5115 22.4355Q37.0145 24.2637 37.0145 27.6387Q37.0145 30.9785 35.5115 32.7891Q34.0086 34.5996 31.2137 34.5996Q28.4715 34.5996 26.8367 32.7539Q25.202 30.9082 25.202 27.709Q25.202 24.3867 26.8192 22.4971Z" />
    </g>
    <g id="1530" fill="#FFFFFF" transform="translate(83 43)">
      <path d="M11.3125 32.7031L8.75 32.7031L8.75 13.3438Q8.45313 13.6406 7.88281 14.0234Q7.3125 14.4063 6.60156 14.7813Q5.89063 15.1563 5.10156 15.4844Q4.3125 15.8125 3.5625 16L3.5625 13.4063Q4.40625 13.1719 5.35156 12.7734Q6.29687 12.375 7.21094 11.8828Q8.125 11.3906 8.9375 10.8516Q9.75 10.3125 10.3438 9.79688L11.3125 9.79688L11.3125 32.7031ZM55.7521 26.3594Q55.7521 27.875 55.1818 29.1172Q54.6115 30.3594 53.5724 31.2422Q52.5334 32.125 51.0802 32.6094Q49.6271 33.0938 47.8771 33.0938Q44.674 33.0938 42.7834 31.875L42.7834 29.125Q45.049 30.9063 47.9709 30.9063Q49.1427 30.9063 50.0881 30.6094Q51.0334 30.3125 51.7131 29.75Q52.3927 29.1875 52.7599 28.3906Q53.1271 27.5938 53.1271 26.5938Q53.1271 22.2031 46.8771 22.2031L45.0177 22.2031L45.0177 20.0313L46.7834 20.0313Q52.3146 20.0313 52.3146 15.9063Q52.3146 12.0938 48.0959 12.0938Q45.7209 12.0938 43.6427 13.6875L43.6427 11.2031Q45.7834 9.92188 48.7365 9.92188Q50.1427 9.92188 51.2834 10.3125Q52.424 10.7031 53.2365 11.4063Q54.049 12.1094 54.4943 13.0938Q54.9396 14.0781 54.9396 15.2656Q54.9396 19.6875 50.4709 20.9531L50.4709 21.0156Q51.6115 21.1406 52.5802 21.5703Q53.549 22 54.2521 22.6875Q54.9552 23.375 55.3537 24.3047Q55.7521 25.2344 55.7521 26.3594ZM73.3492 26.3906Q73.857 24.2188 73.857 21.4063Q73.857 9.92188 66.8101 9.92188Q64.982 9.92188 63.5679 10.6953Q62.1539 11.4688 61.2008 12.9922Q60.2476 14.5156 59.7554 16.7656Q59.2633 19.0156 59.2633 21.9531Q59.2633 24.625 59.732 26.6953Q60.2008 28.7656 61.107 30.1875Q62.0133 31.6094 63.3336 32.3516Q64.6539 33.0938 66.3414 33.0938Q68.1226 33.0938 69.5211 32.3203Q70.9195 31.5469 71.8804 30.0547Q72.8414 28.5625 73.3492 26.3906ZM32.1986 25.8594Q32.1986 27.5 31.6361 28.8281Q31.0736 30.1563 30.0346 31.1094Q28.9955 32.0625 27.5268 32.5781Q26.058 33.0938 24.2611 33.0938Q21.1361 33.0938 19.6205 32.1563L19.6205 29.4375Q21.9018 30.9063 24.2924 30.9063Q25.5111 30.9063 26.4877 30.5469Q27.4642 30.1875 28.1518 29.5469Q28.8393 28.9063 29.2064 28Q29.5736 27.0938 29.5736 26.0156Q29.5736 23.8281 28.1049 22.5859Q26.6361 21.3438 23.8393 21.3438Q23.3861 21.3438 22.8861 21.3594Q22.3861 21.375 21.8861 21.3984Q21.3861 21.4219 20.9096 21.4531Q20.433 21.4844 20.0424 21.5313L20.808 10.2969L31.1674 10.2969L31.1674 12.6094L23.0268 12.6094L22.5736 19.1875Q23.0736 19.1563 23.6361 19.1328Q24.1986 19.1094 24.6361 19.1094Q26.4174 19.1094 27.8236 19.5781Q29.2299 20.0469 30.2064 20.9141Q31.183 21.7813 31.6908 23.0391Q32.1986 24.2969 32.1986 25.8594ZM66.6851 12.0938Q71.232 12.0938 71.232 21.6563Q71.232 30.9063 66.5914 30.9063Q61.8883 30.9063 61.8883 21.8281Q61.8883 12.0938 66.6851 12.0938ZM36.3738 19.3125Q36.8816 19.8281 37.6004 19.8281Q38.3348 19.8281 38.8504 19.3125Q39.366 18.7969 39.366 18.0781Q39.366 17.3594 38.8504 16.8594Q38.3348 16.3594 37.6004 16.3594Q36.8816 16.3594 36.3738 16.8594Q35.866 17.3594 35.866 18.0781Q35.866 18.7969 36.3738 19.3125ZM36.3738 32.5313Q36.8816 33.0469 37.6004 33.0469Q38.3348 33.0469 38.8504 32.5313Q39.366 32.0156 39.366 31.2969Q39.366 30.5781 38.8504 30.0547Q38.3348 29.5313 37.6004 29.5313Q36.8816 29.5313 36.3738 30.0547Q35.866 30.5781 35.866 31.2969Q35.866 32.0156 36.3738 32.5313Z" />
    </g>
    <g id="1" fill="#FFFFFF" transform="translate(22 25)">
      <path d="M10.6055 30.5029L8.20313 30.5029L8.20313 12.3535Q7.9248 12.6318 7.39014 12.9907Q6.85547 13.3496 6.18896 13.7012Q5.52246 14.0527 4.78271 14.3604Q4.04297 14.668 3.33984 14.8438L3.33984 12.4121Q4.13086 12.1924 5.01709 11.8188Q5.90332 11.4453 6.76025 10.9839Q7.61719 10.5225 8.37891 10.0171Q9.14062 9.51172 9.69727 9.02832L10.6055 9.02832L10.6055 30.5029Z" />
    </g>
    <g id="RU" fill="#FFFFFF" transform="translate(841 22)">
      <path d="M19.8438 40.5039L23.75 40.5039L18.4961 32.0859Q17.9297 31.168 17.4707 30.4746Q17.0117 29.7813 16.543 29.2344Q16.0742 28.6875 15.5566 28.2871Q15.0391 27.8867 14.3359 27.5742L14.3359 27.4961Q15.7617 27.125 16.9043 26.4512Q18.0469 25.7773 18.8574 24.8203Q19.668 23.8633 20.1074 22.6426Q20.5469 21.4219 20.5469 19.957Q20.5469 18.082 19.9023 16.6855Q19.2578 15.2891 18.1152 14.3516Q16.9727 13.4141 15.4199 12.9551Q13.8672 12.4961 12.0313 12.4961L3.67188 12.4961L3.67188 40.5039L6.95313 40.5039L6.95313 28.5898L9.64844 28.5898Q10.5664 28.5898 11.2988 28.8145Q12.0313 29.0391 12.666 29.5273Q13.3008 30.0156 13.9063 30.7871Q14.5117 31.5586 15.1563 32.6523L19.8438 40.5039ZM27.0061 29.625Q27.0061 40.9727 37.2014 40.9727Q47.8459 40.9727 47.8459 29.1758L47.8459 12.4961L44.5647 12.4961L44.5647 29.7031Q44.5647 38.0234 37.553 38.0234Q30.2873 38.0234 30.2873 29.4102L30.2873 12.4961L27.0061 12.4961L27.0061 29.625ZM6.95313 25.6211L6.95313 15.4648L11.4453 15.4648Q14.1992 15.4648 15.6543 16.7246Q17.1094 17.9844 17.1094 20.2305Q17.1094 21.4805 16.6797 22.4863Q16.25 23.4922 15.4883 24.1855Q14.7266 24.8789 13.6816 25.25Q12.6367 25.6211 11.4063 25.6211L6.95313 25.6211Z" />
    </g>
    <g id="logo" transform="translate(320 5)">
      <path d="M37.0021 0C16.5663 0 0 16.5663 0 37.0021C0 57.4379 16.5663 74.0042 37.0021 74.0042C57.4379 74.0042 74.0042 57.4379 74.0042 37.0021C74.0042 16.5663 57.4379 0 37.0021 0" id="Fill-1" fill="#24B5E2" fill-rule="evenodd" stroke="none" />
      <path d="M33 0C14.7747 0 0 14.7747 0 33C0 51.2253 14.7747 66 33 66C51.2253 66 66 51.2253 66 33C66 14.7747 51.2253 0 33 0" transform="translate(4 4)" id="Fill-3" fill="#121212" fill-rule="evenodd" stroke="none" />
      <path d="M37.0235 0L5.99933 0C2.68002 0 0 2.6818 0 6.00111L0 17.7469C0 19.0219 1.02037 20.0441 2.29716 20.0441C3.57395 20.0441 4.5961 19.0219 4.5961 17.7469L4.5961 13.6601L38.4285 13.6601L38.4285 17.6187C38.4285 18.8955 39.4488 19.9158 40.7256 19.9158C42.0024 19.9158 43.0246 18.8955 43.0246 17.6187L43.0246 6.00111C43.0246 2.6818 40.3428 0 37.0235 0L37.0235 0ZM4.5957 9.06388L4.5957 6.00099C4.5957 5.10706 5.36142 4.46777 6.12714 4.46777L36.8948 4.46777C37.7888 4.46777 38.4281 5.23349 38.4281 6.00099L38.4281 9.06388L4.5957 9.06388Z" transform="translate(15 27)" id="Fill-5" fill="#FEFEFE" fill-rule="evenodd" stroke="none" />
      <path d="M37.0359 19.8535L0 19.8535L0 2.29004C0 1.01681 1.01859 0 2.29182 0C3.56327 0 4.58186 1.01681 4.58186 2.29004L4.58186 15.2717L37.0359 15.2717C38.3092 15.2717 39.326 16.2902 39.326 17.5635C39.326 18.8349 38.3092 19.8535 37.0359 19.8535" transform="translate(158 27)" id="Fill-7" fill="#FFFFFF" fill-rule="evenodd" stroke="none" />
      <path d="M37.0359 19.8535L0 19.8535L0 2.29004C0 1.01681 1.01859 0 2.29182 0C3.56327 0 4.58186 1.01681 4.58186 2.29004L4.58186 15.2717L37.0359 15.2717C38.3092 15.2717 39.326 16.2902 39.326 17.5635C39.326 18.8349 38.3092 19.8535 37.0359 19.8535" transform="translate(89 27)" id="Fill-9" fill="#FFFFFF" fill-rule="evenodd" stroke="none" />
      <path d="M40.5992 4.58186L2.29182 4.58186C1.01859 4.58186 0 3.56327 0 2.29182C0 1.01859 1.01859 0 2.29182 0L40.5992 0C41.8724 0 42.8892 1.01859 42.8892 2.29182C42.8892 3.56327 41.8724 4.58186 40.5992 4.58186" transform="translate(228 27)" id="Fill-11" fill="#FFFFFF" fill-rule="evenodd" stroke="none" />
      <path d="M40.5992 4.58186L2.29182 4.58186C1.01859 4.58186 0 3.56327 0 2.29182C0 1.01859 1.01859 0 2.29182 0L40.5992 0C41.8724 0 42.8892 1.01859 42.8892 2.29182C42.8892 3.56327 41.8724 4.58186 40.5992 4.58186" transform="translate(228 42)" id="Fill-13" fill="#FFFFFF" fill-rule="evenodd" stroke="none" />
      <path d="M40.5992 4.58186L2.29182 4.58186C1.01859 4.58186 0 3.56327 0 2.29182C0 1.01859 1.01859 0 2.29182 0L40.5992 0C41.8724 0 42.8892 1.01859 42.8892 2.29182C42.8892 3.56327 41.8724 4.58186 40.5992 4.58186" transform="translate(228 35)" id="Fill-15" fill="#FFFFFF" fill-rule="evenodd" stroke="none" />
      <path d="M33.218 19.7271L2.29182 19.7271C1.01859 19.7271 0 18.7085 0 17.4371C0 16.1638 1.01859 15.1452 2.29182 15.1452L33.218 15.1452C33.9819 15.1452 34.6177 14.5095 34.6177 13.7456C34.6177 12.8552 33.9819 12.2177 33.218 12.2177L5.98152 12.2177C2.6729 12.2177 0 9.54479 0 6.23617L0 5.98152C0 2.6729 2.6729 0 5.98152 0L36.9095 0C38.1809 0 39.1995 1.01859 39.1995 2.29182C39.1995 3.56327 38.1809 4.58186 36.9095 4.58186L5.98152 4.58186C5.21936 4.58186 4.58185 5.21758 4.58185 5.98152L4.58185 6.23617C4.58185 7.00011 5.21936 7.63583 5.98152 7.63583L33.218 7.63583C36.5266 7.63583 39.1995 10.3087 39.1995 13.6174C39.1995 17.0542 36.5266 19.7271 33.218 19.7271" transform="translate(302 27)" id="Fill-17" fill="#FFFFFF" fill-rule="evenodd" stroke="none" />
      <path d="M3.05398 0C1.39967 0 0 1.39967 0 3.05398C0 4.70829 1.39967 6.10973 3.05398 6.10973C4.70829 6.10973 6.10795 4.70829 6.10795 3.05398C6.10795 1.39967 4.70829 0 3.05398 0M3.05371 5.34577C1.78048 5.34577 0.763672 4.32719 0.763672 3.05395C0.763672 1.7825 1.78048 0.763916 3.05371 0.763916C4.32694 0.763916 5.34375 1.7825 5.34375 3.05395C5.34375 4.32719 4.32694 5.34577 3.05371 5.34577" transform="translate(353 27)" id="Fill-19" fill="#FFFFFF" fill-rule="evenodd" stroke="none" />
      <path d="M0.381079 2.1636C0.381079 2.41825 0 2.41825 0 2.1636L0 0.254646C0 0.126433 0.126433 0 0.254646 0L1.14502 0C2.03539 0 2.1636 1.14502 1.39967 1.39967L1.78074 1.90896C1.90896 2.1636 1.65431 2.41825 1.39967 2.1636L0.890372 1.39967L0.381079 1.39967L0.381079 2.1636ZM0.380859 1.04881L1.17863 1.04881C1.55971 1.04881 1.56327 0.413086 1.17863 0.413086L0.380859 0.413086L0.380859 1.04881Z" transform="translate(355 29)" id="Fill-21" fill="#FFFFFF" fill-rule="evenodd" stroke="none" />
    </g>
    <g id="inside" fill="#FFFFFF" transform="translate(616 62)">
      <path d="M35.2516 18.3018L33.8102 18.3018L33.8102 16.7725L33.775 16.7725Q32.7731 18.5127 30.6813 18.5127Q28.985 18.5127 27.9699 17.3042Q26.9547 16.0957 26.9547 14.0127Q26.9547 11.7803 28.0797 10.4355Q29.2047 9.09082 31.0768 9.09082Q32.9313 9.09082 33.775 10.5498L33.8102 10.5498L33.8102 4.97754L35.2516 4.97754L35.2516 18.3018ZM1.53809 6.75293Q1.81055 7.0166 2.19727 7.0166Q2.59277 7.0166 2.86963 6.74414Q3.14648 6.47168 3.14648 6.08496Q3.14648 5.68066 2.86963 5.4126Q2.59277 5.14453 2.19727 5.14453Q1.81055 5.14453 1.53809 5.4126Q1.26563 5.68066 1.26563 6.08496Q1.26563 6.48926 1.53809 6.75293ZM23.3977 6.75293Q23.6701 7.0166 24.0569 7.0166Q24.4524 7.0166 24.7292 6.74414Q25.0061 6.47168 25.0061 6.08496Q25.0061 5.68066 24.7292 5.4126Q24.4524 5.14453 24.0569 5.14453Q23.6701 5.14453 23.3977 5.4126Q23.1252 5.68066 23.1252 6.08496Q23.1252 6.48926 23.3977 6.75293ZM11.7397 18.3018L13.1811 18.3018L13.1811 12.7998Q13.1811 10.998 12.3988 10.0444Q11.6166 9.09082 10.14 9.09082Q8.20645 9.09082 7.18692 10.7959L7.15177 10.7959L7.15177 9.30176L5.71036 9.30176L5.71036 18.3018L7.15177 18.3018L7.15177 13.1689Q7.15177 11.9297 7.85929 11.1167Q8.5668 10.3037 9.64786 10.3037Q11.7397 10.3037 11.7397 13.1689L11.7397 18.3018ZM15.244 17.9766L15.244 16.4297Q16.4217 17.2998 17.8367 17.2998Q19.7352 17.2998 19.7352 16.0342Q19.7352 15.6738 19.5726 15.4233Q19.41 15.1729 19.1331 14.9795Q18.8563 14.7861 18.4827 14.6323Q18.1092 14.4785 17.6785 14.3115Q17.0809 14.0742 16.6282 13.8325Q16.1756 13.5908 15.8724 13.2876Q15.5692 12.9844 15.4153 12.5977Q15.2615 12.2109 15.2615 11.6924Q15.2615 11.0596 15.5516 10.5718Q15.8416 10.084 16.325 9.75439Q16.8084 9.4248 17.428 9.25781Q18.0477 9.09082 18.7069 9.09082Q19.8758 9.09082 20.7986 9.49512L20.7986 10.9541Q19.8055 10.3037 18.5135 10.3037Q18.1092 10.3037 17.784 10.396Q17.4588 10.4883 17.2259 10.6553Q16.993 10.8223 16.8655 11.0552Q16.7381 11.2881 16.7381 11.5693Q16.7381 11.9209 16.8655 12.1582Q16.993 12.3955 17.2391 12.5801Q17.4852 12.7646 17.8367 12.9141Q18.1883 13.0635 18.6365 13.2393Q19.2342 13.4678 19.7088 13.7095Q20.1834 13.9512 20.5174 14.2544Q20.8514 14.5576 21.0316 14.9531Q21.2117 15.3486 21.2117 15.8936Q21.2117 16.5615 20.9173 17.0537Q20.6229 17.5459 20.1307 17.8711Q19.6385 18.1963 18.9969 18.3545Q18.3553 18.5127 17.6522 18.5127Q16.2635 18.5127 15.244 17.9766ZM38.9405 14.1621L45.295 14.1621L45.295 13.4063Q45.295 11.376 44.3282 10.2334Q43.3614 9.09082 41.5948 9.09082Q39.8282 9.09082 38.6372 10.4136Q37.4463 11.7363 37.4463 13.8369Q37.4463 16.0605 38.5362 17.2866Q39.626 18.5127 41.5332 18.5127Q43.4844 18.5127 44.6709 17.6514L44.6709 16.2979Q43.3965 17.2998 41.876 17.2998Q40.5225 17.2998 39.7491 16.4824Q38.9756 15.665 38.9405 14.1621ZM1.45898 18.3018L2.90039 18.3018L2.90039 9.30176L1.45898 9.30176L1.45898 18.3018ZM23.3186 18.3018L24.76 18.3018L24.76 9.30176L23.3186 9.30176L23.3186 18.3018ZM33.8102 14.2324L33.8102 12.9053Q33.8102 11.8154 33.0895 11.0596Q32.3688 10.3037 31.2614 10.3037Q29.943 10.3037 29.1871 11.2705Q28.4313 12.2373 28.4313 13.9424Q28.4313 15.498 29.1564 16.3989Q29.8815 17.2998 31.1032 17.2998Q32.3073 17.2998 33.0587 16.4297Q33.8102 15.5596 33.8102 14.2324ZM43.2163 10.998Q43.8096 11.6924 43.8184 12.9404L38.958 12.9404Q39.125 11.7627 39.837 11.0332Q40.5489 10.3037 41.5684 10.3037Q42.6231 10.3037 43.2163 10.998Z" />
    </g>
    <path d="M30.6644 61.3288C13.7289 61.3288 0 47.5999 0 30.6644C0 13.7289 13.7289 0 30.6644 0C47.5999 0 61.3288 13.7289 61.3288 30.6644C61.3288 47.5999 47.5999 61.3288 30.6644 61.3288ZM30.6641 57.4495C45.4571 57.4495 57.4493 45.4574 57.4493 30.6643C57.4493 15.8713 45.4571 3.87915 30.6641 3.87915C15.871 3.87915 3.87891 15.8713 3.87891 30.6643C3.87891 45.4574 15.871 57.4495 30.6641 57.4495Z" transform="translate(0 12)" id="Oval" fill="#FFFFFF" fill-rule="evenodd" stroke="none" />
    <g id="Rectangle-Copy-+-Rectangle-Copy-2-Mask" transform="translate(910 0)">
      <path d="M45 90C20.1472 90 0 69.8528 0 45C0 20.1472 20.1472 0 45 0C69.8528 0 90 20.1472 90 45C90 69.8528 69.8528 90 45 90Z" id="Mask" fill="#FFFFFF" fill-rule="evenodd" stroke="none" />
      <g clip-path="url(#mask_1)">
        <path d="M0 0L98 0L98 29L0 29L0 0Z" transform="translate(-3 31)" id="Rectangle-Copy" fill="#4766B4" fill-rule="evenodd" stroke="none" />
        <path d="M0 0L98 0L98 30L0 30L0 0Z" transform="translate(-3 60)" id="Rectangle-Copy-2" fill="#D63131" fill-rule="evenodd" stroke="none" />
      </g>
    </g>
  </g>
</svg>