<?xml version="1.0" encoding="utf-8"?>
<svg width="51px" height="53px" viewbox="0 0 51 53" version="1.1" xmlns:xlink="http://www.w3.org/1999/xlink" xmlns="http://www.w3.org/2000/svg">
  <g id="RU" fill="#FFFFFF">
    <path d="M19.8438 40.5039L23.75 40.5039L18.4961 32.0859Q17.9297 31.168 17.4707 30.4746Q17.0117 29.7813 16.543 29.2344Q16.0742 28.6875 15.5566 28.2871Q15.0391 27.8867 14.3359 27.5742L14.3359 27.4961Q15.7617 27.125 16.9043 26.4512Q18.0469 25.7773 18.8574 24.8203Q19.668 23.8633 20.1074 22.6426Q20.5469 21.4219 20.5469 19.957Q20.5469 18.082 19.9023 16.6855Q19.2578 15.2891 18.1152 14.3516Q16.9727 13.4141 15.4199 12.9551Q13.8672 12.4961 12.0313 12.4961L3.67188 12.4961L3.67188 40.5039L6.95313 40.5039L6.95313 28.5898L9.64844 28.5898Q10.5664 28.5898 11.2988 28.8145Q12.0313 29.0391 12.666 29.5273Q13.3008 30.0156 13.9063 30.7871Q14.5117 31.5586 15.1563 32.6523L19.8438 40.5039ZM27.0061 29.625Q27.0061 40.9727 37.2014 40.9727Q47.8459 40.9727 47.8459 29.1758L47.8459 12.4961L44.5647 12.4961L44.5647 29.7031Q44.5647 38.0234 37.553 38.0234Q30.2873 38.0234 30.2873 29.4102L30.2873 12.4961L27.0061 12.4961L27.0061 29.625ZM6.95313 25.6211L6.95313 15.4648L11.4453 15.4648Q14.1992 15.4648 15.6543 16.7246Q17.1094 17.9844 17.1094 20.2305Q17.1094 21.4805 16.6797 22.4863Q16.25 23.4922 15.4883 24.1855Q14.7266 24.8789 13.6816 25.25Q12.6367 25.6211 11.4063 25.6211L6.95313 25.6211Z" />
  </g>
</svg>