<?xml version="1.0" encoding="utf-8"?>
<svg width="959px" height="117px" viewbox="0 0 959 117" version="1.1" xmlns:xlink="http://www.w3.org/1999/xlink" xmlns="http://www.w3.org/2000/svg">
  <defs>
    <radialGradient gradientUnits="objectBoundingBox" cx="50%" cy="0%" fx="50%" fy="0%" r="100%" gradientTransform="translate(0.5,0),scale(0.0032869405,1),rotate(90),scale(1,105.13875),translate(-0.5,-0)" id="gradient_1">
      <stop offset="0%" stop-color="#FFFFFF" />
      <stop offset="100%" stop-color="#121212" />
    </radialGradient>
  </defs>
  <g id="Group" transform="translate(1.5 1.5)">
    <g id="logo" transform="translate(320 0)">
      <path d="M37.0021 0C16.5663 0 0 16.5663 0 37.0021C0 57.4379 16.5663 74.0042 37.0021 74.0042C57.4379 74.0042 74.0042 57.4379 74.0042 37.0021C74.0042 16.5663 57.4379 0 37.0021 0" id="Fill-1" fill="#24B5E2" fill-rule="evenodd" stroke="none" />
      <path d="M33 0C14.7747 0 0 14.7747 0 33C0 51.2253 14.7747 66 33 66C51.2253 66 66 51.2253 66 33C66 14.7747 51.2253 0 33 0" transform="translate(4 4)" id="Fill-3" fill="#121212" fill-rule="evenodd" stroke="none" />
      <path d="M37.0235 0L5.99933 0C2.68002 0 0 2.6818 0 6.00111L0 17.7469C0 19.0219 1.02037 20.0441 2.29716 20.0441C3.57395 20.0441 4.5961 19.0219 4.5961 17.7469L4.5961 13.6601L38.4285 13.6601L38.4285 17.6187C38.4285 18.8955 39.4488 19.9158 40.7256 19.9158C42.0024 19.9158 43.0246 18.8955 43.0246 17.6187L43.0246 6.00111C43.0246 2.6818 40.3428 0 37.0235 0L37.0235 0ZM4.5961 9.06399L4.5961 6.00111C4.5961 5.10718 5.36182 4.46789 6.12754 4.46789L36.8952 4.46789C37.7892 4.46789 38.4285 5.23361 38.4285 6.00111L38.4285 9.06399L4.5961 9.06399Z" transform="translate(15 27)" id="Fill-5" fill="#FEFEFE" fill-rule="evenodd" stroke="none" />
      <path d="M37.0359 19.8535L0 19.8535L0 2.29004C0 1.01681 1.01859 0 2.29182 0C3.56327 0 4.58186 1.01681 4.58186 2.29004L4.58186 15.2717L37.0359 15.2717C38.3092 15.2717 39.326 16.2902 39.326 17.5635C39.326 18.8349 38.3092 19.8535 37.0359 19.8535" transform="translate(158 27)" id="Fill-7" fill="#FFFFFF" fill-rule="evenodd" stroke="none" />
      <path d="M37.0359 19.8535L0 19.8535L0 2.29004C0 1.01681 1.01859 0 2.29182 0C3.56327 0 4.58186 1.01681 4.58186 2.29004L4.58186 15.2717L37.0359 15.2717C38.3092 15.2717 39.326 16.2902 39.326 17.5635C39.326 18.8349 38.3092 19.8535 37.0359 19.8535" transform="translate(89 27)" id="Fill-9" fill="#FFFFFF" fill-rule="evenodd" stroke="none" />
      <path d="M40.5992 4.58186L2.29182 4.58186C1.01859 4.58186 0 3.56327 0 2.29182C0 1.01859 1.01859 0 2.29182 0L40.5992 0C41.8724 0 42.8892 1.01859 42.8892 2.29182C42.8892 3.56327 41.8724 4.58186 40.5992 4.58186" transform="translate(228 27)" id="Fill-11" fill="#FFFFFF" fill-rule="evenodd" stroke="none" />
      <path d="M40.5992 4.58186L2.29182 4.58186C1.01859 4.58186 0 3.56327 0 2.29182C0 1.01859 1.01859 0 2.29182 0L40.5992 0C41.8724 0 42.8892 1.01859 42.8892 2.29182C42.8892 3.56327 41.8724 4.58186 40.5992 4.58186" transform="translate(228 42)" id="Fill-13" fill="#FFFFFF" fill-rule="evenodd" stroke="none" />
      <path d="M40.5992 4.58186L2.29182 4.58186C1.01859 4.58186 0 3.56327 0 2.29182C0 1.01859 1.01859 0 2.29182 0L40.5992 0C41.8724 0 42.8892 1.01859 42.8892 2.29182C42.8892 3.56327 41.8724 4.58186 40.5992 4.58186" transform="translate(228 35)" id="Fill-15" fill="#FFFFFF" fill-rule="evenodd" stroke="none" />
      <path d="M33.218 19.7271L2.29182 19.7271C1.01859 19.7271 0 18.7085 0 17.4371C0 16.1638 1.01859 15.1452 2.29182 15.1452L33.218 15.1452C33.9819 15.1452 34.6177 14.5095 34.6177 13.7456C34.6177 12.8552 33.9819 12.2177 33.218 12.2177L5.98152 12.2177C2.6729 12.2177 0 9.54479 0 6.23617L0 5.98152C0 2.6729 2.6729 0 5.98152 0L36.9095 0C38.1809 0 39.1995 1.01859 39.1995 2.29182C39.1995 3.56327 38.1809 4.58186 36.9095 4.58186L5.98152 4.58186C5.21936 4.58186 4.58185 5.21758 4.58185 5.98152L4.58185 6.23617C4.58185 7.00011 5.21936 7.63583 5.98152 7.63583L33.218 7.63583C36.5266 7.63583 39.1995 10.3087 39.1995 13.6174C39.1995 17.0542 36.5266 19.7271 33.218 19.7271" transform="translate(302 27)" id="Fill-17" fill="#FFFFFF" fill-rule="evenodd" stroke="none" />
      <path d="M3.05398 0C1.39967 0 0 1.39967 0 3.05398C0 4.70829 1.39967 6.10973 3.05398 6.10973C4.70829 6.10973 6.10795 4.70829 6.10795 3.05398C6.10795 1.39967 4.70829 0 3.05398 0M3.05398 5.34579C1.78074 5.34579 0.763939 4.32721 0.763939 3.05398C0.763939 1.78253 1.78074 0.763939 3.05398 0.763939C4.32721 0.763939 5.34401 1.78253 5.34401 3.05398C5.34401 4.32721 4.32721 5.34579 3.05398 5.34579" transform="translate(353 27)" id="Fill-19" fill="#FFFFFF" fill-rule="evenodd" stroke="none" />
      <path d="M0.381079 2.1636C0.381079 2.41825 0 2.41825 0 2.1636L0 0.254646C0 0.126433 0.126433 0 0.254646 0L1.14502 0C2.03539 0 2.1636 1.14502 1.39967 1.39967L1.78074 1.90896C1.90896 2.1636 1.65431 2.41825 1.39967 2.1636L0.890372 1.39967L0.381079 1.39967L0.381079 2.1636ZM0.381079 1.04886L1.17885 1.04886C1.55993 1.04886 1.56349 0.413133 1.17885 0.413133L0.381079 0.413133L0.381079 1.04886Z" transform="translate(355 29)" id="Fill-21" fill="#FFFFFF" fill-rule="evenodd" stroke="none" />
    </g>
    <path d="M30.6644 61.3288C13.7289 61.3288 0 47.5999 0 30.6644C0 13.7289 13.7289 0 30.6644 0C47.5999 0 61.3288 13.7289 61.3288 30.6644C61.3288 47.5999 47.5999 61.3288 30.6644 61.3288ZM30.6641 57.4495C45.4571 57.4495 57.4493 45.4574 57.4493 30.6643C57.4493 15.8713 45.4571 3.87915 30.6641 3.87915C15.871 3.87915 3.87891 15.8713 3.87891 30.6643C3.87891 45.4574 15.871 57.4495 30.6641 57.4495Z" transform="translate(0 7)" id="Oval" fill="#FFFFFF" fill-rule="evenodd" stroke="none" />
    <path d="M0 0L912.703 0L912.703 3L0 3L0 0L0 0Z" transform="translate(43 111)" id="Vector" fill="none" fill-rule="evenodd" stroke="url(#gradient_1)" stroke-width="3" stroke-linecap="square" />
  </g>
</svg>