<?xml version="1.0" encoding="utf-8"?>
<svg width="138px" height="145px" viewbox="0 0 138 145" version="1.1" xmlns:xlink="http://www.w3.org/1999/xlink" xmlns="http://www.w3.org/2000/svg">
  <defs>
    <filter filterUnits="userSpaceOnUse" color-interpolation-filters="sRGB" id="filter_1">
      <feFlood flood-opacity="0" result="BackgroundImageFix" />
      <feColorMatrix in="SourceAlpha" type="matrix" values="0 0 0 0 0 0 0 0 0 0 0 0 0 0 0 0 0 0 127 0" />
      <feOffset dx="0" dy="16" />
      <feGaussianBlur stdDeviation="6" />
      <feColorMatrix type="matrix" values="0 0 0 0 0 0 0 0 0 0.7254902 0 0 0 0 0.8901961 0 0 0 1 0" />
      <feBlend mode="normal" in2="BackgroundImageFix" result="effect0_dropShadow" />
      <feBlend mode="normal" in="SourceGraphic" in2="effect0_dropShadow" result="shape" />
    </filter>
  </defs>
  <path d="M39.999 0L80.001 0Q80.9829 0 81.9637 0.0481805Q82.9444 0.0963611 83.9216 0.192606Q84.8988 0.288851 85.8701 0.432929Q86.8414 0.577006 87.8044 0.768569Q88.7675 0.960133 89.72 1.19872Q90.6725 1.43731 91.6121 1.72234Q92.5517 2.00738 93.4763 2.33818Q94.4008 2.66898 95.3079 3.04474Q96.2151 3.42051 97.1028 3.84033Q97.9904 4.26016 98.8564 4.72303Q99.7224 5.1859 100.565 5.69071Q101.407 6.19552 102.223 6.74105Q103.04 7.28657 103.828 7.8715Q104.617 8.45643 105.376 9.07935Q106.135 9.70228 106.863 10.3617Q107.59 11.0211 108.285 11.7154Q108.979 12.4098 109.638 13.1373Q110.298 13.8649 110.921 14.6239Q111.544 15.3829 112.128 16.1716Q112.713 16.9603 113.259 17.7767Q113.804 18.5932 114.309 19.4354Q114.814 20.2776 115.277 21.1436Q115.74 22.0096 116.16 22.8972Q116.579 23.7849 116.955 24.692Q117.331 25.5992 117.662 26.5237Q117.993 27.4483 118.278 28.3879Q118.563 29.3275 118.801 30.28Q119.04 31.2325 119.231 32.1956Q119.423 33.1586 119.567 34.1299Q119.711 35.1012 119.807 36.0784Q119.904 37.0556 119.952 38.0363Q120 39.0171 120 39.999L120 80.001Q120 80.9829 119.952 81.9637Q119.904 82.9444 119.807 83.9216Q119.711 84.8988 119.567 85.8701Q119.423 86.8414 119.231 87.8044Q119.04 88.7675 118.801 89.72Q118.563 90.6725 118.278 91.6121Q117.993 92.5517 117.662 93.4763Q117.331 94.4008 116.955 95.3079Q116.579 96.2151 116.16 97.1028Q115.74 97.9904 115.277 98.8564Q114.814 99.7224 114.309 100.565Q113.804 101.407 113.259 102.223Q112.713 103.04 112.128 103.828Q111.544 104.617 110.921 105.376Q110.298 106.135 109.638 106.863Q108.979 107.59 108.285 108.285Q107.59 108.979 106.863 109.638Q106.135 110.298 105.376 110.921Q104.617 111.544 103.828 112.128Q103.04 112.713 102.223 113.259Q101.407 113.804 100.565 114.309Q99.7224 114.814 98.8564 115.277Q97.9904 115.74 97.1028 116.16Q96.2151 116.579 95.308 116.955Q94.4008 117.331 93.4763 117.662Q92.5517 117.993 91.6121 118.278Q90.6725 118.563 89.72 118.801Q88.7675 119.04 87.8044 119.231Q86.8414 119.423 85.8701 119.567Q84.8988 119.711 83.9216 119.807Q82.9444 119.904 81.9637 119.952Q80.9829 120 80.001 120L39.999 120Q39.0171 120 38.0363 119.952Q37.0556 119.904 36.0784 119.807Q35.1012 119.711 34.1299 119.567Q33.1586 119.423 32.1956 119.231Q31.2325 119.04 30.28 118.801Q29.3275 118.563 28.3879 118.278Q27.4483 117.993 26.5237 117.662Q25.5992 117.331 24.692 116.955Q23.7849 116.579 22.8972 116.16Q22.0096 115.74 21.1436 115.277Q20.2776 114.814 19.4354 114.309Q18.5932 113.804 17.7767 113.259Q16.9603 112.713 16.1716 112.128Q15.3829 111.544 14.6239 110.921Q13.8649 110.298 13.1373 109.638Q12.4098 108.979 11.7154 108.285Q11.0211 107.59 10.3617 106.863Q9.70228 106.135 9.07935 105.376Q8.45643 104.617 7.8715 103.828Q7.28657 103.04 6.74105 102.223Q6.19552 101.407 5.69071 100.565Q5.1859 99.7224 4.72303 98.8564Q4.26016 97.9904 3.84033 97.1028Q3.42051 96.2151 3.04474 95.308Q2.66898 94.4008 2.33818 93.4763Q2.00738 92.5517 1.72234 91.6121Q1.43731 90.6725 1.19872 89.72Q0.960133 88.7675 0.768569 87.8044Q0.577006 86.8414 0.432929 85.8701Q0.288851 84.8988 0.192606 83.9216Q0.0963611 82.9444 0.0481805 81.9637Q0 80.9829 0 80.001L0 39.999Q0 39.0171 0.0481805 38.0363Q0.0963611 37.0556 0.192606 36.0784Q0.288851 35.1012 0.432929 34.1299Q0.577006 33.1586 0.768569 32.1956Q0.960133 31.2325 1.19872 30.28Q1.43731 29.3275 1.72234 28.3879Q2.00738 27.4483 2.33818 26.5237Q2.66898 25.5992 3.04474 24.692Q3.42051 23.7849 3.84033 22.8972Q4.26016 22.0096 4.72303 21.1436Q5.1859 20.2776 5.69071 19.4354Q6.19552 18.5932 6.74105 17.7767Q7.28657 16.9603 7.8715 16.1716Q8.45643 15.3829 9.07935 14.6239Q9.70228 13.8649 10.3617 13.1373Q11.0211 12.4098 11.7154 11.7154Q12.4098 11.0211 13.1373 10.3617Q13.8649 9.70228 14.6239 9.07935Q15.3829 8.45643 16.1716 7.8715Q16.9603 7.28657 17.7767 6.74105Q18.5932 6.19552 19.4354 5.69071Q20.2776 5.1859 21.1436 4.72303Q22.0096 4.26016 22.8972 3.84033Q23.7849 3.42051 24.692 3.04474Q25.5992 2.66898 26.5237 2.33818Q27.4483 2.00738 28.3879 1.72234Q29.3275 1.43731 30.28 1.19872Q31.2325 0.960133 32.1956 0.768569Q33.1586 0.577006 34.1299 0.432929Q35.1012 0.288851 36.0784 0.192606Q37.0556 0.0963611 38.0363 0.0481805Q39.0171 0 39.999 0Z" transform="translate(9 0)" id="Rectangle-2-Copy-21" fill="#FFFFFF" fill-rule="evenodd" stroke="none" filter="url(#filter_1)" />
  <g id="8" transform="translate(47 13)">
    <path d="M3.51563 65.3828Q3.51563 63.1563 4.21875 60.9102Q4.92187 58.6641 6.23047 56.7109Q7.53906 54.7578 9.47266 53.1563Q11.4063 51.5547 13.8672 50.6172Q10.2344 48.5859 8.08594 45.4023Q5.9375 42.2188 5.9375 38.3516Q5.9375 35.2656 7.12891 32.6484Q8.32031 30.0313 10.4297 28.1172Q12.5391 26.2031 15.4297 25.1289Q18.3203 24.0547 21.6797 24.0547Q25.0781 24.0547 27.9688 25.1484Q30.8594 26.2422 32.9688 28.1563Q35.0781 30.0703 36.25 32.6875Q37.4219 35.3047 37.4219 38.3516Q37.4219 42.2188 35.2734 45.4023Q33.125 48.5859 29.5703 50.6172Q31.9922 51.5547 33.9063 53.1563Q35.8203 54.7578 37.1289 56.7109Q38.4375 58.6641 39.1406 60.9102Q39.8437 63.1563 39.8438 65.3828Q39.8437 69.0547 38.5156 72.1016Q37.1875 75.1484 34.7852 77.3164Q32.3828 79.4844 29.043 80.6953Q25.7031 81.9063 21.6797 81.9063Q17.6953 81.9063 14.375 80.6953Q11.0547 79.4844 8.63281 77.3164Q6.21094 75.1484 4.86328 72.1016Q3.51563 69.0547 3.51563 65.3828ZM10.4688 64.8359Q10.4688 67.4531 11.2695 69.5625Q12.0703 71.6719 13.5352 73.1563Q15 74.6406 17.0898 75.4414Q19.1797 76.2422 21.7188 76.2422Q24.1797 76.2422 26.25 75.4219Q28.3203 74.6016 29.8242 73.1172Q31.3281 71.6328 32.168 69.5234Q33.0078 67.4141 33.0078 64.8359Q33.0078 62.4922 32.207 60.4414Q31.4062 58.3906 29.9219 56.8281Q28.4375 55.2656 26.3672 54.3672Q24.2969 53.4688 21.7188 53.4688Q19.2969 53.4688 17.2461 54.3086Q15.1953 55.1484 13.6914 56.6523Q12.1875 58.1563 11.3281 60.2461Q10.4687 62.3359 10.4688 64.8359ZM12.4609 38.8594Q12.4609 40.8516 13.1836 42.5508Q13.9062 44.25 15.1758 45.5195Q16.4453 46.7891 18.125 47.5117Q19.8047 48.2344 21.7188 48.2344Q23.6328 48.2344 25.332 47.4922Q27.0313 46.75 28.2813 45.4805Q29.5313 44.2109 30.2734 42.5117Q31.0156 40.8125 31.0156 38.8594Q31.0156 36.8281 30.293 35.1094Q29.5703 33.3906 28.3203 32.1406Q27.0703 30.8906 25.3711 30.168Q23.6719 29.4453 21.7188 29.4453Q19.6484 29.4453 17.9492 30.1875Q16.25 30.9297 15.0195 32.1992Q13.7891 33.4688 13.125 35.1875Q12.4609 36.9063 12.4609 38.8594Z" />
  </g>
</svg>