<?xml version="1.0" encoding="utf-8"?>
<svg width="138px" height="145px" viewbox="0 0 138 145" version="1.1" xmlns:xlink="http://www.w3.org/1999/xlink" xmlns="http://www.w3.org/2000/svg">
  <defs>
    <filter filterUnits="userSpaceOnUse" color-interpolation-filters="sRGB" id="filter_1">
      <feFlood flood-opacity="0" result="BackgroundImageFix" />
      <feColorMatrix in="SourceAlpha" type="matrix" values="0 0 0 0 0 0 0 0 0 0 0 0 0 0 0 0 0 0 127 0" />
      <feOffset dx="0" dy="16" />
      <feGaussianBlur stdDeviation="6" />
      <feColorMatrix type="matrix" values="0 0 0 0 0.8901961 0 0 0 0 0 0 0 0 0 0 0 0 0 1 0" />
      <feBlend mode="normal" in2="BackgroundImageFix" result="effect0_dropShadow" />
      <feBlend mode="normal" in="SourceGraphic" in2="effect0_dropShadow" result="shape" />
    </filter>
    <path d="M39.999 0L80.001 0Q80.9829 0 81.9637 0.0481805Q82.9444 0.0963611 83.9216 0.192606Q84.8988 0.288851 85.8701 0.432929Q86.8414 0.577006 87.8044 0.768569Q88.7675 0.960133 89.72 1.19872Q90.6725 1.43731 91.6121 1.72234Q92.5517 2.00738 93.4763 2.33818Q94.4008 2.66898 95.3079 3.04474Q96.2151 3.42051 97.1028 3.84033Q97.9904 4.26016 98.8564 4.72303Q99.7224 5.1859 100.565 5.69071Q101.407 6.19552 102.223 6.74105Q103.04 7.28657 103.828 7.8715Q104.617 8.45643 105.376 9.07935Q106.135 9.70228 106.863 10.3617Q107.59 11.0211 108.285 11.7154Q108.979 12.4098 109.638 13.1373Q110.298 13.8649 110.921 14.6239Q111.544 15.3829 112.128 16.1716Q112.713 16.9603 113.259 17.7767Q113.804 18.5932 114.309 19.4354Q114.814 20.2776 115.277 21.1436Q115.74 22.0096 116.16 22.8972Q116.579 23.7849 116.955 24.692Q117.331 25.5992 117.662 26.5237Q117.993 27.4483 118.278 28.3879Q118.563 29.3275 118.801 30.28Q119.04 31.2325 119.231 32.1956Q119.423 33.1586 119.567 34.1299Q119.711 35.1012 119.807 36.0784Q119.904 37.0556 119.952 38.0363Q120 39.0171 120 39.999L120 80.001Q120 80.9829 119.952 81.9637Q119.904 82.9444 119.807 83.9216Q119.711 84.8988 119.567 85.8701Q119.423 86.8414 119.231 87.8044Q119.04 88.7675 118.801 89.72Q118.563 90.6725 118.278 91.6121Q117.993 92.5517 117.662 93.4763Q117.331 94.4008 116.955 95.3079Q116.579 96.2151 116.16 97.1028Q115.74 97.9904 115.277 98.8564Q114.814 99.7224 114.309 100.565Q113.804 101.407 113.259 102.223Q112.713 103.04 112.128 103.828Q111.544 104.617 110.921 105.376Q110.298 106.135 109.638 106.863Q108.979 107.59 108.285 108.285Q107.59 108.979 106.863 109.638Q106.135 110.298 105.376 110.921Q104.617 111.544 103.828 112.128Q103.04 112.713 102.223 113.259Q101.407 113.804 100.565 114.309Q99.7224 114.814 98.8564 115.277Q97.9904 115.74 97.1028 116.16Q96.2151 116.579 95.308 116.955Q94.4008 117.331 93.4763 117.662Q92.5517 117.993 91.6121 118.278Q90.6725 118.563 89.72 118.801Q88.7675 119.04 87.8044 119.231Q86.8414 119.423 85.8701 119.567Q84.8988 119.711 83.9216 119.807Q82.9444 119.904 81.9637 119.952Q80.9829 120 80.001 120L39.999 120Q39.0171 120 38.0363 119.952Q37.0556 119.904 36.0784 119.807Q35.1012 119.711 34.1299 119.567Q33.1586 119.423 32.1956 119.231Q31.2325 119.04 30.28 118.801Q29.3275 118.563 28.3879 118.278Q27.4483 117.993 26.5237 117.662Q25.5992 117.331 24.692 116.955Q23.7849 116.579 22.8972 116.16Q22.0096 115.74 21.1436 115.277Q20.2776 114.814 19.4354 114.309Q18.5932 113.804 17.7767 113.259Q16.9603 112.713 16.1716 112.128Q15.3829 111.544 14.6239 110.921Q13.8649 110.298 13.1373 109.638Q12.4098 108.979 11.7154 108.285Q11.0211 107.59 10.3617 106.863Q9.70228 106.135 9.07935 105.376Q8.45643 104.617 7.8715 103.828Q7.28657 103.04 6.74105 102.223Q6.19552 101.407 5.69071 100.565Q5.1859 99.7224 4.72303 98.8564Q4.26016 97.9904 3.84033 97.1028Q3.42051 96.2151 3.04474 95.308Q2.66898 94.4008 2.33818 93.4763Q2.00738 92.5517 1.72234 91.6121Q1.43731 90.6725 1.19872 89.72Q0.960133 88.7675 0.768569 87.8044Q0.577006 86.8414 0.432929 85.8701Q0.288851 84.8988 0.192606 83.9216Q0.0963611 82.9444 0.0481805 81.9637Q0 80.9829 0 80.001L0 39.999Q0 39.0171 0.0481805 38.0363Q0.0963611 37.0556 0.192606 36.0784Q0.288851 35.1012 0.432929 34.1299Q0.577006 33.1586 0.768569 32.1956Q0.960133 31.2325 1.19872 30.28Q1.43731 29.3275 1.72234 28.3879Q2.00738 27.4483 2.33818 26.5237Q2.66898 25.5992 3.04474 24.692Q3.42051 23.7849 3.84033 22.8972Q4.26016 22.0096 4.72303 21.1436Q5.1859 20.2776 5.69071 19.4354Q6.19552 18.5932 6.74105 17.7767Q7.28657 16.9603 7.8715 16.1716Q8.45643 15.3829 9.07935 14.6239Q9.70228 13.8649 10.3617 13.1373Q11.0211 12.4098 11.7154 11.7154Q12.4098 11.0211 13.1373 10.3617Q13.8649 9.70228 14.6239 9.07935Q15.3829 8.45643 16.1716 7.8715Q16.9603 7.28657 17.7767 6.74105Q18.5932 6.19552 19.4354 5.69071Q20.2776 5.1859 21.1436 4.72303Q22.0096 4.26016 22.8972 3.84033Q23.7849 3.42051 24.692 3.04474Q25.5992 2.66898 26.5237 2.33818Q27.4483 2.00738 28.3879 1.72234Q29.3275 1.43731 30.28 1.19872Q31.2325 0.960133 32.1956 0.768569Q33.1586 0.577006 34.1299 0.432929Q35.1012 0.288851 36.0784 0.192606Q37.0556 0.0963611 38.0363 0.0481805Q39.0171 0 39.999 0Z" transform="translate(9 0)" id="path_1" />
    <path d="M12.3596 0L38.4164 0C41.5001 0 44 2.55198 44 5.7L44 32.3C44 35.448 41.5001 38 38.4164 38L12.3596 38C9.27581 38 0 19 0 19C0 19 9.27581 0 12.3596 0ZM13.4365 3.70459C12.4086 3.70459 4.18555 19 4.18555 19C4.18555 19 12.4086 34.2 13.4365 34.2L38.4166 34.2C39.4445 34.2 40.2778 33.3494 40.2778 32.3L40.2778 5.70003C40.2778 4.65069 39.4445 3.80003 38.4166 3.80003L13.4365 3.70459ZM20.7638 12.3064L25.0314 16.6629L25.3885 17.0275L30.0133 12.3064Q30.4113 11.9 30.9721 11.9Q31.5329 11.9 31.931 12.3064Q32.9044 13.3 31.931 14.2936L27.3207 19L31.931 23.7064C32.5799 24.3688 32.5799 25.0312 31.931 25.6936C31.6656 25.9646 31.346 26.1 30.9721 26.1C30.5983 26.1 30.2786 25.9646 30.0133 25.6936L25.3885 20.9725L20.7638 25.6936C20.4984 25.9646 20.1788 26.1 19.8049 26.1C19.4311 26.1 19.1114 25.9646 18.846 25.6936C18.1972 25.0312 18.1972 24.3688 18.846 23.7064L23.4563 19L18.846 14.2936Q17.8727 13.3 18.846 12.3064C19.1114 12.0355 19.4311 11.9 19.8049 11.9Q20.3657 11.9 20.7638 12.3064Z" id="path_2" />
    <clipPath id="clip_1">
      <use xlink:href="#path_1" />
    </clipPath>
    <clipPath id="mask_1">
      <use xlink:href="#path_2" />
    </clipPath>
  </defs>
  <g id="Rectangle-2-Copy-24" filter="url(#filter_1)">
    <use stroke="none" fill="#FFFFFF" xlink:href="#path_1" fill-rule="evenodd" />
    <g clip-path="url(#clip_1)">
      <use xlink:href="#path_1" fill="none" stroke="#E30000" stroke-width="12" />
    </g>
  </g>
  <g id="delete_icon-2" transform="translate(47 40.000122)">
    <path d="M12.3596 0L38.4164 0C41.5001 0 44 2.55198 44 5.7L44 32.3C44 35.448 41.5001 38 38.4164 38L12.3596 38C9.27581 38 0 19 0 19C0 19 9.27581 0 12.3596 0ZM13.4365 3.70459C12.4086 3.70459 4.18555 19 4.18555 19C4.18555 19 12.4086 34.2 13.4365 34.2L38.4166 34.2C39.4445 34.2 40.2778 33.3494 40.2778 32.3L40.2778 5.70003C40.2778 4.65069 39.4445 3.80003 38.4166 3.80003L13.4365 3.70459ZM20.7638 12.3064L25.0314 16.6629L25.3885 17.0275L30.0133 12.3064Q30.4113 11.9 30.9721 11.9Q31.5329 11.9 31.931 12.3064Q32.9044 13.3 31.931 14.2936L27.3207 19L31.931 23.7064C32.5799 24.3688 32.5799 25.0312 31.931 25.6936C31.6656 25.9646 31.346 26.1 30.9721 26.1C30.5983 26.1 30.2786 25.9646 30.0133 25.6936L25.3885 20.9725L20.7638 25.6936C20.4984 25.9646 20.1788 26.1 19.8049 26.1C19.4311 26.1 19.1114 25.9646 18.846 25.6936C18.1972 25.0312 18.1972 24.3688 18.846 23.7064L23.4563 19L18.846 14.2936Q17.8727 13.3 18.846 12.3064C19.1114 12.0355 19.4311 11.9 19.8049 11.9Q20.3657 11.9 20.7638 12.3064Z" id="Combined-Shape" fill="#000000" fill-rule="evenodd" stroke="none" />
    <g clip-path="url(#mask_1)">
      <g id="🎨Color" transform="translate(4 -4)">
        <path d="M0 0L45 0L45 45L0 45L0 0Z" id="Rectangle" fill="#000000" fill-rule="evenodd" stroke="none" />
      </g>
    </g>
  </g>
</svg>