<?xml version="1.0" encoding="utf-8"?>
<svg width="187px" height="145px" viewbox="0 0 187 145" version="1.1" xmlns:xlink="http://www.w3.org/1999/xlink" xmlns="http://www.w3.org/2000/svg">
  <defs>
    <filter filterUnits="userSpaceOnUse" color-interpolation-filters="sRGB" id="filter_1">
      <feFlood flood-opacity="0" result="BackgroundImageFix" />
      <feColorMatrix in="SourceAlpha" type="matrix" values="0 0 0 0 0 0 0 0 0 0 0 0 0 0 0 0 0 0 127 0" />
      <feOffset dx="0" dy="16" />
      <feGaussianBlur stdDeviation="6" />
      <feColorMatrix type="matrix" values="0 0 0 0 0 0 0 0 0 0.7254902 0 0 0 0 0.8901961 0 0 0 1 0" />
      <feBlend mode="normal" in2="BackgroundImageFix" result="effect0_dropShadow" />
      <feBlend mode="normal" in="SourceGraphic" in2="effect0_dropShadow" result="shape" />
    </filter>
  </defs>
  <path d="M39.999 0L129.001 0Q129.983 0 130.964 0.0481805Q131.944 0.0963611 132.922 0.192606Q133.899 0.288851 134.87 0.432929Q135.841 0.577006 136.804 0.768569Q137.767 0.960133 138.72 1.19872Q139.672 1.43731 140.612 1.72234Q141.552 2.00738 142.476 2.33818Q143.401 2.66898 144.308 3.04474Q145.215 3.42051 146.103 3.84033Q146.99 4.26016 147.856 4.72303Q148.722 5.1859 149.565 5.69071Q150.407 6.19552 151.223 6.74105Q152.04 7.28657 152.828 7.8715Q153.617 8.45643 154.376 9.07935Q155.135 9.70228 155.863 10.3617Q156.59 11.0211 157.285 11.7154Q157.979 12.4098 158.638 13.1373Q159.298 13.8649 159.921 14.6239Q160.544 15.3829 161.128 16.1716Q161.713 16.9603 162.259 17.7767Q162.804 18.5932 163.309 19.4354Q163.814 20.2776 164.277 21.1436Q164.74 22.0096 165.16 22.8972Q165.579 23.7849 165.955 24.692Q166.331 25.5992 166.662 26.5237Q166.993 27.4483 167.278 28.3879Q167.563 29.3275 167.801 30.28Q168.04 31.2325 168.231 32.1956Q168.423 33.1586 168.567 34.1299Q168.711 35.1012 168.807 36.0784Q168.904 37.0556 168.952 38.0363Q169 39.0171 169 39.999L169 80.001Q169 80.9829 168.952 81.9637Q168.904 82.9444 168.807 83.9216Q168.711 84.8988 168.567 85.8701Q168.423 86.8414 168.231 87.8044Q168.04 88.7675 167.801 89.72Q167.563 90.6725 167.278 91.6121Q166.993 92.5517 166.662 93.4763Q166.331 94.4008 165.955 95.3079Q165.579 96.2151 165.16 97.1028Q164.74 97.9904 164.277 98.8564Q163.814 99.7224 163.309 100.565Q162.804 101.407 162.259 102.223Q161.713 103.04 161.128 103.828Q160.544 104.617 159.921 105.376Q159.298 106.135 158.638 106.863Q157.979 107.59 157.285 108.285Q156.59 108.979 155.863 109.638Q155.135 110.298 154.376 110.921Q153.617 111.544 152.828 112.128Q152.04 112.713 151.223 113.259Q150.407 113.804 149.565 114.309Q148.722 114.814 147.856 115.277Q146.99 115.74 146.103 116.16Q145.215 116.579 144.308 116.955Q143.401 117.331 142.476 117.662Q141.552 117.993 140.612 118.278Q139.672 118.563 138.72 118.801Q137.767 119.04 136.804 119.231Q135.841 119.423 134.87 119.567Q133.899 119.711 132.922 119.807Q131.944 119.904 130.964 119.952Q129.983 120 129.001 120L39.999 120Q39.0171 120 38.0363 119.952Q37.0556 119.904 36.0784 119.807Q35.1012 119.711 34.1299 119.567Q33.1586 119.423 32.1956 119.231Q31.2325 119.04 30.28 118.801Q29.3275 118.563 28.3879 118.278Q27.4483 117.993 26.5237 117.662Q25.5992 117.331 24.692 116.955Q23.7849 116.579 22.8972 116.16Q22.0096 115.74 21.1436 115.277Q20.2776 114.814 19.4354 114.309Q18.5932 113.804 17.7767 113.259Q16.9603 112.713 16.1716 112.128Q15.3829 111.544 14.6239 110.921Q13.8649 110.298 13.1373 109.638Q12.4098 108.979 11.7154 108.285Q11.0211 107.59 10.3617 106.863Q9.70228 106.135 9.07935 105.376Q8.45643 104.617 7.8715 103.828Q7.28657 103.04 6.74105 102.223Q6.19552 101.407 5.69071 100.565Q5.1859 99.7224 4.72303 98.8564Q4.26016 97.9904 3.84033 97.1028Q3.42051 96.2151 3.04474 95.308Q2.66898 94.4008 2.33818 93.4763Q2.00738 92.5517 1.72234 91.6121Q1.43731 90.6725 1.19872 89.72Q0.960133 88.7675 0.768569 87.8044Q0.577006 86.8414 0.432929 85.8701Q0.288851 84.8988 0.192606 83.9216Q0.0963611 82.9444 0.0481805 81.9637Q0 80.9829 0 80.001L0 39.999Q0 39.0171 0.0481805 38.0363Q0.0963611 37.0556 0.192606 36.0784Q0.288851 35.1012 0.432929 34.1299Q0.577006 33.1586 0.768569 32.1956Q0.960133 31.2325 1.19872 30.28Q1.43731 29.3275 1.72234 28.3879Q2.00738 27.4483 2.33818 26.5237Q2.66898 25.5992 3.04474 24.692Q3.42051 23.7849 3.84033 22.8972Q4.26016 22.0096 4.72303 21.1436Q5.1859 20.2776 5.69071 19.4354Q6.19552 18.5932 6.74105 17.7767Q7.28657 16.9603 7.8715 16.1716Q8.45643 15.3829 9.07935 14.6239Q9.70228 13.8649 10.3617 13.1373Q11.0211 12.4098 11.7154 11.7154Q12.4098 11.0211 13.1373 10.3617Q13.8649 9.70228 14.6239 9.07935Q15.3829 8.45643 16.1716 7.8715Q16.9603 7.28657 17.7767 6.74105Q18.5932 6.19552 19.4354 5.69071Q20.2776 5.1859 21.1436 4.72303Q22.0096 4.26016 22.8972 3.84033Q23.7849 3.42051 24.692 3.04474Q25.5992 2.66898 26.5237 2.33818Q27.4483 2.00738 28.3879 1.72234Q29.3275 1.43731 30.28 1.19872Q31.2325 0.960133 32.1956 0.768569Q33.1586 0.577006 34.1299 0.432929Q35.1012 0.288851 36.0784 0.192606Q37.0556 0.0963611 38.0363 0.0481805Q39.0171 0 39.999 0Z" transform="translate(9 0)" id="Rectangle-2-Copy-39" fill="#FFFFFF" fill-rule="evenodd" stroke="none" filter="url(#filter_1)" />
  <g id="+10" transform="translate(27 14)">
    <g id="+1">
      <path d="M75.8016 81.0078L82.2078 81.0078L82.2078 23.7422L79.7859 23.7422Q78.3016 25.0313 76.2703 26.3789Q74.2391 27.7266 71.9539 28.957Q69.6687 30.1875 67.3055 31.1836Q64.9422 32.1797 62.8328 32.7656L62.8328 39.25Q64.7078 38.7813 66.6805 37.9609Q68.6531 37.1406 70.4305 36.2031Q72.2078 35.2656 73.6336 34.3086Q75.0594 33.3516 75.8016 32.6094L75.8016 81.0078ZM30 60.3047L45.7813 60.3047L45.7813 55.0703L30 55.0703L30 39.3281L24.8047 39.3281L24.8047 55.0703L9.0625 55.0703L9.0625 60.3047L24.8047 60.3047L24.8047 76.0469L30 76.0469L30 60.3047Z" />
    </g>
    <g id="0">
      <path d="M136.095 52.7656Q136.095 59.7969 134.826 65.2266Q133.556 70.6563 131.154 74.3867Q128.752 78.1172 125.255 80.0508Q121.759 81.9844 117.306 81.9844Q113.088 81.9844 109.787 80.1289Q106.486 78.2734 104.22 74.7188Q101.955 71.1641 100.783 65.9883Q99.6109 60.8125 99.6109 54.1328Q99.6109 46.7891 100.841 41.1641Q102.072 35.5391 104.455 31.7305Q106.838 27.9219 110.373 25.9883Q113.908 24.0547 118.478 24.0547Q136.095 24.0547 136.095 52.7656ZM129.533 53.3906Q129.533 29.4844 118.166 29.4844Q106.173 29.4844 106.173 53.8203Q106.173 76.5156 117.931 76.5156Q129.533 76.5156 129.533 53.3906Z" />
    </g>
  </g>
</svg>