<?xml version="1.0" encoding="utf-8"?>
<svg width="360px" height="75px" viewbox="0 0 360 75" version="1.1" xmlns:xlink="http://www.w3.org/1999/xlink" xmlns="http://www.w3.org/2000/svg">
  <g id="logo">
    <path d="M37.0021 0C16.5663 0 0 16.5663 0 37.0021C0 57.4379 16.5663 74.0042 37.0021 74.0042C57.4379 74.0042 74.0042 57.4379 74.0042 37.0021C74.0042 16.5663 57.4379 0 37.0021 0" id="Fill-1" fill="#24B5E2" fill-rule="evenodd" stroke="none" />
    <path d="M33 0C14.7747 0 0 14.7747 0 33C0 51.2253 14.7747 66 33 66C51.2253 66 66 51.2253 66 33C66 14.7747 51.2253 0 33 0" transform="translate(4 4)" id="Fill-3" fill="#121212" fill-rule="evenodd" stroke="none" />
    <path d="M37.0235 0L5.99933 0C2.68002 0 0 2.6818 0 6.00111L0 17.7469C0 19.0219 1.02037 20.0441 2.29716 20.0441C3.57395 20.0441 4.5961 19.0219 4.5961 17.7469L4.5961 13.6601L38.4285 13.6601L38.4285 17.6187C38.4285 18.8955 39.4488 19.9158 40.7256 19.9158C42.0024 19.9158 43.0246 18.8955 43.0246 17.6187L43.0246 6.00111C43.0246 2.6818 40.3428 0 37.0235 0L37.0235 0ZM4.5957 9.06388L4.5957 6.00099C4.5957 5.10706 5.36142 4.46777 6.12714 4.46777L36.8948 4.46777C37.7888 4.46777 38.4281 5.23349 38.4281 6.00099L38.4281 9.06388L4.5957 9.06388Z" transform="translate(15 27)" id="Fill-5" fill="#FEFEFE" fill-rule="evenodd" stroke="none" />
    <path d="M37.0359 19.8535L0 19.8535L0 2.29004C0 1.01681 1.01859 0 2.29182 0C3.56327 0 4.58186 1.01681 4.58186 2.29004L4.58186 15.2717L37.0359 15.2717C38.3092 15.2717 39.326 16.2902 39.326 17.5635C39.326 18.8349 38.3092 19.8535 37.0359 19.8535" transform="translate(158 27)" id="Fill-7" fill="#FFFFFF" fill-rule="evenodd" stroke="none" />
    <path d="M37.0359 19.8535L0 19.8535L0 2.29004C0 1.01681 1.01859 0 2.29182 0C3.56327 0 4.58186 1.01681 4.58186 2.29004L4.58186 15.2717L37.0359 15.2717C38.3092 15.2717 39.326 16.2902 39.326 17.5635C39.326 18.8349 38.3092 19.8535 37.0359 19.8535" transform="translate(89 27)" id="Fill-9" fill="#FFFFFF" fill-rule="evenodd" stroke="none" />
    <path d="M40.5992 4.58186L2.29182 4.58186C1.01859 4.58186 0 3.56327 0 2.29182C0 1.01859 1.01859 0 2.29182 0L40.5992 0C41.8724 0 42.8892 1.01859 42.8892 2.29182C42.8892 3.56327 41.8724 4.58186 40.5992 4.58186" transform="translate(228 27)" id="Fill-11" fill="#FFFFFF" fill-rule="evenodd" stroke="none" />
    <path d="M40.5992 4.58186L2.29182 4.58186C1.01859 4.58186 0 3.56327 0 2.29182C0 1.01859 1.01859 0 2.29182 0L40.5992 0C41.8724 0 42.8892 1.01859 42.8892 2.29182C42.8892 3.56327 41.8724 4.58186 40.5992 4.58186" transform="translate(228 42)" id="Fill-13" fill="#FFFFFF" fill-rule="evenodd" stroke="none" />
    <path d="M40.5992 4.58186L2.29182 4.58186C1.01859 4.58186 0 3.56327 0 2.29182C0 1.01859 1.01859 0 2.29182 0L40.5992 0C41.8724 0 42.8892 1.01859 42.8892 2.29182C42.8892 3.56327 41.8724 4.58186 40.5992 4.58186" transform="translate(228 35)" id="Fill-15" fill="#FFFFFF" fill-rule="evenodd" stroke="none" />
    <path d="M33.218 19.7271L2.29182 19.7271C1.01859 19.7271 0 18.7085 0 17.4371C0 16.1638 1.01859 15.1452 2.29182 15.1452L33.218 15.1452C33.9819 15.1452 34.6177 14.5095 34.6177 13.7456C34.6177 12.8552 33.9819 12.2177 33.218 12.2177L5.98152 12.2177C2.6729 12.2177 0 9.54479 0 6.23617L0 5.98152C0 2.6729 2.6729 0 5.98152 0L36.9095 0C38.1809 0 39.1995 1.01859 39.1995 2.29182C39.1995 3.56327 38.1809 4.58186 36.9095 4.58186L5.98152 4.58186C5.21936 4.58186 4.58185 5.21758 4.58185 5.98152L4.58185 6.23617C4.58185 7.00011 5.21936 7.63583 5.98152 7.63583L33.218 7.63583C36.5266 7.63583 39.1995 10.3087 39.1995 13.6174C39.1995 17.0542 36.5266 19.7271 33.218 19.7271" transform="translate(302 27)" id="Fill-17" fill="#FFFFFF" fill-rule="evenodd" stroke="none" />
    <path d="M3.05398 0C1.39967 0 0 1.39967 0 3.05398C0 4.70829 1.39967 6.10973 3.05398 6.10973C4.70829 6.10973 6.10795 4.70829 6.10795 3.05398C6.10795 1.39967 4.70829 0 3.05398 0M3.05371 5.34577C1.78048 5.34577 0.763672 4.32719 0.763672 3.05395C0.763672 1.7825 1.78048 0.763916 3.05371 0.763916C4.32694 0.763916 5.34375 1.7825 5.34375 3.05395C5.34375 4.32719 4.32694 5.34577 3.05371 5.34577" transform="translate(353 27)" id="Fill-19" fill="#FFFFFF" fill-rule="evenodd" stroke="none" />
    <path d="M0.381079 2.1636C0.381079 2.41825 0 2.41825 0 2.1636L0 0.254646C0 0.126433 0.126433 0 0.254646 0L1.14502 0C2.03539 0 2.1636 1.14502 1.39967 1.39967L1.78074 1.90896C1.90896 2.1636 1.65431 2.41825 1.39967 2.1636L0.890372 1.39967L0.381079 1.39967L0.381079 2.1636ZM0.380859 1.04881L1.17863 1.04881C1.55971 1.04881 1.56327 0.413086 1.17863 0.413086L0.380859 0.413086L0.380859 1.04881Z" transform="translate(355 29)" id="Fill-21" fill="#FFFFFF" fill-rule="evenodd" stroke="none" />
  </g>
</svg>