<?xml version="1.0" encoding="utf-8"?>
<svg width="476px" height="145px" viewbox="0 0 476 145" version="1.1" xmlns:xlink="http://www.w3.org/1999/xlink" xmlns="http://www.w3.org/2000/svg">
  <defs>
    <filter filterUnits="userSpaceOnUse" color-interpolation-filters="sRGB" id="filter_1">
      <feFlood flood-opacity="0" result="BackgroundImageFix" />
      <feColorMatrix in="SourceAlpha" type="matrix" values="0 0 0 0 0 0 0 0 0 0 0 0 0 0 0 0 0 0 127 0" />
      <feOffset dx="0" dy="16" />
      <feGaussianBlur stdDeviation="6" />
      <feColorMatrix type="matrix" values="0 0 0 0 0.3137255 0 0 0 0 0.8901961 0 0 0 0 0.7607843 0 0 0 1 0" />
      <feBlend mode="normal" in2="BackgroundImageFix" result="effect0_dropShadow" />
      <feBlend mode="normal" in="SourceGraphic" in2="effect0_dropShadow" result="shape" />
    </filter>
    <path d="M59.832 0L397.888 0Q399.357 0 400.824 0.0720703Q402.291 0.144141 403.753 0.288107Q405.214 0.432074 406.667 0.647591Q408.12 0.863108 409.561 1.14966Q411.001 1.4362 412.426 1.79309Q413.851 2.14998 415.256 2.57635Q416.662 3.00271 418.045 3.49754Q419.428 3.99236 420.785 4.55444Q422.142 5.11652 423.469 5.74451Q424.797 6.3725 426.093 7.06489Q427.388 7.75727 428.648 8.51238Q429.908 9.26749 431.129 10.0835Q432.35 10.8995 433.53 11.7745Q434.71 12.6494 435.845 13.5812Q436.98 14.513 438.069 15.4994Q439.157 16.4858 440.196 17.5244Q441.234 18.563 442.22 19.6513Q443.207 20.7396 444.139 21.875Q445.07 23.0104 445.945 24.1901Q446.82 25.3699 447.636 26.5911Q448.452 27.8124 449.208 29.0722Q449.963 30.332 450.655 31.6274Q451.347 32.9228 451.975 34.2505Q452.603 35.5783 453.165 36.9353Q453.728 38.2923 454.222 39.6752Q454.717 41.0581 455.144 42.4637Q455.57 43.8692 455.927 45.294Q456.284 46.7188 456.57 48.1594Q456.857 49.5999 457.072 51.0528Q457.288 52.5057 457.432 53.9674Q457.576 55.4292 457.648 56.8962Q457.72 58.3632 457.72 59.832L457.72 60.168Q457.72 61.6368 457.648 63.1038Q457.576 64.5708 457.432 66.0326Q457.288 67.4943 457.072 68.9472Q456.857 70.4001 456.57 71.8406Q456.284 73.2812 455.927 74.706Q455.57 76.1308 455.144 77.5363Q454.717 78.9418 454.222 80.3248Q453.728 81.7077 453.165 83.0647Q452.603 84.4217 451.975 85.7495Q451.347 87.0772 450.655 88.3726Q449.963 89.6679 449.208 90.9278Q448.452 92.1876 447.636 93.4089Q446.82 94.6301 445.945 95.8099Q445.07 96.9896 444.139 98.125Q443.207 99.2604 442.22 100.349Q441.234 101.437 440.196 102.476Q439.157 103.514 438.069 104.501Q436.98 105.487 435.845 106.419Q434.71 107.351 433.53 108.226Q432.35 109.1 431.129 109.916Q429.908 110.732 428.648 111.488Q427.388 112.243 426.093 112.935Q424.797 113.627 423.469 114.255Q422.142 114.883 420.785 115.446Q419.428 116.008 418.045 116.502Q416.662 116.997 415.256 117.424Q413.851 117.85 412.426 118.207Q411.001 118.564 409.561 118.85Q408.12 119.137 406.667 119.352Q405.214 119.568 403.753 119.712Q402.291 119.856 400.824 119.928Q399.357 120 397.888 120L59.832 120Q58.3632 120 56.8962 119.928Q55.4292 119.856 53.9674 119.712Q52.5057 119.568 51.0528 119.352Q49.5999 119.137 48.1594 118.85Q46.7188 118.564 45.294 118.207Q43.8692 117.85 42.4637 117.424Q41.0581 116.997 39.6752 116.502Q38.2923 116.008 36.9353 115.446Q35.5783 114.883 34.2505 114.255Q32.9228 113.627 31.6274 112.935Q30.332 112.243 29.0722 111.488Q27.8124 110.733 26.5911 109.916Q25.3699 109.1 24.1901 108.226Q23.0104 107.351 21.875 106.419Q20.7396 105.487 19.6513 104.501Q18.563 103.514 17.5244 102.476Q16.4858 101.437 15.4994 100.349Q14.513 99.2604 13.5812 98.125Q12.6494 96.9896 11.7745 95.8099Q10.8995 94.6301 10.0835 93.4089Q9.26749 92.1876 8.51238 90.9278Q7.75727 89.668 7.06489 88.3726Q6.3725 87.0772 5.74451 85.7495Q5.11652 84.4217 4.55444 83.0647Q3.99236 81.7077 3.49754 80.3248Q3.00271 78.9418 2.57635 77.5363Q2.14998 76.1308 1.79309 74.706Q1.4362 73.2812 1.14966 71.8406Q0.863108 70.4001 0.647591 68.9472Q0.432074 67.4943 0.288107 66.0326Q0.144141 64.5708 0.0720703 63.1038Q0 61.6368 0 60.168L0 59.832Q0 58.3632 0.0720703 56.8962Q0.144141 55.4292 0.288107 53.9674Q0.432074 52.5057 0.647591 51.0528Q0.863108 49.5999 1.14966 48.1594Q1.4362 46.7188 1.79309 45.294Q2.14998 43.8692 2.57635 42.4637Q3.00271 41.0581 3.49754 39.6752Q3.99236 38.2923 4.55444 36.9353Q5.11652 35.5783 5.74451 34.2505Q6.3725 32.9228 7.06489 31.6274Q7.75727 30.332 8.51238 29.0722Q9.26749 27.8124 10.0835 26.5911Q10.8995 25.3699 11.7745 24.1901Q12.6494 23.0104 13.5812 21.875Q14.513 20.7396 15.4994 19.6513Q16.4858 18.563 17.5244 17.5244Q18.563 16.4858 19.6513 15.4994Q20.7396 14.513 21.875 13.5812Q23.0104 12.6494 24.1901 11.7745Q25.3699 10.8995 26.5911 10.0835Q27.8124 9.26749 29.0722 8.51238Q30.332 7.75727 31.6274 7.06489Q32.9228 6.3725 34.2505 5.74451Q35.5783 5.11652 36.9353 4.55444Q38.2923 3.99236 39.6752 3.49754Q41.0581 3.00271 42.4637 2.57635Q43.8692 2.14998 45.294 1.79309Q46.7188 1.4362 48.1594 1.14966Q49.5999 0.863108 51.0528 0.647591Q52.5057 0.432074 53.9674 0.288107Q55.4292 0.144141 56.8962 0.0720703Q58.3632 0 59.832 0Z" transform="translate(9 0)" id="path_1" />
    <clipPath id="clip_1">
      <use xlink:href="#path_1" />
    </clipPath>
  </defs>
  <g id="bl_button_small-copy-6" filter="url(#filter_1)">
    <use stroke="none" fill="#FFFFFF" xlink:href="#path_1" fill-rule="evenodd" />
    <g clip-path="url(#clip_1)">
      <use xlink:href="#path_1" fill="none" stroke="#50E3C2" stroke-width="12" />
    </g>
  </g>
</svg>