<?xml version="1.0" encoding="utf-8"?>
<svg width="402px" height="155px" viewbox="0 0 402 155" version="1.1" xmlns:xlink="http://www.w3.org/1999/xlink" xmlns="http://www.w3.org/2000/svg">
  <defs>
    <filter filterUnits="userSpaceOnUse" color-interpolation-filters="sRGB" id="filter_1">
      <feFlood flood-opacity="0" result="BackgroundImageFix" />
      <feColorMatrix in="SourceAlpha" type="matrix" values="0 0 0 0 0 0 0 0 0 0 0 0 0 0 0 0 0 0 127 0" />
      <feOffset dx="0" dy="16" />
      <feGaussianBlur stdDeviation="6" />
      <feColorMatrix type="matrix" values="0 0 0 0 0 0 0 0 0 0.7254902 0 0 0 0 0.8901961 0 0 0 1 0" />
      <feBlend mode="normal" in2="BackgroundImageFix" result="effect0_dropShadow" />
      <feBlend mode="normal" in="SourceGraphic" in2="effect0_dropShadow" result="shape" />
    </filter>
    <path d="M39.999 0L344.001 0Q344.983 0 345.964 0.0481805Q346.944 0.0963611 347.922 0.192606Q348.899 0.288851 349.87 0.432929Q350.841 0.577006 351.804 0.768569Q352.767 0.960133 353.72 1.19872Q354.672 1.43731 355.612 1.72234Q356.552 2.00738 357.476 2.33818Q358.401 2.66898 359.308 3.04474Q360.215 3.42051 361.103 3.84033Q361.99 4.26016 362.856 4.72303Q363.722 5.1859 364.565 5.69071Q365.407 6.19552 366.223 6.74105Q367.04 7.28657 367.828 7.8715Q368.617 8.45643 369.376 9.07935Q370.135 9.70228 370.863 10.3617Q371.59 11.0211 372.285 11.7154Q372.979 12.4098 373.638 13.1373Q374.298 13.8649 374.921 14.6239Q375.543 15.3829 376.128 16.1716Q376.713 16.9603 377.259 17.7767Q377.804 18.5932 378.309 19.4354Q378.814 20.2776 379.277 21.1436Q379.74 22.0096 380.16 22.8972Q380.579 23.7849 380.955 24.692Q381.331 25.5992 381.662 26.5237Q381.993 27.4483 382.278 28.3879Q382.563 29.3275 382.801 30.28Q383.04 31.2325 383.231 32.1956Q383.423 33.1586 383.567 34.1299Q383.711 35.1012 383.807 36.0784Q383.904 37.0556 383.952 38.0363Q384 39.0171 384 39.999L384 90.001Q384 90.9829 383.952 91.9637Q383.904 92.9444 383.807 93.9216Q383.711 94.8988 383.567 95.8701Q383.423 96.8414 383.231 97.8044Q383.04 98.7675 382.801 99.72Q382.563 100.672 382.278 101.612Q381.993 102.552 381.662 103.476Q381.331 104.401 380.955 105.308Q380.579 106.215 380.16 107.103Q379.74 107.99 379.277 108.856Q378.814 109.722 378.309 110.565Q377.804 111.407 377.259 112.223Q376.713 113.04 376.128 113.828Q375.543 114.617 374.921 115.376Q374.298 116.135 373.638 116.863Q372.979 117.59 372.285 118.285Q371.59 118.979 370.863 119.638Q370.135 120.298 369.376 120.921Q368.617 121.544 367.828 122.128Q367.04 122.713 366.223 123.259Q365.407 123.804 364.565 124.309Q363.722 124.814 362.856 125.277Q361.99 125.74 361.103 126.16Q360.215 126.579 359.308 126.955Q358.401 127.331 357.476 127.662Q356.552 127.993 355.612 128.278Q354.672 128.563 353.72 128.801Q352.767 129.04 351.804 129.231Q350.841 129.423 349.87 129.567Q348.899 129.711 347.922 129.807Q346.944 129.904 345.964 129.952Q344.983 130 344.001 130L39.999 130Q39.0171 130 38.0363 129.952Q37.0556 129.904 36.0784 129.807Q35.1012 129.711 34.1299 129.567Q33.1586 129.423 32.1956 129.231Q31.2325 129.04 30.28 128.801Q29.3275 128.563 28.3879 128.278Q27.4483 127.993 26.5237 127.662Q25.5992 127.331 24.692 126.955Q23.7849 126.579 22.8972 126.16Q22.0096 125.74 21.1436 125.277Q20.2776 124.814 19.4354 124.309Q18.5932 123.804 17.7767 123.259Q16.9603 122.713 16.1716 122.128Q15.3829 121.544 14.6239 120.921Q13.8649 120.298 13.1373 119.638Q12.4098 118.979 11.7154 118.285Q11.0211 117.59 10.3617 116.863Q9.70228 116.135 9.07935 115.376Q8.45643 114.617 7.8715 113.828Q7.28657 113.04 6.74105 112.223Q6.19552 111.407 5.69071 110.565Q5.1859 109.722 4.72303 108.856Q4.26016 107.99 3.84033 107.103Q3.42051 106.215 3.04474 105.308Q2.66898 104.401 2.33818 103.476Q2.00738 102.552 1.72234 101.612Q1.43731 100.672 1.19872 99.72Q0.960133 98.7675 0.768569 97.8044Q0.577006 96.8414 0.432929 95.8701Q0.288851 94.8988 0.192606 93.9216Q0.0963611 92.9444 0.0481805 91.9637Q0 90.9829 0 90.001L0 39.999Q0 39.0171 0.0481805 38.0363Q0.0963611 37.0556 0.192606 36.0784Q0.288851 35.1012 0.432929 34.1299Q0.577006 33.1586 0.768569 32.1956Q0.960133 31.2325 1.19872 30.28Q1.43731 29.3275 1.72234 28.3879Q2.00738 27.4483 2.33818 26.5237Q2.66898 25.5992 3.04474 24.692Q3.42051 23.7849 3.84033 22.8972Q4.26016 22.0096 4.72303 21.1436Q5.1859 20.2776 5.69071 19.4354Q6.19552 18.5932 6.74105 17.7767Q7.28657 16.9603 7.8715 16.1716Q8.45643 15.3829 9.07935 14.6239Q9.70228 13.8649 10.3617 13.1373Q11.0211 12.4098 11.7154 11.7154Q12.4098 11.0211 13.1373 10.3617Q13.8649 9.70228 14.6239 9.07935Q15.3829 8.45643 16.1716 7.8715Q16.9603 7.28657 17.7767 6.74105Q18.5932 6.19552 19.4354 5.69071Q20.2776 5.1859 21.1436 4.72303Q22.0096 4.26016 22.8972 3.84033Q23.7849 3.42051 24.692 3.04474Q25.5992 2.66898 26.5237 2.33818Q27.4483 2.00738 28.3879 1.72234Q29.3275 1.43731 30.28 1.19872Q31.2325 0.960133 32.1956 0.768569Q33.1586 0.577006 34.1299 0.432929Q35.1012 0.288851 36.0784 0.192606Q37.0556 0.0963611 38.0363 0.0481805Q39.0171 0 39.999 0Z" transform="translate(9 0)" id="path_1" />
    <clipPath id="clip_1">
      <use xlink:href="#path_1" />
    </clipPath>
  </defs>
  <g id="Rectangle-2-Copy-19" filter="url(#filter_1)">
    <use stroke="none" fill="#FFFFFF" xlink:href="#path_1" fill-rule="evenodd" />
    <g clip-path="url(#clip_1)">
      <use xlink:href="#path_1" fill="none" stroke="#00B9E3" stroke-width="12" />
    </g>
  </g>
  <g id="ЗАЧИСЛИТЬ" transform="translate(86 42.000122)">
    <path d="M1.875 39.332L1.875 35.7773Q5.15625 38.1797 9.31641 38.1797Q12.3438 38.1797 14.1309 36.7148Q15.918 35.25 15.918 32.7695Q15.918 27.3789 8.63281 27.3789L5.72266 27.3789L5.72266 24.6641L8.39844 24.6641Q11.5039 24.6641 13.2129 23.3164Q14.9219 21.9688 14.9219 19.5078Q14.9219 17.3984 13.5059 16.1289Q12.0898 14.8594 9.60938 14.8594Q6.09375 14.8594 2.77344 17.0664L2.77344 13.7461Q5.85937 12.0273 9.88281 12.0273Q13.8672 12.0273 16.1523 13.9219Q18.4375 15.8164 18.4375 18.9023Q18.4375 24.3516 13.125 25.7773L13.125 25.8555Q16.0156 26.1875 17.7148 28.0234Q19.4141 29.8594 19.4141 32.5742Q19.4141 36.4219 16.6797 38.6973Q13.9453 40.9727 9.19922 40.9727Q4.45313 40.9727 1.875 39.332ZM118.809 40.9727Q123.438 40.9727 126.543 39.332L126.543 36.1484Q123.457 38.0234 119.238 38.0234Q114.688 38.0234 111.885 34.9863Q109.082 31.9492 109.082 26.832Q109.082 21.4414 112.08 18.2188Q115.078 14.9961 119.902 14.9961Q123.535 14.9961 126.543 16.6758L126.543 13.1797Q123.926 12.0273 119.941 12.0273Q113.73 12.0273 109.688 16.168Q105.645 20.3086 105.645 27.0273Q105.645 33.2773 109.238 37.125Q112.832 40.9727 118.809 40.9727ZM46.9531 40.5039L43.3203 40.5039L40.3516 32.6523L28.4766 32.6523L25.6836 40.5039L22.0313 40.5039L32.7734 12.4961L36.1719 12.4961L46.9531 40.5039ZM66.6406 40.5039L69.9219 40.5039L69.9219 12.4961L66.6406 12.4961L66.6406 25.2305Q62.207 27.3789 58.7305 27.3789Q53.9258 27.3789 53.9258 22.8672L53.9258 12.4961L50.6445 12.4961L50.6445 23.0234Q50.6445 26.4609 52.6465 28.3652Q54.6484 30.2695 58.3203 30.2695Q62.168 30.2695 66.6406 27.9063L66.6406 40.5039ZM100.098 40.5039L96.8164 40.5039L96.8164 20.2695Q96.8164 17.5352 97.0117 16.4219L96.8945 16.4219Q96.5234 17.3789 95.9961 18.1797L81.582 40.5039L77.5195 40.5039L77.5195 12.4961L80.8008 12.4961L80.8008 32.2227Q80.8008 35.3867 80.6445 36.3438L80.7227 36.3438Q81.1523 35.4844 81.8164 34.4688L95.8789 12.4961L100.098 12.4961L100.098 40.5039ZM151.777 40.5039L148.496 40.5039L148.496 15.4648L140.723 15.4648Q139.375 26.0508 138.594 30.4258Q137.813 34.8008 137.012 36.8711Q136.211 38.9414 134.844 39.9473Q133.477 40.9531 131.563 40.9531Q130.02 40.9531 128.887 40.543L128.887 37.457Q129.883 38.0234 131.094 38.0234Q132.305 38.0234 133.369 36.5781Q134.434 35.1328 135.537 29.0586Q136.641 22.9844 137.988 12.4961L151.777 12.4961L151.777 40.5039ZM178.457 40.5039L181.738 40.5039L181.738 12.4961L177.52 12.4961L163.457 34.4688Q162.793 35.4844 162.363 36.3438L162.285 36.3438Q162.441 35.3867 162.441 32.2227L162.441 12.4961L159.16 12.4961L159.16 40.5039L163.223 40.5039L177.637 18.1797Q178.164 17.3789 178.535 16.4219L178.652 16.4219Q178.457 17.5352 178.457 20.2695L178.457 40.5039ZM205.684 15.4648L197.598 15.4648L197.598 40.5039L194.316 40.5039L194.316 15.4648L186.25 15.4648L186.25 12.4961L205.684 12.4961L205.684 15.4648ZM210.078 12.4961L210.078 40.5039L218.398 40.5039Q222.617 40.5039 225.059 38.2578Q227.5 36.0117 227.5 32.1445Q227.5 28.4141 225.176 26.3926Q222.852 24.3711 218.672 24.3711L213.359 24.3711L213.359 12.4961L210.078 12.4961ZM39.2773 29.7031L34.8828 17.7695Q34.668 17.1836 34.4531 15.8945L34.375 15.8945Q34.1797 17.0859 33.9258 17.7695L29.5703 29.7031L39.2773 29.7031ZM213.359 37.5352L213.359 27.3398L217.969 27.3398Q224.043 27.3398 224.043 32.3398Q224.043 34.8008 222.461 36.168Q220.879 37.5352 217.969 37.5352L213.359 37.5352Z" />
  </g>
</svg>