<?xml version="1.0" encoding="utf-8"?>
<svg width="967px" height="243px" viewbox="0 0 967 243" version="1.1" xmlns:xlink="http://www.w3.org/1999/xlink" xmlns="http://www.w3.org/2000/svg">
  <defs>
    <filter filterUnits="userSpaceOnUse" color-interpolation-filters="sRGB" id="filter_1">
      <feFlood flood-opacity="0" result="BackgroundImageFix" />
      <feColorMatrix in="SourceAlpha" type="matrix" values="0 0 0 0 0 0 0 0 0 0 0 0 0 0 0 0 0 0 127 0" />
      <feOffset dx="0" dy="27" />
      <feGaussianBlur stdDeviation="11" />
      <feColorMatrix type="matrix" values="0 0 0 0 0 0 0 0 0 0.7254902 0 0 0 0 0.8901961 0 0 0 1 0" />
      <feBlend mode="normal" in2="BackgroundImageFix" result="effect0_dropShadow" />
      <feBlend mode="normal" in="SourceGraphic" in2="effect0_dropShadow" result="shape" />
    </filter>
    <path d="M59.832 0L875.168 0Q876.637 0 878.104 0.0720703Q879.571 0.144141 881.033 0.288107Q882.494 0.432074 883.947 0.647591Q885.4 0.863108 886.841 1.14966Q888.281 1.4362 889.706 1.79309Q891.131 2.14998 892.536 2.57635Q893.942 3.00271 895.325 3.49754Q896.708 3.99236 898.065 4.55444Q899.422 5.11652 900.749 5.74451Q902.077 6.3725 903.372 7.06489Q904.668 7.75727 905.928 8.51238Q907.187 9.26749 908.409 10.0835Q909.63 10.8995 910.81 11.7745Q911.99 12.6494 913.125 13.5812Q914.26 14.513 915.349 15.4994Q916.437 16.4858 917.476 17.5244Q918.514 18.563 919.5 19.6513Q920.487 20.7396 921.419 21.875Q922.35 23.0104 923.225 24.1901Q924.1 25.3699 924.916 26.5911Q925.732 27.8124 926.488 29.0722Q927.243 30.332 927.935 31.6274Q928.627 32.9228 929.255 34.2505Q929.883 35.5783 930.445 36.9353Q931.007 38.2923 931.502 39.6752Q931.997 41.0581 932.424 42.4637Q932.85 43.8692 933.207 45.294Q933.564 46.7188 933.85 48.1594Q934.137 49.5999 934.352 51.0528Q934.568 52.5057 934.712 53.9674Q934.856 55.4292 934.928 56.8962Q935 58.3632 935 59.832L935 140.168Q935 141.637 934.928 143.104Q934.856 144.571 934.712 146.033Q934.568 147.494 934.352 148.947Q934.137 150.4 933.85 151.841Q933.564 153.281 933.207 154.706Q932.85 156.131 932.424 157.536Q931.997 158.942 931.502 160.325Q931.007 161.708 930.445 163.065Q929.883 164.422 929.255 165.749Q928.627 167.077 927.935 168.373Q927.243 169.668 926.488 170.928Q925.732 172.188 924.916 173.409Q924.1 174.63 923.225 175.81Q922.35 176.99 921.419 178.125Q920.487 179.26 919.5 180.349Q918.514 181.437 917.476 182.476Q916.437 183.514 915.349 184.501Q914.26 185.487 913.125 186.419Q911.99 187.351 910.81 188.225Q909.63 189.1 908.409 189.916Q907.187 190.732 905.928 191.488Q904.668 192.243 903.372 192.935Q902.077 193.627 900.749 194.255Q899.422 194.883 898.065 195.446Q896.708 196.008 895.325 196.502Q893.942 196.997 892.536 197.424Q891.131 197.85 889.706 198.207Q888.281 198.564 886.841 198.85Q885.4 199.137 883.947 199.352Q882.494 199.568 881.033 199.712Q879.571 199.856 878.104 199.928Q876.637 200 875.168 200L59.832 200Q58.3632 200 56.8962 199.928Q55.4292 199.856 53.9674 199.712Q52.5057 199.568 51.0528 199.352Q49.5999 199.137 48.1594 198.85Q46.7188 198.564 45.294 198.207Q43.8692 197.85 42.4637 197.424Q41.0581 196.997 39.6752 196.502Q38.2923 196.008 36.9353 195.446Q35.5783 194.883 34.2505 194.255Q32.9228 193.627 31.6274 192.935Q30.332 192.243 29.0722 191.488Q27.8124 190.732 26.5911 189.916Q25.3699 189.1 24.1901 188.225Q23.0104 187.351 21.875 186.419Q20.7396 185.487 19.6513 184.501Q18.563 183.514 17.5244 182.476Q16.4858 181.437 15.4994 180.349Q14.513 179.26 13.5812 178.125Q12.6494 176.99 11.7745 175.81Q10.8995 174.63 10.0835 173.409Q9.26749 172.188 8.51238 170.928Q7.75727 169.668 7.06489 168.373Q6.3725 167.077 5.74451 165.749Q5.11652 164.422 4.55444 163.065Q3.99236 161.708 3.49754 160.325Q3.00271 158.942 2.57635 157.536Q2.14998 156.131 1.79309 154.706Q1.4362 153.281 1.14966 151.841Q0.863108 150.4 0.647591 148.947Q0.432074 147.494 0.288107 146.033Q0.144141 144.571 0.0720703 143.104Q0 141.637 0 140.168L0 59.832Q0 58.3632 0.0720703 56.8962Q0.144141 55.4292 0.288107 53.9674Q0.432074 52.5057 0.647591 51.0528Q0.863108 49.5999 1.14966 48.1594Q1.4362 46.7188 1.79309 45.294Q2.14998 43.8692 2.57635 42.4637Q3.00271 41.0581 3.49754 39.6752Q3.99236 38.2923 4.55444 36.9353Q5.11652 35.5783 5.74451 34.2505Q6.3725 32.9228 7.06489 31.6274Q7.75727 30.332 8.51238 29.0722Q9.26749 27.8124 10.0835 26.5911Q10.8995 25.3699 11.7745 24.1901Q12.6494 23.0104 13.5812 21.875Q14.513 20.7396 15.4994 19.6513Q16.4858 18.563 17.5244 17.5244Q18.563 16.4858 19.6513 15.4994Q20.7396 14.513 21.875 13.5812Q23.0104 12.6494 24.1901 11.7745Q25.3699 10.8995 26.5911 10.0835Q27.8124 9.26749 29.0722 8.51238Q30.332 7.75727 31.6274 7.06489Q32.9228 6.3725 34.2505 5.74451Q35.5783 5.11652 36.9353 4.55444Q38.2923 3.99236 39.6752 3.49754Q41.0581 3.00271 42.4637 2.57635Q43.8692 2.14998 45.294 1.79309Q46.7188 1.4362 48.1594 1.14966Q49.5999 0.863108 51.0528 0.647591Q52.5057 0.432074 53.9674 0.288107Q55.4292 0.144141 56.8962 0.0720703Q58.3632 0 59.832 0Z" transform="translate(16 0)" id="path_1" />
    <clipPath id="clip_1">
      <use xlink:href="#path_1" />
    </clipPath>
  </defs>
  <g id="Button_blue" filter="url(#filter_1)">
    <use stroke="none" fill="#FFFFFF" xlink:href="#path_1" fill-rule="evenodd" />
    <g clip-path="url(#clip_1)">
      <use xlink:href="#path_1" fill="none" stroke="#00B9E3" stroke-width="12" />
    </g>
  </g>
  <g id="ЗАВЕРШИТЬ-ОПЛАТУ" transform="translate(26.5 0)">
    <path d="M165.639 119.748L165.639 114.416Q170.561 118.02 176.801 118.02Q181.342 118.02 184.022 115.822Q186.703 113.625 186.703 109.904Q186.703 101.818 175.775 101.818L171.41 101.818L171.41 97.7461L175.424 97.7461Q180.082 97.7461 182.646 95.7246Q185.209 93.7031 185.209 90.0117Q185.209 86.8477 183.085 84.9434Q180.961 83.0391 177.24 83.0391Q171.967 83.0391 166.986 86.3496L166.986 81.3691Q171.615 78.791 177.65 78.791Q183.627 78.791 187.055 81.6328Q190.482 84.4746 190.482 89.1035Q190.482 97.2773 182.514 99.416L182.514 99.5332Q186.85 100.031 189.398 102.785Q191.947 105.539 191.947 109.611Q191.947 115.383 187.846 118.796Q183.744 122.209 176.625 122.209Q169.506 122.209 165.639 119.748ZM539.057 122.209Q530.121 122.209 524.745 116.32Q519.369 110.432 519.369 100.998Q519.369 90.8613 524.848 84.8262Q530.326 78.791 539.76 78.791Q548.461 78.791 553.778 84.6504Q559.096 90.5098 559.096 99.9727Q559.096 110.256 553.646 116.232Q548.197 122.209 539.057 122.209ZM233.256 121.506L227.807 121.506L223.354 109.729L205.541 109.729L201.352 121.506L195.873 121.506L211.986 79.4941L217.084 79.4941L233.256 121.506ZM239.438 79.4941L239.438 121.506L251.684 121.506Q257.572 121.506 261.439 118.166Q265.307 114.826 265.307 109.436Q265.307 105.1 262.758 102.39Q260.209 99.6797 255.961 99.1816L255.961 99.0645Q259.359 97.9512 261.293 95.3145Q263.227 92.6777 263.227 89.1035Q263.227 84.8262 260.033 82.1602Q256.84 79.4941 251.391 79.4941L239.438 79.4941ZM296.098 121.506L273.832 121.506L273.832 79.4941L295.16 79.4941L295.16 83.9473L278.754 83.9473L278.754 97.9219L293.93 97.9219L293.93 102.346L278.754 102.346L278.754 117.053L296.098 117.053L296.098 121.506ZM309.105 121.506L309.105 105.627L314.643 105.627Q321.645 105.627 325.761 101.818Q329.877 98.0098 329.877 92.0332Q329.877 86.0566 326.171 82.7754Q322.465 79.4941 315.727 79.4941L304.184 79.4941L304.184 121.506L309.105 121.506ZM383.637 121.506L337.787 121.506L337.787 79.4941L342.709 79.4941L342.709 117.053L358.266 117.053L358.266 79.4941L363.158 79.4941L363.158 117.053L378.715 117.053L378.715 79.4941L383.637 79.4941L383.637 121.506ZM423.686 121.506L428.607 121.506L428.607 79.4941L422.279 79.4941L401.186 112.453Q400.189 113.977 399.545 115.266L399.428 115.266Q399.662 113.83 399.662 109.084L399.662 79.4941L394.74 79.4941L394.74 121.506L400.834 121.506L422.455 88.0195Q423.246 86.8184 423.803 85.3828L423.979 85.3828Q423.686 87.0527 423.686 91.1543L423.686 121.506ZM464.525 83.9473L452.396 83.9473L452.396 121.506L447.475 121.506L447.475 83.9473L435.375 83.9473L435.375 79.4941L464.525 79.4941L464.525 83.9473ZM471.117 79.4941L471.117 121.506L483.598 121.506Q489.926 121.506 493.588 118.137Q497.25 114.768 497.25 108.967Q497.25 103.371 493.764 100.339Q490.277 97.3066 484.008 97.3066L476.039 97.3066L476.039 79.4941L471.117 79.4941ZM594.252 121.506L599.232 121.506L599.232 79.4941L567.357 79.4941L567.357 121.506L572.309 121.506L572.309 84.0645L594.252 84.0645L594.252 121.506ZM639.428 121.506L634.506 121.506L634.506 83.9473L622.846 83.9473Q620.824 99.8262 619.652 106.389Q618.48 112.951 617.279 116.057Q616.078 119.162 614.027 120.671Q611.977 122.18 609.105 122.18Q606.791 122.18 605.092 121.564L605.092 116.936Q606.586 117.785 608.402 117.785Q610.219 117.785 611.815 115.617Q613.412 113.449 615.067 104.338Q616.723 95.2266 618.744 79.4941L639.428 79.4941L639.428 121.506ZM677.572 121.506L683.021 121.506L666.85 79.4941L661.752 79.4941L645.639 121.506L651.117 121.506L655.307 109.729L673.119 109.729L677.572 121.506ZM714.047 83.9473L701.918 83.9473L701.918 121.506L696.996 121.506L696.996 83.9473L684.896 83.9473L684.896 79.4941L714.047 79.4941L714.047 83.9473ZM736.547 108.82L749.525 79.4941L744.252 79.4941L734.906 101.818Q733.793 104.396 733.705 104.66L733.646 104.66Q732.826 102.492 732.563 101.936L722.484 79.4941L716.889 79.4941L731.127 109.553Q728.813 114.182 726.82 116.013Q724.828 117.844 722.455 117.844Q720.111 117.844 717.592 116.35L717.592 121.33Q719.701 122.238 722.836 122.238Q726.645 122.238 729.867 119.426Q733.09 116.613 736.547 108.82ZM539.408 83.2441Q532.787 83.2441 528.656 88.0195Q524.525 92.7949 524.525 100.559Q524.525 108.322 528.554 113.054Q532.582 117.785 539.057 117.785Q545.971 117.785 549.955 113.273Q553.939 108.762 553.939 100.646Q553.939 92.3262 550.072 87.7852Q546.205 83.2441 539.408 83.2441ZM244.359 97.5117L244.359 83.9473L250.014 83.9473Q258.07 83.9473 258.07 90.0703Q258.07 93.6152 255.756 95.5635Q253.441 97.5117 249.398 97.5117L244.359 97.5117ZM309.105 101.174L309.105 83.9473L314.877 83.9473Q324.721 83.9473 324.721 92.2676Q324.721 96.5156 322.04 98.8447Q319.359 101.174 314.262 101.174L309.105 101.174ZM221.742 105.305L215.15 87.4043Q214.828 86.5254 214.506 84.5918L214.389 84.5918Q214.096 86.3789 213.715 87.4043L207.182 105.305L221.742 105.305ZM664.916 87.4043L671.508 105.305L656.947 105.305L663.48 87.4043Q663.861 86.3789 664.154 84.5918L664.271 84.5918Q664.594 86.5254 664.916 87.4043ZM476.039 117.053L476.039 101.76L482.953 101.76Q492.064 101.76 492.064 109.26Q492.064 112.951 489.691 115.002Q487.318 117.053 482.953 117.053L476.039 117.053ZM244.359 117.053L244.359 101.936L250.014 101.936Q260.15 101.936 260.15 109.377Q260.15 112.951 257.763 115.002Q255.375 117.053 251.039 117.053L244.359 117.053Z" />
  </g>
</svg>