<?xml version="1.0" encoding="utf-8"?>
<svg width="476px" height="145px" viewbox="0 0 476 145" version="1.1" xmlns:xlink="http://www.w3.org/1999/xlink" xmlns="http://www.w3.org/2000/svg">
  <defs>
    <filter filterUnits="userSpaceOnUse" color-interpolation-filters="sRGB" id="filter_1">
      <feFlood flood-opacity="0" result="BackgroundImageFix" />
      <feColorMatrix in="SourceAlpha" type="matrix" values="0 0 0 0 0 0 0 0 0 0 0 0 0 0 0 0 0 0 127 0" />
      <feOffset dx="0" dy="16" />
      <feGaussianBlur stdDeviation="6" />
      <feColorMatrix type="matrix" values="0 0 0 0 1 0 0 0 0 0.011764706 0 0 0 0 0.011764706 0 0 0 1 0" />
      <feBlend mode="normal" in2="BackgroundImageFix" result="effect0_dropShadow" />
      <feBlend mode="normal" in="SourceGraphic" in2="effect0_dropShadow" result="shape" />
    </filter>
    <path d="M59.832 0L397.891 0Q399.359 0 400.826 0.0720703Q402.293 0.144141 403.755 0.288107Q405.217 0.432074 406.67 0.647591Q408.123 0.863108 409.563 1.14966Q411.004 1.4362 412.428 1.79309Q413.853 2.14998 415.259 2.57635Q416.664 3.00271 418.047 3.49754Q419.43 3.99236 420.787 4.55444Q422.144 5.11652 423.472 5.74451Q424.8 6.3725 426.095 7.06489Q427.39 7.75727 428.65 8.51238Q429.91 9.26749 431.131 10.0835Q432.353 10.8995 433.532 11.7745Q434.712 12.6494 435.848 13.5812Q436.983 14.513 438.071 15.4994Q439.159 16.4858 440.198 17.5244Q441.237 18.563 442.223 19.6513Q443.209 20.7396 444.141 21.875Q445.073 23.0104 445.948 24.1901Q446.823 25.3699 447.639 26.5911Q448.455 27.8124 449.21 29.0722Q449.965 30.332 450.658 31.6274Q451.35 32.9228 451.978 34.2505Q452.606 35.5783 453.168 36.9353Q453.73 38.2923 454.225 39.6752Q454.72 41.0581 455.146 42.4637Q455.573 43.8692 455.929 45.294Q456.286 46.7188 456.573 48.1594Q456.859 49.5999 457.075 51.0528Q457.29 52.5057 457.434 53.9674Q457.578 55.4292 457.65 56.8962Q457.723 58.3632 457.723 59.832L457.723 59.834Q457.723 61.3028 457.65 62.7698Q457.578 64.2368 457.434 65.6986Q457.29 67.1603 457.075 68.6132Q456.859 70.0661 456.573 71.5066Q456.286 72.9472 455.929 74.372Q455.573 75.7968 455.146 77.2023Q454.72 78.6079 454.225 79.9908Q453.73 81.3737 453.168 82.7307Q452.606 84.0877 451.978 85.4155Q451.35 86.7432 450.658 88.0386Q449.965 89.334 449.21 90.5938Q448.455 91.8536 447.639 93.0749Q446.823 94.2961 445.948 95.4759Q445.073 96.6556 444.141 97.791Q443.209 98.9264 442.223 100.015Q441.237 101.103 440.198 102.142Q439.159 103.18 438.071 104.167Q436.983 105.153 435.848 106.085Q434.712 107.017 433.532 107.892Q432.353 108.766 431.131 109.582Q429.91 110.399 428.65 111.154Q427.39 111.909 426.095 112.601Q424.8 113.294 423.472 113.921Q422.144 114.549 420.787 115.112Q419.43 115.674 418.047 116.168Q416.664 116.663 415.259 117.09Q413.853 117.516 412.428 117.873Q411.004 118.23 409.563 118.516Q408.123 118.803 406.67 119.018Q405.217 119.234 403.755 119.378Q402.293 119.522 400.826 119.594Q399.359 119.666 397.891 119.666L59.832 119.666Q58.3632 119.666 56.8962 119.594Q55.4292 119.522 53.9674 119.378Q52.5057 119.234 51.0528 119.018Q49.5999 118.803 48.1594 118.516Q46.7188 118.23 45.294 117.873Q43.8692 117.516 42.4637 117.09Q41.0581 116.663 39.6752 116.168Q38.2923 115.674 36.9353 115.112Q35.5783 114.549 34.2505 113.921Q32.9228 113.294 31.6274 112.601Q30.332 111.909 29.0722 111.154Q27.8124 110.399 26.5911 109.582Q25.3699 108.766 24.1901 107.892Q23.0104 107.017 21.875 106.085Q20.7396 105.153 19.6513 104.167Q18.563 103.18 17.5244 102.142Q16.4858 101.103 15.4994 100.015Q14.513 98.9264 13.5812 97.791Q12.6494 96.6556 11.7745 95.4759Q10.8995 94.2961 10.0835 93.0749Q9.26749 91.8536 8.51238 90.5938Q7.75727 89.334 7.06489 88.0386Q6.3725 86.7432 5.74451 85.4155Q5.11652 84.0877 4.55444 82.7307Q3.99236 81.3737 3.49754 79.9908Q3.00271 78.6079 2.57635 77.2023Q2.14998 75.7968 1.79309 74.372Q1.4362 72.9472 1.14966 71.5066Q0.863108 70.0661 0.647591 68.6132Q0.432074 67.1603 0.288107 65.6986Q0.144141 64.2368 0.0720703 62.7698Q0 61.3028 0 59.834L0 59.832Q0 58.3632 0.0720703 56.8962Q0.144141 55.4292 0.288107 53.9674Q0.432074 52.5057 0.647591 51.0528Q0.863108 49.5999 1.14966 48.1594Q1.4362 46.7188 1.79309 45.294Q2.14998 43.8692 2.57635 42.4637Q3.00271 41.0581 3.49754 39.6752Q3.99236 38.2923 4.55444 36.9353Q5.11652 35.5783 5.74451 34.2505Q6.3725 32.9228 7.06489 31.6274Q7.75727 30.332 8.51238 29.0722Q9.26749 27.8124 10.0835 26.5911Q10.8995 25.3699 11.7745 24.1901Q12.6494 23.0104 13.5812 21.875Q14.513 20.7396 15.4994 19.6513Q16.4858 18.563 17.5244 17.5244Q18.563 16.4858 19.6513 15.4994Q20.7396 14.513 21.875 13.5812Q23.0104 12.6494 24.1901 11.7745Q25.3699 10.8995 26.5911 10.0835Q27.8124 9.26749 29.0722 8.51238Q30.332 7.75727 31.6274 7.06489Q32.9228 6.3725 34.2505 5.74451Q35.5783 5.11652 36.9353 4.55444Q38.2923 3.99236 39.6752 3.49754Q41.0581 3.00271 42.4637 2.57635Q43.8692 2.14998 45.294 1.79309Q46.7188 1.4362 48.1594 1.14966Q49.5999 0.863108 51.0528 0.647591Q52.5057 0.432074 53.9674 0.288107Q55.4292 0.144141 56.8962 0.0720703Q58.3632 0 59.832 0L59.832 0Z" transform="translate(9 0)" id="path_1" />
    <clipPath id="clip_1">
      <use xlink:href="#path_1" />
    </clipPath>
  </defs>
  <g id="bl_button_small-copy-4" filter="url(#filter_1)">
    <use stroke="none" fill="#FFFFFF" xlink:href="#path_1" fill-rule="evenodd" />
    <g clip-path="url(#clip_1)">
      <use xlink:href="#path_1" fill="none" stroke="#FF0303" stroke-width="12" />
    </g>
  </g>
</svg>