<?xml version="1.0" encoding="utf-8"?>
<svg width="935px" height="160px" viewbox="0 0 935 160" version="1.1" xmlns:xlink="http://www.w3.org/1999/xlink" xmlns="http://www.w3.org/2000/svg">
  <defs>
    <filter filterUnits="userSpaceOnUse" color-interpolation-filters="sRGB" id="filter_1">
      <feFlood flood-opacity="0" result="BackgroundImageFix" />
      <feColorMatrix in="SourceAlpha" type="matrix" values="0 0 0 0 0 0 0 0 0 0 0 0 0 0 0 0 0 0 127 0" />
      <feOffset dx="0" dy="27" />
      <feGaussianBlur stdDeviation="11" />
      <feColorMatrix type="matrix" values="0 0 0 0 0 0 0 0 0 0.7254902 0 0 0 0 0.8901961 0 0 0 1 0" />
      <feBlend mode="normal" in2="BackgroundImageFix" result="effect0_dropShadow" />
      <feBlend mode="normal" in="SourceGraphic" in2="effect0_dropShadow" result="shape" />
    </filter>
    <path d="M59.832 0L875.168 0Q876.637 0 878.104 0.0720703Q879.571 0.144141 881.033 0.288107Q882.494 0.432074 883.947 0.647591Q885.4 0.863108 886.841 1.14966Q888.281 1.4362 889.706 1.79309Q891.131 2.14998 892.536 2.57635Q893.942 3.00271 895.325 3.49754Q896.708 3.99236 898.065 4.55444Q899.422 5.11652 900.749 5.74451Q902.077 6.3725 903.372 7.06489Q904.668 7.75727 905.928 8.51238Q907.187 9.26749 908.409 10.0835Q909.63 10.8995 910.81 11.7745Q911.99 12.6494 913.125 13.5812Q914.26 14.513 915.349 15.4994Q916.437 16.4858 917.476 17.5244Q918.514 18.563 919.5 19.6513Q920.487 20.7396 921.419 21.875Q922.35 23.0104 923.225 24.1901Q924.1 25.3699 924.916 26.5911Q925.732 27.8124 926.488 29.0722Q927.243 30.332 927.935 31.6274Q928.627 32.9228 929.255 34.2505Q929.883 35.5783 930.445 36.9353Q931.007 38.2923 931.502 39.6752Q931.997 41.0581 932.424 42.4637Q932.85 43.8692 933.207 45.294Q933.564 46.7188 933.85 48.1594Q934.137 49.5999 934.352 51.0528Q934.568 52.5057 934.712 53.9674Q934.856 55.4292 934.928 56.8962Q935 58.3632 935 59.832L935 100.168Q935 101.637 934.928 103.104Q934.856 104.571 934.712 106.033Q934.568 107.494 934.352 108.947Q934.137 110.4 933.85 111.841Q933.564 113.281 933.207 114.706Q932.85 116.131 932.424 117.536Q931.997 118.942 931.502 120.325Q931.007 121.708 930.445 123.065Q929.883 124.422 929.255 125.749Q928.627 127.077 927.935 128.373Q927.243 129.668 926.488 130.928Q925.732 132.188 924.916 133.409Q924.1 134.63 923.225 135.81Q922.35 136.99 921.419 138.125Q920.487 139.26 919.5 140.349Q918.514 141.437 917.476 142.476Q916.437 143.514 915.349 144.501Q914.26 145.487 913.125 146.419Q911.99 147.351 910.81 148.225Q909.63 149.1 908.409 149.916Q907.187 150.732 905.928 151.488Q904.668 152.243 903.372 152.935Q902.077 153.627 900.749 154.255Q899.422 154.883 898.065 155.446Q896.708 156.008 895.325 156.502Q893.942 156.997 892.536 157.424Q891.131 157.85 889.706 158.207Q888.281 158.564 886.841 158.85Q885.4 159.137 883.947 159.352Q882.494 159.568 881.033 159.712Q879.571 159.856 878.104 159.928Q876.637 160 875.168 160L59.832 160Q58.3632 160 56.8962 159.928Q55.4292 159.856 53.9674 159.712Q52.5057 159.568 51.0528 159.352Q49.5999 159.137 48.1594 158.85Q46.7188 158.564 45.294 158.207Q43.8692 157.85 42.4637 157.424Q41.0581 156.997 39.6752 156.502Q38.2923 156.008 36.9353 155.446Q35.5783 154.883 34.2505 154.255Q32.9228 153.627 31.6274 152.935Q30.332 152.243 29.0722 151.488Q27.8124 150.732 26.5911 149.916Q25.3699 149.1 24.1901 148.225Q23.0104 147.351 21.875 146.419Q20.7396 145.487 19.6513 144.501Q18.563 143.514 17.5244 142.476Q16.4858 141.437 15.4994 140.349Q14.513 139.26 13.5812 138.125Q12.6494 136.99 11.7745 135.81Q10.8995 134.63 10.0835 133.409Q9.26749 132.188 8.51238 130.928Q7.75727 129.668 7.06489 128.373Q6.3725 127.077 5.74451 125.749Q5.11652 124.422 4.55444 123.065Q3.99236 121.708 3.49754 120.325Q3.00271 118.942 2.57635 117.536Q2.14998 116.131 1.79309 114.706Q1.4362 113.281 1.14966 111.841Q0.863108 110.4 0.647591 108.947Q0.432074 107.494 0.288107 106.033Q0.144141 104.571 0.0720703 103.104Q0 101.637 0 100.168L0 59.832Q0 58.3632 0.0720703 56.8962Q0.144141 55.4292 0.288107 53.9674Q0.432074 52.5057 0.647591 51.0528Q0.863108 49.5999 1.14966 48.1594Q1.4362 46.7188 1.79309 45.294Q2.14998 43.8692 2.57635 42.4637Q3.00271 41.0581 3.49754 39.6752Q3.99236 38.2923 4.55444 36.9353Q5.11652 35.5783 5.74451 34.2505Q6.3725 32.9228 7.06489 31.6274Q7.75727 30.332 8.51238 29.0722Q9.26749 27.8124 10.0835 26.5911Q10.8995 25.3699 11.7745 24.1901Q12.6494 23.0104 13.5812 21.875Q14.513 20.7396 15.4994 19.6513Q16.4858 18.563 17.5244 17.5244Q18.563 16.4858 19.6513 15.4994Q20.7396 14.513 21.875 13.5812Q23.0104 12.6494 24.1901 11.7745Q25.3699 10.8995 26.5911 10.0835Q27.8124 9.26749 29.0722 8.51238Q30.332 7.75727 31.6274 7.06489Q32.9228 6.3725 34.2505 5.74451Q35.5783 5.11652 36.9353 4.55444Q38.2923 3.99236 39.6752 3.49754Q41.0581 3.00271 42.4637 2.57635Q43.8692 2.14998 45.294 1.79309Q46.7188 1.4362 48.1594 1.14966Q49.5999 0.863108 51.0528 0.647591Q52.5057 0.432074 53.9674 0.288107Q55.4292 0.144141 56.8962 0.0720703Q58.3632 0 59.832 0Z" id="path_1" />
    <clipPath id="clip_1">
      <use xlink:href="#path_1" />
    </clipPath>
  </defs>
  <g id="New-group">
    <g id="Rectangle-2-Copy-20" filter="url(#filter_1)">
      <use stroke="none" fill="#FFFFFF" xlink:href="#path_1" fill-rule="evenodd" />
      <g clip-path="url(#clip_1)">
        <use xlink:href="#path_1" fill="none" stroke="#00B9E3" stroke-width="12" />
      </g>
    </g>
    <g id="SERVICE">
      <path d="M329.891 88.2031L335.609 87.7031Q336.016 91.1406 337.5 93.3438Q338.984 95.5469 342.109 96.9063Q345.234 98.2656 349.141 98.2656Q352.609 98.2656 355.266 97.2344Q357.922 96.2031 359.219 94.4063Q360.516 92.6094 360.516 90.4844Q360.516 88.3281 359.266 86.7188Q358.016 85.1094 355.141 84.0156Q353.297 83.2969 346.984 81.7813Q340.672 80.2656 338.141 78.9219Q334.859 77.2031 333.25 74.6563Q331.641 72.1094 331.641 68.9531Q331.641 65.4844 333.609 62.4688Q335.578 59.4531 339.359 57.8906Q343.141 56.3281 347.766 56.3281Q352.859 56.3281 356.75 57.9688Q360.641 59.6094 362.734 62.7969Q364.828 65.9844 364.984 70.0156L359.172 70.4531Q358.703 66.1094 356 63.8906Q353.297 61.6719 348.016 61.6719Q342.516 61.6719 340 63.6875Q337.484 65.7031 337.484 68.5469Q337.484 71.0156 339.266 72.6094Q341.016 74.2031 348.406 75.875Q355.797 77.5469 358.547 78.7969Q362.547 80.6406 364.453 83.4688Q366.359 86.2969 366.359 89.9844Q366.359 93.6406 364.266 96.875Q362.172 100.109 358.25 101.906Q354.328 103.703 349.422 103.703Q343.203 103.703 339 101.891Q334.797 100.078 332.406 96.4375Q330.016 92.7969 329.891 88.2031ZM556.703 86.8594L562.766 88.3906Q560.859 95.8594 555.906 99.7813Q550.953 103.703 543.797 103.703Q536.391 103.703 531.75 100.688Q527.109 97.6719 524.688 91.9531Q522.266 86.2344 522.266 79.6719Q522.266 72.5156 525 67.1875Q527.734 61.8594 532.781 59.0938Q537.828 56.3281 543.891 56.3281Q550.766 56.3281 555.453 59.8281Q560.141 63.3281 561.984 69.6719L556.016 71.0781Q554.422 66.0781 551.391 63.7969Q548.359 61.5156 543.766 61.5156Q538.484 61.5156 534.938 64.0469Q531.391 66.5781 529.953 70.8438Q528.516 75.1094 528.516 79.6406Q528.516 85.4844 530.219 89.8438Q531.922 94.2031 535.516 96.3594Q539.109 98.5156 543.297 98.5156Q548.391 98.5156 551.922 95.5781Q555.453 92.6406 556.703 86.8594ZM374.766 102.922L374.766 57.1094L407.891 57.1094L407.891 62.5156L380.828 62.5156L380.828 76.5469L406.172 76.5469L406.172 81.9219L380.828 81.9219L380.828 97.5156L408.953 97.5156L408.953 102.922L374.766 102.922ZM417.422 57.1094L417.422 102.922L423.484 102.922L423.484 82.5781L430.516 82.5781Q432.859 82.5781 433.891 82.7969Q435.297 83.1406 436.656 84.0156Q438.016 84.8906 439.734 87.0781Q441.453 89.2656 444.109 93.3906L450.172 102.922L457.797 102.922L449.828 90.4531Q447.453 86.7969 444.797 84.3594Q443.547 83.2344 441.141 82.0781Q447.734 81.1719 450.891 77.8281Q454.047 74.4844 454.047 69.6094Q454.047 65.8281 452.141 62.7031Q450.234 59.5781 447.047 58.3438Q443.859 57.1094 437.734 57.1094L417.422 57.1094ZM476.641 102.922L458.891 57.1094L465.453 57.1094L477.359 90.3906Q478.797 94.3906 479.766 97.8906Q480.828 94.1406 482.234 90.3906L494.609 57.1094L500.797 57.1094L482.859 102.922L476.641 102.922ZM507.266 57.1094L507.266 102.922L513.328 102.922L513.328 57.1094L507.266 57.1094ZM570.359 57.1094L570.359 102.922L604.547 102.922L604.547 97.5156L576.422 97.5156L576.422 81.9219L601.766 81.9219L601.766 76.5469L576.422 76.5469L576.422 62.5156L603.484 62.5156L603.484 57.1094L570.359 57.1094ZM436.516 77.3281L423.484 77.3281L423.484 62.1719L437.984 62.1719Q443.078 62.1719 445.438 64.2656Q447.797 66.3594 447.797 69.6094Q447.797 71.8281 446.578 73.7188Q445.359 75.6094 443.016 76.4688Q440.672 77.3281 436.516 77.3281Z" />
    </g>
  </g>
</svg>