<?xml version="1.0" encoding="utf-8"?>
<svg width="208px" height="145px" viewbox="0 0 208 145" version="1.1" xmlns:xlink="http://www.w3.org/1999/xlink" xmlns="http://www.w3.org/2000/svg">
  <defs>
    <filter filterUnits="userSpaceOnUse" color-interpolation-filters="sRGB" id="filter_1">
      <feFlood flood-opacity="0" result="BackgroundImageFix" />
      <feColorMatrix in="SourceAlpha" type="matrix" values="0 0 0 0 0 0 0 0 0 0 0 0 0 0 0 0 0 0 127 0" />
      <feOffset dx="0" dy="16" />
      <feGaussianBlur stdDeviation="6" />
      <feColorMatrix type="matrix" values="0 0 0 0 0 0 0 0 0 0.7254902 0 0 0 0 0.8901961 0 0 0 1 0" />
      <feBlend mode="normal" in2="BackgroundImageFix" result="effect0_dropShadow" />
      <feBlend mode="normal" in="SourceGraphic" in2="effect0_dropShadow" result="shape" />
    </filter>
  </defs>
  <path d="M39.999 0L150.001 0Q150.983 0 151.964 0.0481805Q152.944 0.0963611 153.922 0.192606Q154.899 0.288851 155.87 0.432929Q156.841 0.577006 157.804 0.768569Q158.767 0.960133 159.72 1.19872Q160.672 1.43731 161.612 1.72234Q162.552 2.00738 163.476 2.33818Q164.401 2.66898 165.308 3.04474Q166.215 3.42051 167.103 3.84033Q167.99 4.26016 168.856 4.72303Q169.722 5.1859 170.565 5.69071Q171.407 6.19552 172.223 6.74105Q173.04 7.28657 173.828 7.8715Q174.617 8.45643 175.376 9.07935Q176.135 9.70228 176.863 10.3617Q177.59 11.0211 178.285 11.7154Q178.979 12.4098 179.638 13.1373Q180.298 13.8649 180.921 14.6239Q181.544 15.3829 182.128 16.1716Q182.713 16.9603 183.259 17.7767Q183.804 18.5932 184.309 19.4354Q184.814 20.2776 185.277 21.1436Q185.74 22.0096 186.16 22.8972Q186.579 23.7849 186.955 24.692Q187.331 25.5992 187.662 26.5237Q187.993 27.4483 188.278 28.3879Q188.563 29.3275 188.801 30.28Q189.04 31.2325 189.231 32.1956Q189.423 33.1586 189.567 34.1299Q189.711 35.1012 189.807 36.0784Q189.904 37.0556 189.952 38.0363Q190 39.0171 190 39.999L190 80.001Q190 80.9829 189.952 81.9637Q189.904 82.9444 189.807 83.9216Q189.711 84.8988 189.567 85.8701Q189.423 86.8414 189.231 87.8044Q189.04 88.7675 188.801 89.72Q188.563 90.6725 188.278 91.6121Q187.993 92.5517 187.662 93.4763Q187.331 94.4008 186.955 95.3079Q186.579 96.2151 186.16 97.1028Q185.74 97.9904 185.277 98.8564Q184.814 99.7224 184.309 100.565Q183.804 101.407 183.259 102.223Q182.713 103.04 182.128 103.828Q181.544 104.617 180.921 105.376Q180.298 106.135 179.638 106.863Q178.979 107.59 178.285 108.285Q177.59 108.979 176.863 109.638Q176.135 110.298 175.376 110.921Q174.617 111.544 173.828 112.128Q173.04 112.713 172.223 113.259Q171.407 113.804 170.565 114.309Q169.722 114.814 168.856 115.277Q167.99 115.74 167.103 116.16Q166.215 116.579 165.308 116.955Q164.401 117.331 163.476 117.662Q162.552 117.993 161.612 118.278Q160.672 118.563 159.72 118.801Q158.767 119.04 157.804 119.231Q156.841 119.423 155.87 119.567Q154.899 119.711 153.922 119.807Q152.944 119.904 151.964 119.952Q150.983 120 150.001 120L39.999 120Q39.0171 120 38.0363 119.952Q37.0556 119.904 36.0784 119.807Q35.1012 119.711 34.1299 119.567Q33.1586 119.423 32.1956 119.231Q31.2325 119.04 30.28 118.801Q29.3275 118.563 28.3879 118.278Q27.4483 117.993 26.5237 117.662Q25.5992 117.331 24.692 116.955Q23.7849 116.579 22.8972 116.16Q22.0096 115.74 21.1436 115.277Q20.2776 114.814 19.4354 114.309Q18.5932 113.804 17.7767 113.259Q16.9603 112.713 16.1716 112.128Q15.3829 111.544 14.6239 110.921Q13.8649 110.298 13.1373 109.638Q12.4098 108.979 11.7154 108.285Q11.0211 107.59 10.3617 106.863Q9.70228 106.135 9.07935 105.376Q8.45643 104.617 7.8715 103.828Q7.28657 103.04 6.74105 102.223Q6.19552 101.407 5.69071 100.565Q5.1859 99.7224 4.72303 98.8564Q4.26016 97.9904 3.84033 97.1028Q3.42051 96.2151 3.04474 95.308Q2.66898 94.4008 2.33818 93.4763Q2.00738 92.5517 1.72234 91.6121Q1.43731 90.6725 1.19872 89.72Q0.960133 88.7675 0.768569 87.8044Q0.577006 86.8414 0.432929 85.8701Q0.288851 84.8988 0.192606 83.9216Q0.0963611 82.9444 0.0481805 81.9637Q0 80.9829 0 80.001L0 39.999Q0 39.0171 0.0481805 38.0363Q0.0963611 37.0556 0.192606 36.0784Q0.288851 35.1012 0.432929 34.1299Q0.577006 33.1586 0.768569 32.1956Q0.960133 31.2325 1.19872 30.28Q1.43731 29.3275 1.72234 28.3879Q2.00738 27.4483 2.33818 26.5237Q2.66898 25.5992 3.04474 24.692Q3.42051 23.7849 3.84033 22.8972Q4.26016 22.0096 4.72303 21.1436Q5.1859 20.2776 5.69071 19.4354Q6.19552 18.5932 6.74105 17.7767Q7.28657 16.9603 7.8715 16.1716Q8.45643 15.3829 9.07935 14.6239Q9.70228 13.8649 10.3617 13.1373Q11.0211 12.4098 11.7154 11.7154Q12.4098 11.0211 13.1373 10.3617Q13.8649 9.70228 14.6239 9.07935Q15.3829 8.45643 16.1716 7.8715Q16.9603 7.28657 17.7767 6.74105Q18.5932 6.19552 19.4354 5.69071Q20.2776 5.1859 21.1436 4.72303Q22.0096 4.26016 22.8972 3.84033Q23.7849 3.42051 24.692 3.04474Q25.5992 2.66898 26.5237 2.33818Q27.4483 2.00738 28.3879 1.72234Q29.3275 1.43731 30.28 1.19872Q31.2325 0.960133 32.1956 0.768569Q33.1586 0.577006 34.1299 0.432929Q35.1012 0.288851 36.0784 0.192606Q37.0556 0.0963611 38.0363 0.0481805Q39.0171 0 39.999 0Z" transform="translate(9 0)" id="Rectangle-2-Copy-32" fill="#FFFFFF" fill-rule="evenodd" stroke="none" filter="url(#filter_1)" />
  <g id="250" transform="translate(48 25)">
    <path d="M24.125 31.8438Q24.125 29.7813 23.4844 28.25Q22.8438 26.7188 21.7344 25.7031Q20.625 24.6875 19.125 24.1875Q17.625 23.6875 15.875 23.6875Q14.375 23.6875 12.9375 24.0938Q11.5 24.5 10.1406 25.2188Q8.78125 25.9375 7.51563 26.9375Q6.25 27.9375 5.15625 29.1563L5.15625 23.6563Q7.3125 21.5625 9.98438 20.4531Q12.6562 19.3438 16.5 19.3438Q19.25 19.3438 21.5938 20.1406Q23.9375 20.9375 25.6563 22.4688Q27.375 24 28.3594 26.25Q29.3437 28.5 29.3438 31.4063Q29.3437 34.0625 28.7344 36.2188Q28.125 38.375 26.8906 40.2813Q25.6562 42.1875 23.7813 43.9375Q21.9063 45.6875 19.375 47.5Q16.2187 49.75 14.1719 51.3438Q12.125 52.9375 10.9219 54.3281Q9.71875 55.7188 9.23438 57.1094Q8.75 58.5 8.75 60.3125L31.0625 60.3125L31.0625 64.9063L3.40625 64.9063L3.40625 62.6875Q3.40625 59.8125 4.03125 57.625Q4.65625 55.4375 6.09375 53.4688Q7.53125 51.5 9.85938 49.5313Q12.1875 47.5625 15.5625 45.0938Q18 43.3438 19.6406 41.75Q21.2813 40.1563 22.2813 38.5625Q23.2813 36.9688 23.7031 35.3281Q24.125 33.6875 24.125 31.8438ZM99.8594 52.2813Q100.875 47.9375 100.875 42.3125Q100.875 19.3438 86.7813 19.3438Q83.125 19.3438 80.2969 20.8906Q77.4688 22.4375 75.5625 25.4844Q73.6563 28.5313 72.6719 33.0313Q71.6875 37.5313 71.6875 43.4063Q71.6875 48.75 72.625 52.8906Q73.5625 57.0313 75.375 59.875Q77.1875 62.7188 79.8281 64.2031Q82.4688 65.6875 85.8438 65.6875Q89.4063 65.6875 92.2031 64.1406Q95 62.5938 96.9219 59.6094Q98.8438 56.625 99.8594 52.2813ZM64.7813 51.2188Q64.7813 54.5 63.6563 57.1563Q62.5312 59.8125 60.4531 61.7188Q58.375 63.625 55.4375 64.6563Q52.5 65.6875 48.9063 65.6875Q42.6563 65.6875 39.625 63.8125L39.625 58.375Q44.1875 61.3125 48.9688 61.3125Q51.4063 61.3125 53.3594 60.5938Q55.3125 59.875 56.6875 58.5938Q58.0625 57.3125 58.7969 55.5Q59.5313 53.6875 59.5313 51.5313Q59.5312 47.1563 56.5938 44.6719Q53.6563 42.1875 48.0625 42.1875Q47.1563 42.1875 46.1563 42.2188Q45.1563 42.25 44.1563 42.2969Q43.1563 42.3438 42.2031 42.4063Q41.25 42.4688 40.4688 42.5625L42 20.0938L62.7188 20.0938L62.7188 24.7188L46.4375 24.7188L45.5313 37.875Q46.5313 37.8125 47.6563 37.7656Q48.7813 37.7188 49.6563 37.7188Q53.2188 37.7188 56.0313 38.6563Q58.8438 39.5938 60.7969 41.3281Q62.75 43.0625 63.7656 45.5781Q64.7813 48.0938 64.7813 51.2188ZM86.5313 23.6875Q95.625 23.6875 95.625 42.8125Q95.625 61.3125 86.3438 61.3125Q76.9375 61.3125 76.9375 43.1563Q76.9375 23.6875 86.5313 23.6875Z" />
  </g>
</svg>