<?xml version="1.0" encoding="utf-8"?>
<svg width="171px" height="171px" viewbox="0 0 171 171" version="1.1" xmlns:xlink="http://www.w3.org/1999/xlink" xmlns="http://www.w3.org/2000/svg">
  <defs>
    <linearGradient x1="0.5" y1="0" x2="0.5" y2="1" id="gradient_1">
      <stop offset="0" stop-color="#FFFFFF" />
      <stop offset="1" stop-color="#E0E0E0" />
    </linearGradient>
    <filter filterUnits="userSpaceOnUse" color-interpolation-filters="sRGB" id="filter_1">
      <feFlood flood-opacity="0" result="BackgroundImageFix" />
      <feColorMatrix in="SourceAlpha" type="matrix" values="0 0 0 0 0 0 0 0 0 0 0 0 0 0 0 0 0 0 127 0" />
      <feOffset dx="0" dy="2" />
      <feGaussianBlur stdDeviation="6" />
      <feColorMatrix type="matrix" values="0 0 0 0 0.99215686 0 0 0 0 0.07058824 0 0 0 0 0.07058824 0 0 0 1 0" />
      <feBlend mode="normal" in2="BackgroundImageFix" result="effect0_dropShadow" />
      <feBlend mode="normal" in="SourceGraphic" in2="effect0_dropShadow" result="shape" />
    </filter>
    <path d="M67.3111 0L67.3131 0Q68.9655 0 70.6159 0.0810792Q72.2663 0.162158 73.9108 0.324121Q75.5552 0.486084 77.1897 0.728541Q78.8242 0.970998 80.4449 1.29336Q82.0655 1.61573 83.6684 2.01723Q85.2713 2.41873 86.8525 2.89839Q88.4338 3.37806 89.9896 3.93473Q91.5454 4.49141 93.072 5.12375Q94.5986 5.7561 96.0923 6.46259Q97.5861 7.16908 99.0434 7.94801Q100.501 8.72695 101.918 9.57645Q103.335 10.4259 104.709 11.344Q106.083 12.262 107.41 13.2463Q108.738 14.2307 110.015 15.2789Q111.292 16.3272 112.517 17.4369Q113.741 18.5466 114.909 19.715Q116.078 20.8834 117.187 22.1077Q118.297 23.3321 119.345 24.6094Q120.394 25.8867 121.378 27.2139Q122.362 28.5412 123.28 29.9151Q124.198 31.289 125.048 32.7063Q125.897 34.1236 126.676 35.5809Q127.455 37.0382 128.162 38.5319Q128.868 40.0257 129.5 41.5523Q130.133 43.0789 130.689 44.6347Q131.246 46.1905 131.726 47.7717Q132.206 49.353 132.607 50.9559Q133.009 52.5587 133.331 54.1794Q133.653 55.8 133.896 57.4345Q134.138 59.069 134.3 60.7135Q134.462 62.3579 134.543 64.0083Q134.624 65.6587 134.624 67.3111L134.624 67.3131Q134.624 68.9655 134.543 70.6159Q134.462 72.2663 134.3 73.9108Q134.138 75.5552 133.896 77.1897Q133.653 78.8242 133.331 80.4449Q133.009 82.0655 132.607 83.6684Q132.206 85.2713 131.726 86.8525Q131.246 88.4338 130.689 89.9896Q130.133 91.5454 129.5 93.072Q128.868 94.5986 128.162 96.0923Q127.455 97.5861 126.676 99.0434Q125.897 100.501 125.048 101.918Q124.198 103.335 123.28 104.709Q122.362 106.083 121.378 107.41Q120.394 108.738 119.345 110.015Q118.297 111.292 117.187 112.517Q116.078 113.741 114.909 114.909Q113.741 116.078 112.517 117.187Q111.292 118.297 110.015 119.345Q108.738 120.394 107.41 121.378Q106.083 122.362 104.709 123.28Q103.335 124.198 101.918 125.048Q100.501 125.897 99.0434 126.676Q97.5861 127.455 96.0923 128.162Q94.5986 128.868 93.072 129.5Q91.5454 130.133 89.9896 130.689Q88.4338 131.246 86.8525 131.726Q85.2713 132.206 83.6684 132.607Q82.0655 133.009 80.4449 133.331Q78.8242 133.653 77.1897 133.896Q75.5552 134.138 73.9108 134.3Q72.2663 134.462 70.6159 134.543Q68.9655 134.624 67.3131 134.624L67.3111 134.624Q65.6587 134.624 64.0083 134.543Q62.3579 134.462 60.7135 134.3Q59.069 134.138 57.4345 133.896Q55.8 133.653 54.1794 133.331Q52.5587 133.009 50.9559 132.607Q49.353 132.206 47.7717 131.726Q46.1905 131.246 44.6347 130.689Q43.0789 130.133 41.5523 129.5Q40.0257 128.868 38.5319 128.162Q37.0382 127.455 35.5809 126.676Q34.1236 125.897 32.7063 125.048Q31.289 124.198 29.9151 123.28Q28.5412 122.362 27.2139 121.378Q25.8867 120.394 24.6094 119.345Q23.3321 118.297 22.1077 117.187Q20.8834 116.078 19.715 114.909Q18.5466 113.741 17.4369 112.517Q16.3272 111.292 15.2789 110.015Q14.2307 108.738 13.2463 107.41Q12.262 106.083 11.344 104.709Q10.4259 103.335 9.57645 101.918Q8.72695 100.501 7.94801 99.0434Q7.16908 97.5861 6.46259 96.0923Q5.7561 94.5986 5.12375 93.072Q4.49141 91.5454 3.93473 89.9896Q3.37806 88.4338 2.89839 86.8525Q2.41873 85.2713 2.01723 83.6684Q1.61573 82.0655 1.29336 80.4449Q0.970998 78.8242 0.728541 77.1897Q0.486084 75.5552 0.324121 73.9108Q0.162158 72.2663 0.0810792 70.6159Q0 68.9655 0 67.3131L0 67.3111Q0 65.6587 0.0810792 64.0083Q0.162158 62.3579 0.324121 60.7135Q0.486084 59.069 0.728541 57.4345Q0.970998 55.8 1.29336 54.1794Q1.61573 52.5587 2.01723 50.9559Q2.41873 49.353 2.89839 47.7717Q3.37806 46.1905 3.93473 44.6347Q4.49141 43.0789 5.12375 41.5523Q5.7561 40.0257 6.46259 38.5319Q7.16908 37.0382 7.94801 35.5809Q8.72695 34.1236 9.57645 32.7063Q10.4259 31.289 11.344 29.9151Q12.262 28.5412 13.2463 27.2139Q14.2307 25.8867 15.2789 24.6094Q16.3272 23.3321 17.4369 22.1077Q18.5466 20.8834 19.715 19.715Q20.8834 18.5466 22.1077 17.4369Q23.3321 16.3272 24.6094 15.2789Q25.8867 14.2307 27.2139 13.2463Q28.5412 12.262 29.9151 11.344Q31.289 10.4259 32.7063 9.57645Q34.1236 8.72695 35.5809 7.94801Q37.0382 7.16908 38.5319 6.46259Q40.0257 5.7561 41.5523 5.12375Q43.0789 4.49141 44.6347 3.93473Q46.1905 3.37806 47.7717 2.89839Q49.353 2.41873 50.9559 2.01723Q52.5587 1.61573 54.1794 1.29336Q55.8 0.970998 57.4345 0.728541Q59.069 0.486084 60.7135 0.324121Q62.3579 0.162158 64.0083 0.0810792Q65.6587 0 67.3111 0Z" transform="translate(18 16)" id="path_1" />
    <clipPath id="clip_1">
      <use xlink:href="#path_1" />
    </clipPath>
  </defs>
  <g id="turbo_botton-copy-7" filter="url(#filter_1)">
    <use stroke="none" fill="url(#gradient_1)" xlink:href="#path_1" fill-rule="evenodd" />
    <g clip-path="url(#clip_1)">
      <use xlink:href="#path_1" fill="none" stroke="#FD1212" stroke-width="12" />
    </g>
  </g>
  <path d="M6.85303 26.1816C3.31543 26.1816 1.0083 24.6436 1.0083 22.063C1.0083 21.5845 1.07666 20.9863 1.19629 20.4224L2.99072 11.8774L0 11.8774L0.991211 7.38281L3.94775 7.38281L4.93896 2.76855L11.0059 2.76855L10.0146 7.38281L13.9453 7.38281L12.9541 11.8774L9.05762 11.8774L7.45117 19.4141C7.3999 19.7388 7.34863 20.0635 7.34863 20.2856C7.34863 21.3452 8.01514 21.8237 9.31396 21.8237C9.87793 21.8237 10.4761 21.7725 10.9033 21.7212L9.99756 25.9424C9.4165 26.0962 8.2373 26.1816 6.85303 26.1816ZM35.0923 7.12646L31.0762 26.1475L25.1973 26.1475L25.8296 23.1567L25.5049 23.1567C24.3086 25.3101 22.5142 26.5918 19.9507 26.5918C16.4644 26.5918 14.0547 24.4727 14.0547 21.0205C14.0547 20.4395 14.1572 19.4995 14.311 18.6108L16.7207 7.12646L22.7876 7.12646L20.5488 17.6367C20.4634 18.064 20.4292 18.5425 20.4292 18.8843C20.4292 20.6616 21.2837 21.6357 23.0781 21.6357C25.0093 21.6357 26.2397 20.2686 26.7012 18.1152L29.0425 7.12646L35.0923 7.12646ZM34.6201 26.1475L38.6875 7.12646L44.6006 7.12646L44.0537 9.80957L44.3613 9.80957C45.2842 7.94678 46.959 6.83594 48.9243 6.83594C49.9497 6.83594 50.7871 6.98975 51.4707 7.29736L50.2915 12.561C49.4199 12.1851 48.1895 11.9458 47.147 11.9458C44.8911 11.9458 43.4385 13.313 42.8745 15.9448L40.687 26.1475L34.6201 26.1475ZM62.9277 26.438C60.2446 26.438 57.9375 24.9683 57.3564 22.7295L57.0317 22.7295L56.2969 26.1475L50.418 26.1475L55.9722 0L62.022 0L59.9199 9.82666L60.2788 9.77539C61.4409 7.98096 63.2695 6.83594 65.9014 6.83594C69.6953 6.83594 72.293 9.57031 72.293 14.0649C72.293 21.2256 68.1743 26.438 62.9277 26.438ZM61.3896 21.6016C63.9531 21.6016 66.0381 18.7817 66.0381 15.0903C66.0381 12.7148 64.688 11.5186 62.9961 11.5186C60.4155 11.5186 58.3135 14.5264 58.3135 17.9956C58.3135 20.3711 59.6636 21.6016 61.3896 21.6016ZM83.3906 21.9434C85.8516 21.9434 87.9023 18.9185 87.9023 15.3125C87.9023 12.7832 86.877 11.2964 85.0996 11.2964C82.5703 11.2964 80.5366 14.3042 80.5366 18.0469C80.5366 20.4907 81.6133 21.9434 83.3906 21.9434ZM85.373 6.68213C90.7222 6.68213 94.2085 10.0317 94.2085 15.1929C94.2085 21.7041 89.4746 26.5918 83.1514 26.5918C77.7852 26.5918 74.2646 23.2251 74.2646 18.0981C74.2646 11.5869 79.0327 6.68213 85.373 6.68213Z" transform="translate(39 69)" id="turbo-copy" fill="#353535" fill-rule="evenodd" stroke="none" />
</svg>