<?xml version="1.0" encoding="utf-8"?>
<svg width="101px" height="44px" viewbox="0 0 101 44" version="1.1" xmlns:xlink="http://www.w3.org/1999/xlink" xmlns="http://www.w3.org/2000/svg">
  <g id="turbo" fill="#FD1212">
    <path d="M56.7272 33.2241L56.6589 33.2241L56.6589 35.7534L53.8561 35.7534L53.8561 9.84521L56.6589 9.84521L56.6589 21.3296L56.7272 21.3296Q58.7951 17.8433 62.777 17.8433Q66.1437 17.8433 68.0493 20.1931Q69.9548 22.543 69.9548 26.4907Q69.9548 30.8828 67.8186 33.5232Q65.6823 36.1636 61.9738 36.1636Q58.5046 36.1636 56.7272 33.2241ZM20.9384 35.5825Q19.9472 36.1294 18.3236 36.1294Q13.7265 36.1294 13.7265 31.0024L13.7265 20.646L10.7186 20.646L10.7186 18.2534L13.7265 18.2534L13.7265 13.981L16.5292 13.0752L16.5292 18.2534L20.9384 18.2534L20.9384 20.646L16.5292 20.646L16.5292 30.5068Q16.5292 32.2671 17.1273 33.019Q17.7255 33.771 19.1098 33.771Q20.1693 33.771 20.9384 33.1899L20.9384 35.5825ZM74.6184 33.7112Q76.9341 36.1636 80.8134 36.1636Q84.7954 36.1636 87.1623 33.6428Q89.5293 31.1221 89.5293 26.9351Q89.5293 22.6626 87.3332 20.2529Q85.1372 17.8433 81.2236 17.8433Q77.122 17.8433 74.7124 20.3213Q72.3027 22.7993 72.3027 27.2085Q72.3027 31.2588 74.6184 33.7112ZM49.6283 20.5264Q51.0126 20.5264 51.7475 21.0903L51.7475 18.1851Q51.1664 17.9458 50.0727 17.9458Q48.5517 17.9458 47.3212 18.9797Q46.0908 20.0137 45.4926 21.8594L45.4242 21.8594L45.4242 18.2534L42.6215 18.2534L42.6215 35.7534L45.4242 35.7534L45.4242 26.8325Q45.4242 23.9102 46.6291 22.2183Q47.8339 20.5264 49.6283 20.5264ZM37.8981 35.7534L35.0954 35.7534L35.0954 32.9849L35.027 32.9849Q33.2838 36.1636 29.6266 36.1636Q23.3717 36.1636 23.3717 28.7124L23.3717 18.2534L26.1574 18.2534L26.1574 28.2681Q26.1574 33.8052 30.3957 33.8052Q32.4464 33.8052 33.7709 32.2927Q35.0954 30.7803 35.0954 28.3364L35.0954 18.2534L37.8981 18.2534L37.8981 35.7534ZM56.6589 26.166L56.6589 28.6099Q56.6589 30.7803 58.0688 32.2927Q59.4787 33.8052 61.6491 33.8052Q64.1955 33.8052 65.6396 31.8569Q67.0837 29.9087 67.0837 26.4395Q67.0837 23.5171 65.7336 21.8594Q64.3835 20.2017 62.0764 20.2017Q59.6325 20.2017 58.1457 21.9021Q56.6589 23.6025 56.6589 26.166ZM76.7461 22.0388Q78.3183 20.2017 81.0185 20.2017Q83.7358 20.2017 85.197 21.979Q86.6582 23.7563 86.6582 27.0376Q86.6582 30.2847 85.197 32.0449Q83.7358 33.8052 81.0185 33.8052Q78.3525 33.8052 76.7632 32.0107Q75.1738 30.2163 75.1738 27.106Q75.1738 23.876 76.7461 22.0388Z" />
  </g>
</svg>