<?xml version="1.0" encoding="utf-8"?>
<svg width="171px" height="171px" viewbox="0 0 171 171" version="1.1" xmlns:xlink="http://www.w3.org/1999/xlink" xmlns="http://www.w3.org/2000/svg">
  <defs>
    <linearGradient x1="0.5" y1="0" x2="0.5" y2="1" id="gradient_1">
      <stop offset="0" stop-color="#FFFFFF" />
      <stop offset="1" stop-color="#E0E0E0" />
    </linearGradient>
    <filter filterUnits="userSpaceOnUse" color-interpolation-filters="sRGB" id="filter_1">
      <feFlood flood-opacity="0" result="BackgroundImageFix" />
      <feColorMatrix in="SourceAlpha" type="matrix" values="0 0 0 0 0 0 0 0 0 0 0 0 0 0 0 0 0 0 127 0" />
      <feOffset dx="0" dy="2" />
      <feGaussianBlur stdDeviation="6" />
      <feColorMatrix type="matrix" values="0 0 0 0 0.7490196 0 0 0 0 0 0 0 0 0 0.8980392 0 0 0 1 0" />
      <feBlend mode="normal" in2="BackgroundImageFix" result="effect0_dropShadow" />
      <feBlend mode="normal" in="SourceGraphic" in2="effect0_dropShadow" result="shape" />
    </filter>
    <path d="M67.3111 0L67.3131 0Q68.9655 0 70.6159 0.0810792Q72.2663 0.162158 73.9108 0.324121Q75.5552 0.486084 77.1897 0.728541Q78.8242 0.970998 80.4449 1.29336Q82.0655 1.61573 83.6684 2.01723Q85.2713 2.41873 86.8525 2.89839Q88.4338 3.37806 89.9896 3.93473Q91.5454 4.49141 93.072 5.12375Q94.5986 5.7561 96.0923 6.46259Q97.5861 7.16908 99.0434 7.94801Q100.501 8.72695 101.918 9.57645Q103.335 10.4259 104.709 11.344Q106.083 12.262 107.41 13.2463Q108.738 14.2307 110.015 15.2789Q111.292 16.3272 112.517 17.4369Q113.741 18.5466 114.909 19.715Q116.078 20.8834 117.187 22.1077Q118.297 23.3321 119.345 24.6094Q120.394 25.8867 121.378 27.2139Q122.362 28.5412 123.28 29.9151Q124.198 31.289 125.048 32.7063Q125.897 34.1236 126.676 35.5809Q127.455 37.0382 128.162 38.5319Q128.868 40.0257 129.5 41.5523Q130.133 43.0789 130.689 44.6347Q131.246 46.1905 131.726 47.7717Q132.206 49.353 132.607 50.9559Q133.009 52.5587 133.331 54.1794Q133.653 55.8 133.896 57.4345Q134.138 59.069 134.3 60.7135Q134.462 62.3579 134.543 64.0083Q134.624 65.6587 134.624 67.3111L134.624 67.3131Q134.624 68.9655 134.543 70.6159Q134.462 72.2663 134.3 73.9108Q134.138 75.5552 133.896 77.1897Q133.653 78.8242 133.331 80.4449Q133.009 82.0655 132.607 83.6684Q132.206 85.2713 131.726 86.8525Q131.246 88.4338 130.689 89.9896Q130.133 91.5454 129.5 93.072Q128.868 94.5986 128.162 96.0923Q127.455 97.5861 126.676 99.0434Q125.897 100.501 125.048 101.918Q124.198 103.335 123.28 104.709Q122.362 106.083 121.378 107.41Q120.394 108.738 119.345 110.015Q118.297 111.292 117.187 112.517Q116.078 113.741 114.909 114.909Q113.741 116.078 112.517 117.187Q111.292 118.297 110.015 119.345Q108.738 120.394 107.41 121.378Q106.083 122.362 104.709 123.28Q103.335 124.198 101.918 125.048Q100.501 125.897 99.0434 126.676Q97.5861 127.455 96.0923 128.162Q94.5986 128.868 93.072 129.5Q91.5454 130.133 89.9896 130.689Q88.4338 131.246 86.8525 131.726Q85.2713 132.206 83.6684 132.607Q82.0655 133.009 80.4449 133.331Q78.8242 133.653 77.1897 133.896Q75.5552 134.138 73.9108 134.3Q72.2663 134.462 70.6159 134.543Q68.9655 134.624 67.3131 134.624L67.3111 134.624Q65.6587 134.624 64.0083 134.543Q62.3579 134.462 60.7135 134.3Q59.069 134.138 57.4345 133.896Q55.8 133.653 54.1794 133.331Q52.5587 133.009 50.9559 132.607Q49.353 132.206 47.7717 131.726Q46.1905 131.246 44.6347 130.689Q43.0789 130.133 41.5523 129.5Q40.0257 128.868 38.5319 128.162Q37.0382 127.455 35.5809 126.676Q34.1236 125.897 32.7063 125.048Q31.289 124.198 29.9151 123.28Q28.5412 122.362 27.2139 121.378Q25.8867 120.394 24.6094 119.345Q23.3321 118.297 22.1077 117.187Q20.8834 116.078 19.715 114.909Q18.5466 113.741 17.4369 112.517Q16.3272 111.292 15.2789 110.015Q14.2307 108.738 13.2463 107.41Q12.262 106.083 11.344 104.709Q10.4259 103.335 9.57645 101.918Q8.72695 100.501 7.94801 99.0434Q7.16908 97.5861 6.46259 96.0923Q5.7561 94.5986 5.12375 93.072Q4.49141 91.5454 3.93473 89.9896Q3.37806 88.4338 2.89839 86.8525Q2.41873 85.2713 2.01723 83.6684Q1.61573 82.0655 1.29336 80.4449Q0.970998 78.8242 0.728541 77.1897Q0.486084 75.5552 0.324121 73.9108Q0.162158 72.2663 0.0810792 70.6159Q0 68.9655 0 67.3131L0 67.3111Q0 65.6587 0.0810792 64.0083Q0.162158 62.3579 0.324121 60.7135Q0.486084 59.069 0.728541 57.4345Q0.970998 55.8 1.29336 54.1794Q1.61573 52.5587 2.01723 50.9559Q2.41873 49.353 2.89839 47.7717Q3.37806 46.1905 3.93473 44.6347Q4.49141 43.0789 5.12375 41.5523Q5.7561 40.0257 6.46259 38.5319Q7.16908 37.0382 7.94801 35.5809Q8.72695 34.1236 9.57645 32.7063Q10.4259 31.289 11.344 29.9151Q12.262 28.5412 13.2463 27.2139Q14.2307 25.8867 15.2789 24.6094Q16.3272 23.3321 17.4369 22.1077Q18.5466 20.8834 19.715 19.715Q20.8834 18.5466 22.1077 17.4369Q23.3321 16.3272 24.6094 15.2789Q25.8867 14.2307 27.2139 13.2463Q28.5412 12.262 29.9151 11.344Q31.289 10.4259 32.7063 9.57645Q34.1236 8.72695 35.5809 7.94801Q37.0382 7.16908 38.5319 6.46259Q40.0257 5.7561 41.5523 5.12375Q43.0789 4.49141 44.6347 3.93473Q46.1905 3.37806 47.7717 2.89839Q49.353 2.41873 50.9559 2.01723Q52.5587 1.61573 54.1794 1.29336Q55.8 0.970998 57.4345 0.728541Q59.069 0.486084 60.7135 0.324121Q62.3579 0.162158 64.0083 0.0810792Q65.6587 0 67.3111 0Z" transform="translate(18 16)" id="path_1" />
    <clipPath id="clip_1">
      <use xlink:href="#path_1" />
    </clipPath>
  </defs>
  <g id="turbo_botton-copy-6" filter="url(#filter_1)">
    <use stroke="none" fill="url(#gradient_1)" xlink:href="#path_1" fill-rule="evenodd" />
    <g clip-path="url(#clip_1)">
      <use xlink:href="#path_1" fill="none" stroke="#BF00E5" stroke-width="12" />
    </g>
  </g>
  <g id="X2" fill="#353535" transform="translate(62 61)">
    <path d="M34.4443 15.9844Q34.8047 16.8457 34.8047 18.0059Q34.8047 19.043 34.5674 19.9658Q34.3301 20.8887 33.7676 21.7852Q33.2051 22.6816 32.2822 23.5781Q31.3594 24.4746 29.9883 25.459Q28.0898 26.8477 26.7803 27.9551Q25.4707 29.0625 24.6621 30.1699Q23.8535 31.2773 23.502 32.5078Q23.1504 33.7383 23.1504 35.3555L23.1504 36.6035L38.707 36.6035L38.707 34.0195L26.1563 34.0195Q26.1563 33 26.4287 32.2178Q26.7012 31.4355 27.3779 30.6533Q28.0547 29.8711 29.2061 28.9746Q30.3574 28.0781 32.1328 26.8125Q33.5566 25.793 34.6113 24.8086Q35.666 23.8242 36.3604 22.752Q37.0547 21.6797 37.3975 20.4668Q37.7402 19.2539 37.7402 17.7598Q37.7402 16.125 37.1865 14.8594Q36.6328 13.5938 35.666 12.7324Q34.6992 11.8711 33.3809 11.4229Q32.0625 10.9746 30.5156 10.9746Q28.3535 10.9746 26.8506 11.5986Q25.3477 12.2227 24.1348 13.4004L24.1348 16.4941Q24.75 15.8086 25.4619 15.2461Q26.1738 14.6836 26.9385 14.2793Q27.7031 13.875 28.5117 13.6465Q29.3203 13.418 30.1641 13.418Q31.1484 13.418 31.9922 13.6992Q32.8359 13.9805 33.46 14.5518Q34.084 15.123 34.4443 15.9844ZM17.1035 36.6035L20.707 36.6035L12.6738 23.8945L20.6016 11.3965L17.209 11.3965L11.8477 20.1855Q11.4258 20.8535 10.8633 22.0137L10.793 22.0137Q10.4063 21.1348 9.89648 20.2559L4.74609 11.3965L1.125 11.3965L8.89453 23.9297L0.457031 36.6035L4.07813 36.6035L10.0547 26.9531Q10.4766 26.1094 10.6523 25.7051L10.7227 25.7051Q11.0391 26.5137 11.3027 26.9531L17.1035 36.6035Z" />
  </g>
</svg>