<?xml version="1.0" encoding="utf-8"?>
<svg width="100px" height="44px" viewbox="0 0 100 44" version="1.1" xmlns:xlink="http://www.w3.org/1999/xlink" xmlns="http://www.w3.org/2000/svg">
  <g id="X2" fill="#B032E7" transform="scale(0.99999994 0.99999994)">
    <path d="M63.6579 15.707Q64.0083 16.5444 64.0083 17.6724Q64.0083 18.6807 63.7775 19.5779Q63.5468 20.4751 63 21.3467Q62.4531 22.2183 61.5559 23.0898Q60.6587 23.9614 59.3256 24.9185Q57.4799 26.2686 56.2067 27.3452Q54.9336 28.4219 54.1474 29.4985Q53.3613 30.5752 53.0195 31.7715Q52.6777 32.9678 52.6777 34.54L52.6777 35.7534L67.8022 35.7534L67.8022 33.2412L55.6001 33.2412Q55.6001 32.25 55.865 31.4895Q56.1298 30.729 56.7878 29.9685Q57.4458 29.208 58.5651 28.3364Q59.6845 27.4648 61.4106 26.2344Q62.7949 25.2432 63.8203 24.2861Q64.8457 23.3291 65.5207 22.2866Q66.1958 21.2441 66.529 20.0649Q66.8623 18.8857 66.8623 17.4331Q66.8623 15.8438 66.3239 14.6133Q65.7856 13.3828 64.8457 12.5454Q63.9057 11.708 62.624 11.2722Q61.3422 10.8364 59.8383 10.8364Q57.7363 10.8364 56.2751 11.4431Q54.8139 12.0498 53.6347 13.1948L53.6347 16.2026Q54.2329 15.5361 54.925 14.9893Q55.6171 14.4424 56.3606 14.0493Q57.104 13.6563 57.8901 13.4341Q58.6762 13.2119 59.4965 13.2119Q60.4536 13.2119 61.2739 13.4854Q62.0942 13.7588 62.7009 14.3142Q63.3076 14.8696 63.6579 15.707ZM47.7321 35.7534L51.2355 35.7534L43.4255 23.3975L51.133 11.2466L47.8347 11.2466L42.6223 19.7915Q42.2121 20.4409 41.6652 21.5688L41.5969 21.5688Q41.2209 20.7144 40.7253 19.8599L35.718 11.2466L32.1975 11.2466L39.7512 23.4316L31.548 35.7534L35.0686 35.7534L40.8791 26.3711Q41.2893 25.5508 41.4602 25.1577L41.5285 25.1577Q41.8361 25.9438 42.0925 26.3711L47.7321 35.7534Z" />
  </g>
</svg>