<svg width="134" height="293" viewBox="0 0 134 293" fill="none" xmlns="http://www.w3.org/2000/svg">
<g filter="url(#filter0_d_1_2)">
<g filter="url(#filter1_d_1_2)">
<rect x="4" width="126" height="266" rx="40" fill="white"/>
<rect x="7.5" y="3.5" width="119" height="259" rx="36.5" stroke="#00B9E4" stroke-width="7"/>
</g>
<path d="M66.9998 103C44.955 103 27 85.0672 27 62.9502C27 40.9327 44.955 23 66.9998 23C89.0446 23 107 40.9327 107 62.9502C107.099 85.0672 89.1443 103 66.9998 103ZM66.9998 27.7821C47.5485 27.7821 31.788 43.523 31.788 62.9502C31.788 82.3773 47.6483 98.2179 67.0995 98.2179C86.5508 98.2179 102.411 82.3773 102.411 62.9502C102.311 43.523 86.5508 27.7821 66.9998 27.7821Z" fill="black"/>
<path d="M69.8924 66.3375C73.0844 66.3375 75.6779 65.3412 77.6729 63.4483C79.6679 61.5554 80.6654 59.0648 80.6654 56.076C80.6654 53.0872 79.6679 50.5965 77.6729 48.7036C75.6779 46.8107 73.0844 45.8145 69.8924 45.8145H57.1243V70.1233H53.4336V74.3076H57.1243V79.5878H62.2116V74.3076H74.3811V70.1233H62.2116V66.2379H69.8924V66.3375ZM62.2116 50.3973H69.5931C71.4884 50.3973 72.8849 50.8954 73.9821 51.8917C75.0794 52.8879 75.5781 54.2827 75.5781 55.9763C75.5781 57.67 75.0794 59.0648 73.9821 60.061C72.8849 61.0573 71.3886 61.5554 69.5931 61.5554H62.2116V50.3973Z" fill="black"/>
<path d="M66.9502 243C44.9328 243 27 225.045 27 203C27 180.955 44.9328 163 66.9502 163C89.0673 162.901 107 180.856 107 202.9C107 225.045 89.0673 243 66.9502 243ZM66.9502 167.689C47.523 167.689 31.6824 183.549 31.6824 203C31.6824 222.451 47.523 238.312 66.9502 238.312C86.3773 238.312 102.218 222.451 102.218 203C102.218 183.449 86.477 167.689 66.9502 167.689Z" fill="black"/>
<path d="M73.8245 202.202C76.8133 200.706 78.4073 198.312 78.4073 194.821C78.4073 192.028 77.5107 189.833 75.6178 188.237C73.7249 186.541 71.3338 185.743 68.2454 185.743H68.1458V181.055H63.9615V185.743H55.0947V219.559H63.9615V223.948H68.1458V219.559H68.7436C71.9316 219.559 74.4223 218.661 76.2155 216.965C78.0088 215.269 78.9054 212.975 78.9054 210.082C78.9054 206.392 77.2118 203.798 73.8245 202.202ZM60.1757 190.332H67.7473C69.4409 190.332 70.8357 190.731 71.7323 191.629C72.7286 192.526 73.2267 193.624 73.2267 195.22C73.2267 196.716 72.7286 197.913 71.7323 198.811C70.7361 199.708 69.4409 200.107 67.7473 200.107H60.1757V190.332ZM72.2305 213.574C71.2342 214.471 69.8394 214.97 68.1458 214.97H60.1757V204.696H68.1458C69.8394 204.696 71.2342 205.195 72.2305 206.092C73.2267 206.99 73.7249 208.287 73.7249 209.883C73.7249 211.379 73.2267 212.576 72.2305 213.574Z" fill="black"/>
<path d="M67 114V144" stroke="black" stroke-width="6" stroke-linejoin="round"/>
<path d="M52 138L67 153L82 138L52 138Z" fill="black"/>
</g>
<defs>
<filter id="filter0_d_1_2" x="0" y="0" width="134" height="274" filterUnits="userSpaceOnUse" color-interpolation-filters="sRGB">
<feFlood flood-opacity="0" result="BackgroundImageFix"/>
<feColorMatrix in="SourceAlpha" type="matrix" values="0 0 0 0 0 0 0 0 0 0 0 0 0 0 0 0 0 0 127 0" result="hardAlpha"/>
<feOffset dy="4"/>
<feGaussianBlur stdDeviation="2"/>
<feComposite in2="hardAlpha" operator="out"/>
<feColorMatrix type="matrix" values="0 0 0 0 0 0 0 0 0 0 0 0 0 0 0 0 0 0 0.25 0"/>
<feBlend mode="normal" in2="BackgroundImageFix" result="effect1_dropShadow_1_2"/>
<feBlend mode="normal" in="SourceGraphic" in2="effect1_dropShadow_1_2" result="shape"/>
</filter>
<filter id="filter1_d_1_2" x="1" y="0" width="132" height="293" filterUnits="userSpaceOnUse" color-interpolation-filters="sRGB">
<feFlood flood-opacity="0" result="BackgroundImageFix"/>
<feColorMatrix in="SourceAlpha" type="matrix" values="0 0 0 0 0 0 0 0 0 0 0 0 0 0 0 0 0 0 127 0" result="hardAlpha"/>
<feMorphology radius="17" operator="erode" in="SourceAlpha" result="effect1_dropShadow_1_2"/>
<feOffset dy="24"/>
<feGaussianBlur stdDeviation="10"/>
<feColorMatrix type="matrix" values="0 0 0 0 0 0 0 0 0 0.72549 0 0 0 0 0.894118 0 0 0 1 0"/>
<feBlend mode="normal" in2="BackgroundImageFix" result="effect1_dropShadow_1_2"/>
<feBlend mode="normal" in="SourceGraphic" in2="effect1_dropShadow_1_2" result="shape"/>
</filter>
</defs>
</svg>
