<svg xmlns="http://www.w3.org/2000/svg" xmlns:xlink="http://www.w3.org/1999/xlink" version="1.1" width="1000" height="1000" viewBox="0 0 1000 1000" xml:space="preserve">
<desc>Created with Fabric.js 3.5.0</desc>
<defs>
</defs>
<rect x="0" y="0" width="100%" height="100%" fill="#ffffff"/>
<g transform="matrix(1 0 0 1 500 500)" id="986439">
<path style="stroke: none; stroke-width: 1; stroke-dasharray: none; stroke-linecap: butt; stroke-dashoffset: 0; stroke-linejoin: miter; stroke-miterlimit: 4; is-custom-font: none; font-file-url: none; fill: rgb(0,0,0); fill-rule: nonzero; opacity: 1;" vector-effect="non-scaling-stroke" transform=" translate(-12, -12)" d="M 8 13 h 8 V 11 H 8 Z M 8 9 h 8 V 7 H 8 Z m 5 8 h 3 V 15 H 13 Z M 19.11 2 a 3.06 3.06 0 0 0 -1.75 0.57 a 1 1 0 0 1 -1.25 0 a 3 3 0 0 0 -3.5 0 A 1.14 1.14 0 0 1 12 2.8 a 1.06 1.06 0 0 1 -0.6 -0.22 A 3 3 0 0 0 9.64 2 a 3 3 0 0 0 -1.75 0.57 a 1 1 0 0 1 -1.25 0 A 3.06 3.06 0 0 0 4.89 2 H 4 V 22 h 0.89 a 3.06 3.06 0 0 0 1.75 -0.57 a 1 1 0 0 1 1.25 0 a 3 3 0 0 0 3.5 0 A 1.14 1.14 0 0 1 12 21.2 a 1.06 1.06 0 0 1 0.6 0.22 a 3 3 0 0 0 1.74 0.58 a 3 3 0 0 0 1.75 -0.57 a 1 1 0 0 1 1.25 0 a 3.06 3.06 0 0 0 1.75 0.57 H 20 V 2 Z M 18 19.5 a 3 3 0 0 0 -3 0.28 a 1.09 1.09 0 0 1 -0.62 0.22 a 1 1 0 0 1 -0.6 -0.22 A 3 3 0 0 0 12 19.2 a 3.11 3.11 0 0 0 -1.76 0.58 a 1 1 0 0 1 -1.24 0 a 3 3 0 0 0 -3 -0.28 V 4.5 a 3 3 0 0 0 1.26 0.3 A 3.11 3.11 0 0 0 9 4.22 A 1.09 1.09 0 0 1 9.64 4 a 1 1 0 0 1 0.6 0.22 A 3 3 0 0 0 12 4.8 a 3.11 3.11 0 0 0 1.76 -0.58 a 1 1 0 0 1 1.24 0 a 3.11 3.11 0 0 0 1.76 0.58 A 3 3 0 0 0 18 4.5 Z" stroke-linecap="round"/>
</g>
</svg>