<svg xmlns="http://www.w3.org/2000/svg" xmlns:xlink="http://www.w3.org/1999/xlink" version="1.1" width="1000" height="1000" viewBox="0 0 1000 1000" xml:space="preserve">
<desc>Created with Fabric.js 3.5.0</desc>
<defs>
</defs>
<rect x="0" y="0" width="100%" height="100%" fill="#ffffff"/>
<g transform="matrix(5.9418 0 0 5.9418 500.0019 419.788)" id="672807">
<rect style="stroke: none; stroke-width: 1; stroke-dasharray: none; stroke-linecap: butt; stroke-dashoffset: 0; stroke-linejoin: miter; stroke-miterlimit: 4; is-custom-font: none; font-file-url: none; fill: rgb(255,255,255); fill-rule: nonzero; opacity: 1;" x="-63" y="-63" rx="40" ry="40" width="126" height="126"/>
</g>
<g transform="matrix(5.9418 0 0 5.9418 505.9427 407.9038)" id="282584">
<path style="stroke: rgb(18,18,18); stroke-width: 3.8; stroke-dasharray: none; stroke-linecap: round; stroke-dashoffset: 0; stroke-linejoin: round; stroke-miterlimit: 10; is-custom-font: none; font-file-url: none; fill: none; fill-rule: nonzero; opacity: 1;" transform=" translate(-67, -61)" d="M 99 101 H 35 V 21 H 80.283 L 99 39.717 V 101 Z" stroke-linecap="round"/>
</g>
<g transform="matrix(5.9418 0 0 5.9418 640.4727 225.8382)" id="155257">
<path style="stroke: rgb(18,18,18); stroke-width: 3.8; stroke-dasharray: none; stroke-linecap: round; stroke-dashoffset: 0; stroke-linejoin: round; stroke-miterlimit: 10; is-custom-font: none; font-file-url: none; fill: rgb(18,18,18); fill-rule: nonzero; opacity: 1;" transform=" translate(-89.6415, -30.3585)" d="M 80.283 39.717 H 99 L 80.283 21 V 39.717 Z" stroke-linecap="round"/>
</g>
<g transform="matrix(5.9418 0 0 5.9418 405.4925 412.3867)" id="522428">
<path style="stroke: rgb(18,18,18); stroke-width: 3.8; stroke-dasharray: none; stroke-linecap: round; stroke-dashoffset: 0; stroke-linejoin: round; stroke-miterlimit: 10; is-custom-font: none; font-file-url: none; fill: none; fill-rule: nonzero; opacity: 1;" transform=" translate(-50.0943, -61.7546)" d="M 50.0944 65.3773 C 52.0951 65.3773 53.717 63.7554 53.717 61.7547 C 53.717 59.754 52.0951 58.132 50.0944 58.132 C 48.0937 58.132 46.4717 59.754 46.4717 61.7547 C 46.4717 63.7554 48.0937 65.3773 50.0944 65.3773 Z" stroke-linecap="round"/>
</g>
<g transform="matrix(5.9418 0 0 5.9418 549.8891 412.3874)" id="661246">
<path style="stroke: rgb(18,18,18); stroke-width: 3.8; stroke-dasharray: none; stroke-linecap: round; stroke-dashoffset: 0; stroke-linejoin: round; stroke-miterlimit: 10; is-custom-font: none; font-file-url: none; fill: none; fill-rule: nonzero; opacity: 1;" transform=" translate(-74.3962, -61.7548)" d="M 60.6604 61.7548 H 88.1321" stroke-linecap="round"/>
</g>
<g transform="matrix(5.9418 0 0 5.9418 405.4925 489.5192)" id="87975">
<path style="stroke: rgb(18,18,18); stroke-width: 3.8; stroke-dasharray: none; stroke-linecap: round; stroke-dashoffset: 0; stroke-linejoin: round; stroke-miterlimit: 10; is-custom-font: none; font-file-url: none; fill: none; fill-rule: nonzero; opacity: 1;" transform=" translate(-50.0943, -74.7361)" d="M 50.0944 78.3587 C 52.0951 78.3587 53.717 76.7367 53.717 74.736 C 53.717 72.7353 52.0951 71.1134 50.0944 71.1134 C 48.0937 71.1134 46.4717 72.7353 46.4717 74.736 C 46.4717 76.7367 48.0937 78.3587 50.0944 78.3587 Z" stroke-linecap="round"/>
</g>
<g transform="matrix(5.9418 0 0 5.9418 549.8891 489.5188)" id="689615">
<path style="stroke: rgb(18,18,18); stroke-width: 3.8; stroke-dasharray: none; stroke-linecap: round; stroke-dashoffset: 0; stroke-linejoin: round; stroke-miterlimit: 10; is-custom-font: none; font-file-url: none; fill: none; fill-rule: nonzero; opacity: 1;" transform=" translate(-74.3962, -74.736)" d="M 60.6604 74.736 H 88.1321" stroke-linecap="round"/>
</g>
<g transform="matrix(5.9418 0 0 5.9418 405.4925 566.6487)" id="777100">
<path style="stroke: rgb(18,18,18); stroke-width: 3.8; stroke-dasharray: none; stroke-linecap: round; stroke-dashoffset: 0; stroke-linejoin: round; stroke-miterlimit: 10; is-custom-font: none; font-file-url: none; fill: none; fill-rule: nonzero; opacity: 1;" transform=" translate(-50.0943, -87.7169)" d="M 50.0944 91.3396 C 52.0951 91.3396 53.717 89.7177 53.717 87.717 C 53.717 85.7162 52.0951 84.0943 50.0944 84.0943 C 48.0937 84.0943 46.4717 85.7162 46.4717 87.717 C 46.4717 89.7177 48.0937 91.3396 50.0944 91.3396 Z" stroke-linecap="round"/>
</g>
<g transform="matrix(5.9418 0 0 5.9418 549.8891 566.6483)" id="309161">
<path style="stroke: rgb(18,18,18); stroke-width: 3.8; stroke-dasharray: none; stroke-linecap: round; stroke-dashoffset: 0; stroke-linejoin: round; stroke-miterlimit: 10; is-custom-font: none; font-file-url: none; fill: none; fill-rule: nonzero; opacity: 1;" transform=" translate(-74.3962, -87.7169)" d="M 60.6604 87.7169 H 88.1321" stroke-linecap="round"/>
</g>
<g transform="matrix(5.9418 0 0 5.9418 439.5734 285.9278)" id="360014">
<path style="stroke: rgb(18,18,18); stroke-width: 3.8; stroke-dasharray: none; stroke-linecap: round; stroke-dashoffset: 0; stroke-linejoin: round; stroke-miterlimit: 10; is-custom-font: none; font-file-url: none; fill: none; fill-rule: nonzero; opacity: 1;" transform=" translate(-55.8302, -40.4716)" d="M 50.0943 50.5848 V 30.3584 H 60.3585 C 63.3774 30.3584 65.7924 32.7735 65.7924 35.7923 C 65.7924 38.8112 63.3774 41.2263 60.3585 41.2263 H 45.8679" stroke-linecap="round"/>
</g>
<g transform="matrix(5.9418 0 0 5.9418 426.1203 325.0535)" id="418261">
<path style="stroke: rgb(18,18,18); stroke-width: 3.8; stroke-dasharray: none; stroke-linecap: round; stroke-dashoffset: 0; stroke-linejoin: round; stroke-miterlimit: 10; is-custom-font: none; font-file-url: none; fill: none; fill-rule: nonzero; opacity: 1;" transform=" translate(-53.566, -47.0565)" d="M 45.8679 47.0565 H 61.2641" stroke-linecap="round"/>
</g>
</svg>