<svg width="116" height="137" viewBox="0 0 116 137" fill="none" xmlns="http://www.w3.org/2000/svg">
<g filter="url(#filter0_d_1_2)">
<rect x="3" width="110" height="110" rx="40" fill="white"/>
<rect x="6.5" y="3.5" width="103" height="103" rx="36.5" stroke="#00B9E4" stroke-width="7"/>
</g>
<path d="M86.8095 88.1746H30.9365V18.3333H70.4693L86.8095 34.6735V88.1746Z" stroke="#121212" stroke-width="3.8" stroke-miterlimit="10" stroke-linecap="round" stroke-linejoin="round"/>
<path d="M70.4692 34.6735H86.8095L70.4692 18.3333V34.6735Z" fill="#121212" stroke="#121212" stroke-width="3.8" stroke-miterlimit="10" stroke-linecap="round" stroke-linejoin="round"/>
<path d="M44.1142 57.0754C45.8608 57.0754 47.2768 55.6595 47.2768 53.9128C47.2768 52.1661 45.8608 50.7502 44.1142 50.7502C42.3675 50.7502 40.9515 52.1661 40.9515 53.9128C40.9515 55.6595 42.3675 57.0754 44.1142 57.0754Z" stroke="#121212" stroke-width="3.8" stroke-miterlimit="10" stroke-linecap="round" stroke-linejoin="round"/>
<path d="M53.3384 53.9129H77.3217" stroke="#121212" stroke-width="3.8" stroke-miterlimit="10" stroke-linecap="round" stroke-linejoin="round"/>
<path d="M44.1142 68.4083C45.8608 68.4083 47.2768 66.9924 47.2768 65.2457C47.2768 63.4991 45.8608 62.0831 44.1142 62.0831C42.3675 62.0831 40.9515 63.4991 40.9515 65.2457C40.9515 66.9924 42.3675 68.4083 44.1142 68.4083Z" stroke="#121212" stroke-width="3.8" stroke-miterlimit="10" stroke-linecap="round" stroke-linejoin="round"/>
<path d="M53.3384 65.2458H77.3217" stroke="#121212" stroke-width="3.8" stroke-miterlimit="10" stroke-linecap="round" stroke-linejoin="round"/>
<path d="M44.1142 79.741C45.8608 79.741 47.2768 78.325 47.2768 76.5783C47.2768 74.8317 45.8608 73.4157 44.1142 73.4157C42.3675 73.4157 40.9515 74.8317 40.9515 76.5783C40.9515 78.325 42.3675 79.741 44.1142 79.741Z" stroke="#121212" stroke-width="3.8" stroke-miterlimit="10" stroke-linecap="round" stroke-linejoin="round"/>
<path d="M53.3384 76.5783H77.3217" stroke="#121212" stroke-width="3.8" stroke-miterlimit="10" stroke-linecap="round" stroke-linejoin="round"/>
<path d="M44.1141 44.1613V26.5034H53.0749C55.7104 26.5034 57.8188 28.6118 57.8188 31.2473C57.8188 33.8828 55.7104 35.9912 53.0749 35.9912H40.4244" stroke="#121212" stroke-width="3.8" stroke-miterlimit="10" stroke-linecap="round" stroke-linejoin="round"/>
<path d="M40.4244 41.0811H53.8655" stroke="#121212" stroke-width="3.8" stroke-miterlimit="10" stroke-linecap="round" stroke-linejoin="round"/>
<defs>
<filter id="filter0_d_1_2" x="0" y="0" width="116" height="137" filterUnits="userSpaceOnUse" color-interpolation-filters="sRGB">
<feFlood flood-opacity="0" result="BackgroundImageFix"/>
<feColorMatrix in="SourceAlpha" type="matrix" values="0 0 0 0 0 0 0 0 0 0 0 0 0 0 0 0 0 0 127 0" result="hardAlpha"/>
<feMorphology radius="17" operator="erode" in="SourceAlpha" result="effect1_dropShadow_1_2"/>
<feOffset dy="24"/>
<feGaussianBlur stdDeviation="10"/>
<feColorMatrix type="matrix" values="0 0 0 0 0 0 0 0 0 0.72549 0 0 0 0 0.894118 0 0 0 1 0"/>
<feBlend mode="normal" in2="BackgroundImageFix" result="effect1_dropShadow_1_2"/>
<feBlend mode="normal" in="SourceGraphic" in2="effect1_dropShadow_1_2" result="shape"/>
</filter>
</defs>
</svg>
