<svg width="800" height="636" viewBox="0 0 800 636" fill="none" xmlns="http://www.w3.org/2000/svg">
<rect x="1" y="1" width="798" height="633.219" rx="39" fill="url(#paint0_linear_8_97)" stroke="url(#paint1_linear_8_97)" stroke-width="2"/>
<circle cx="400.427" cy="179.296" r="128.068" fill="white"/>
<circle cx="400.427" cy="179.296" r="110.993" fill="#00B9E4"/>
<path d="M370.105 176.404V151.179L396.208 128.503H419.587V256.648H396.208V153.728L370.105 176.404Z" fill="white"/>
<path fill-rule="evenodd" clip-rule="evenodd" d="M254.898 228.815L76.1046 228.815C59.536 228.815 46.1046 242.247 46.1046 258.815V545.454C46.1046 562.022 59.536 575.454 76.1046 575.454H724.749C741.318 575.454 754.749 562.022 754.749 545.454V258.815C754.749 242.247 741.318 228.815 724.749 228.815L545.956 228.815C525.349 289.395 467.977 332.978 400.427 332.978C332.876 332.978 275.505 289.395 254.898 228.815Z" fill="#00B9E4"/>
<path d="M565.379 400.109L568.538 389.352C568.965 387.9 568.367 385.851 567.257 384.827L561.366 379.704C560.171 378.679 558.036 378.253 556.585 378.679L511.846 392.682C510.395 393.108 509.2 394.816 509.2 396.353V400.024C509.2 401.561 510.48 402.842 512.017 402.842H561.793C563.33 402.842 564.952 401.561 565.379 400.109Z" fill="#1E1E1E"/>
<path d="M652.807 475.584L641.537 464.4L641.025 464.912C642.049 463.802 642.049 462.095 640.939 460.985L639.915 459.96C639.744 459.789 639.488 459.619 639.317 459.533C639.658 459.192 639.829 459.021 639.829 459.021C641.366 457.484 641.537 453.984 639.658 452.361L589.883 409.928C581.686 403.098 581.515 400.109 581.089 395.755C580.662 391.486 580.747 390.462 581.003 386.705C581.259 382.948 580.747 380.899 576.99 376.886C573.234 372.874 573.917 373.13 569.648 369.8C565.379 366.556 558.805 366.556 552.487 368.263C546.169 370.056 501.174 383.631 501.174 383.631C501.174 383.631 501.174 385.851 501.174 389.523H495.454H493.234V391.828V393.706H488.709V388.413C488.709 387.217 487.769 386.278 486.574 386.278H278.335C277.14 386.278 275.347 386.705 274.322 387.217L268.175 390.206C267.15 390.718 266.297 392.084 266.297 393.194V401.049C266.297 402.244 267.15 403.61 268.175 404.122L274.408 407.452C275.432 407.964 277.225 408.477 278.335 408.477H486.574C487.769 408.477 488.709 407.537 488.709 406.342V401.219H493.234V405.318H495.454H501.174C501.174 409.074 501.174 413.087 501.174 417.271C501.174 428.626 505.614 435.712 508.431 439.128L561.281 502.479C572.38 515.286 587.577 511.785 593.127 506.748C596.371 503.845 611.398 488.306 623.607 475.755C623.693 475.841 623.778 475.926 623.863 476.011L624.888 477.036C625.998 478.146 627.705 478.146 628.815 477.121L628.303 477.634L639.573 488.818L641.622 490.867L654.941 477.548L652.807 475.584ZM480.085 406.171H281.58C279.274 406.171 277.396 405.83 277.396 405.318C277.396 404.805 279.274 404.464 281.58 404.464H480.085C482.391 404.464 484.269 404.805 484.269 405.318C484.269 405.83 482.391 406.171 480.085 406.171ZM480.085 400.963H281.58C279.274 400.963 277.396 399.341 277.396 397.463C277.396 395.584 279.274 393.962 281.58 393.962H480.085C482.391 393.962 484.269 395.499 484.269 397.463C484.269 399.426 482.391 400.963 480.085 400.963ZM480.085 390.376H281.58C279.274 390.376 277.396 390.035 277.396 389.523C277.396 389.01 279.274 388.669 281.58 388.669H480.085C482.391 388.669 484.269 389.01 484.269 389.523C484.269 390.035 482.391 390.376 480.085 390.376ZM501.174 395.755H495.454V391.828H501.174C501.174 393.023 501.174 394.389 501.174 395.755ZM505.272 403.269V393.365C505.272 391.401 506.809 389.181 508.773 388.583L556.585 373.813C558.463 373.215 561.281 373.727 562.818 375.093L571.355 382.692C572.892 384.058 573.661 386.705 573.063 388.583L568.794 403.439C568.282 405.403 566.147 406.94 564.184 406.94H508.858C506.894 406.94 505.272 405.318 505.272 403.269ZM606.617 483.952L588.09 502.479C582.625 507.943 574.088 507.601 569.05 501.71L523.629 448.092C518.677 442.201 519.872 434.005 526.446 429.907L543.18 419.405C549.755 415.307 559.488 416.417 564.952 421.966L606.617 464.229C612.166 469.523 612.081 478.487 606.617 483.952ZM644.61 483.695L633.34 472.511L639.402 466.449L650.672 477.634L644.61 483.695Z" fill="#1E1E1E"/>
<path d="M189.968 391.145V389.523H188.517H185.955V390.035C185.955 388.925 185.101 387.815 184.077 387.388L180.406 386.107C179.381 385.766 177.673 385.424 176.563 385.339L149.669 384.144C149.413 383.375 148.73 382.778 147.876 382.778C146.852 382.778 145.998 383.631 145.998 384.741V385.937V408.904V410.099C145.998 411.209 146.852 412.063 147.876 412.063C148.73 412.063 149.413 411.465 149.669 410.696L176.734 409.501C177.844 409.416 179.552 409.16 180.576 408.733L184.248 407.452C185.272 407.111 186.126 405.915 186.126 404.805V405.318H188.687H190.139V401.219H263.565V393.621H190.139V391.145H189.968ZM186.041 399.768V391.145H188.602V399.768H186.041Z" fill="#1E1E1E"/>
<path d="M480.085 395.67H281.58C280.299 395.67 279.189 396.524 279.189 397.463C279.189 398.402 280.299 399.256 281.58 399.256H480.085C481.366 399.256 482.476 398.402 482.476 397.463C482.476 396.438 481.366 395.67 480.085 395.67Z" fill="#1E1E1E"/>
<path d="M561.281 432.383C557.097 425.382 552.914 421.625 543.01 421.71L529.605 430.163C530.715 430.504 532.081 430.675 533.703 430.419C549.498 427.687 551.291 430.761 554.621 436.31C559.915 445.275 583.052 484.72 584.504 487.367C584.76 488.135 584.589 490.611 584.162 492.489C583.65 494.539 584.931 496.588 587.065 497.1C587.321 497.185 587.663 497.185 587.919 497.185C589.626 497.185 591.249 495.99 591.676 494.197C592.017 492.575 593.127 487.111 591.334 483.695C589.968 481.219 566.745 441.604 561.281 432.383Z" fill="#1E1E1E"/>
<defs>
<linearGradient id="paint0_linear_8_97" x1="400" y1="0" x2="400" y2="635.219" gradientUnits="userSpaceOnUse">
<stop stop-color="#50565B"/>
<stop offset="1" stop-color="#252525"/>
</linearGradient>
<linearGradient id="paint1_linear_8_97" x1="400" y1="0" x2="400" y2="635.219" gradientUnits="userSpaceOnUse">
<stop stop-color="#E8E8E8"/>
<stop offset="1" stop-color="#2E2E2E"/>
</linearGradient>
</defs>
</svg>
