<svg width="802" height="636" viewBox="0 0 802 636" fill="none" xmlns="http://www.w3.org/2000/svg">
<rect x="1.50806" y="1" width="798.984" height="634" rx="39" fill="url(#paint0_linear_1_38)" stroke="url(#paint1_linear_1_38)" stroke-width="2"/>
<circle cx="401.427" cy="179.516" r="128.226" fill="white"/>
<circle cx="401.427" cy="179.516" r="111.129" fill="#00B9E4"/>
<path d="M371.105 176.514V151.289L397.209 128.614H420.588V256.758H397.209V153.838L371.105 176.514Z" fill="white"/>
<path fill-rule="evenodd" clip-rule="evenodd" d="M255.719 229.097H76.6693C60.1008 229.097 46.6693 242.528 46.6693 259.097V546.161C46.6693 562.73 60.1008 576.161 76.6693 576.161H726.185C742.754 576.161 756.185 562.73 756.185 546.161V259.097C756.185 242.528 742.754 229.097 726.185 229.097L547.136 229.097C526.503 289.751 469.061 333.387 401.427 333.387C333.794 333.387 276.352 289.751 255.719 229.097Z" fill="#00B9E4"/>
<path d="M566.582 400.602L569.745 389.831C570.173 388.377 569.574 386.326 568.463 385.3L562.564 380.171C561.368 379.145 559.231 378.718 557.777 379.145L512.984 393.164C511.531 393.592 510.334 395.302 510.334 396.84V400.516C510.334 402.055 511.616 403.337 513.155 403.337H562.992C564.531 403.337 566.155 402.055 566.582 400.602Z" fill="#1E1E1E"/>
<path d="M654.118 476.169L642.834 464.971L642.321 465.484C643.347 464.373 643.347 462.663 642.235 461.552L641.21 460.526C641.039 460.355 640.782 460.184 640.611 460.098C640.953 459.756 641.124 459.585 641.124 459.585C642.663 458.047 642.834 454.542 640.953 452.918L591.116 410.432C582.91 403.593 582.739 400.602 582.311 396.242C581.884 391.968 581.969 390.942 582.226 387.181C582.482 383.419 581.969 381.368 578.208 377.35C574.447 373.332 575.131 373.589 570.856 370.255C566.582 367.006 560 367.006 553.674 368.716C547.348 370.511 502.298 384.103 502.298 384.103C502.298 384.103 502.298 386.326 502.298 390.002H496.571H494.348V392.31V394.19H489.818V388.89C489.818 387.693 488.877 386.753 487.681 386.753H279.185C277.989 386.753 276.193 387.181 275.168 387.693L269.013 390.685C267.987 391.198 267.132 392.566 267.132 393.677V401.542C267.132 402.739 267.987 404.106 269.013 404.619L275.253 407.953C276.279 408.466 278.074 408.979 279.185 408.979H487.681C488.877 408.979 489.818 408.039 489.818 406.842V401.713H494.348V405.816H496.571H502.298C502.298 409.577 502.298 413.595 502.298 417.784C502.298 429.153 506.743 436.248 509.564 439.668L562.479 503.097C573.592 515.919 588.808 512.414 594.364 507.371C597.613 504.464 612.658 488.906 624.882 476.34C624.968 476.426 625.053 476.511 625.139 476.597L626.164 477.623C627.276 478.734 628.985 478.734 630.097 477.708L629.584 478.221L640.868 489.419L642.919 491.471L656.255 478.135L654.118 476.169ZM481.184 406.671H282.434C280.126 406.671 278.245 406.329 278.245 405.816C278.245 405.303 280.126 404.961 282.434 404.961H481.184C483.492 404.961 485.373 405.303 485.373 405.816C485.373 406.329 483.492 406.671 481.184 406.671ZM481.184 401.456H282.434C280.126 401.456 278.245 399.832 278.245 397.952C278.245 396.071 280.126 394.447 282.434 394.447H481.184C483.492 394.447 485.373 395.985 485.373 397.952C485.373 399.918 483.492 401.456 481.184 401.456ZM481.184 390.856H282.434C280.126 390.856 278.245 390.514 278.245 390.002C278.245 389.489 280.126 389.147 282.434 389.147H481.184C483.492 389.147 485.373 389.489 485.373 390.002C485.373 390.514 483.492 390.856 481.184 390.856ZM502.298 396.242H496.571V392.31H502.298C502.298 393.506 502.298 394.874 502.298 396.242ZM506.402 403.764V393.848C506.402 391.882 507.94 389.66 509.906 389.061L557.777 374.273C559.658 373.674 562.479 374.187 564.018 375.555L572.566 383.163C574.105 384.531 574.874 387.181 574.276 389.061L570.002 403.935C569.489 405.902 567.352 407.44 565.385 407.44H509.992C508.026 407.44 506.402 405.816 506.402 403.764ZM607.871 484.547L589.321 503.097C583.85 508.568 575.302 508.226 570.258 502.327L524.781 448.643C519.823 442.745 521.019 434.539 527.602 430.435L544.356 419.921C550.939 415.818 560.684 416.929 566.155 422.485L607.871 464.8C613.427 470.1 613.342 479.076 607.871 484.547ZM645.911 484.29L634.627 473.092L640.697 467.023L651.981 478.221L645.911 484.29Z" fill="#1E1E1E"/>
<path d="M190.71 391.626V390.002H189.256H186.692V390.514C186.692 389.403 185.837 388.292 184.811 387.864L181.135 386.582C180.11 386.24 178.4 385.898 177.289 385.813L150.361 384.616C150.105 383.847 149.421 383.248 148.566 383.248C147.54 383.248 146.685 384.103 146.685 385.214V386.411V409.406V410.603C146.685 411.714 147.54 412.569 148.566 412.569C149.421 412.569 150.105 411.971 150.361 411.202L177.46 410.005C178.571 409.919 180.281 409.663 181.306 409.235L184.982 407.953C186.008 407.611 186.863 406.414 186.863 405.303V405.816H189.427H190.881V401.713H264.397V394.105H190.881V391.626H190.71ZM186.777 400.26V391.626H189.342V400.26H186.777Z" fill="#1E1E1E"/>
<path d="M481.184 396.156H282.434C281.152 396.156 280.04 397.011 280.04 397.952C280.04 398.892 281.152 399.747 282.434 399.747H481.184C482.466 399.747 483.577 398.892 483.577 397.952C483.577 396.926 482.466 396.156 481.184 396.156Z" fill="#1E1E1E"/>
<path d="M562.479 432.914C558.29 425.905 554.102 422.144 544.185 422.229L530.764 430.692C531.876 431.034 533.243 431.205 534.868 430.948C550.682 428.213 552.477 431.29 555.811 436.847C561.111 445.823 584.277 485.316 585.731 487.966C585.987 488.735 585.816 491.214 585.389 493.095C584.876 495.147 586.158 497.198 588.295 497.711C588.552 497.797 588.893 497.797 589.15 497.797C590.86 497.797 592.484 496.6 592.911 494.805C593.253 493.181 594.364 487.71 592.569 484.29C591.202 481.811 567.95 442.147 562.479 432.914Z" fill="#1E1E1E"/>
<defs>
<linearGradient id="paint0_linear_1_38" x1="401" y1="0" x2="401" y2="636" gradientUnits="userSpaceOnUse">
<stop stop-color="#50565B"/>
<stop offset="1" stop-color="#252525"/>
</linearGradient>
<linearGradient id="paint1_linear_1_38" x1="401" y1="0" x2="401" y2="636" gradientUnits="userSpaceOnUse">
<stop stop-color="#E8E8E8"/>
<stop offset="1" stop-color="#2E2E2E"/>
</linearGradient>
</defs>
</svg>
