<svg width="937" height="744" viewBox="0 0 937 744" fill="none" xmlns="http://www.w3.org/2000/svg">
<rect x="1" y="1" width="935" height="742" rx="39" fill="url(#paint0_linear_1_20)" stroke="url(#paint1_linear_1_20)" stroke-width="2"/>
<circle cx="469" cy="210" r="150" fill="white"/>
<circle cx="469" cy="210" r="130" fill="#00B9E4"/>
<path fill-rule="evenodd" clip-rule="evenodd" d="M298.549 268L84 268C67.4315 268 54 281.431 54 298V644C54 660.569 67.4314 674 84 674H854C870.569 674 884 660.569 884 644V298C884 281.431 870.569 268 854 268L639.451 268C615.315 338.954 548.118 390 469 390C389.882 390 322.685 338.954 298.549 268Z" fill="#00B9E4"/>
<path d="M662.2 468.628L665.9 456.028C666.4 454.328 665.7 451.928 664.4 450.728L657.5 444.728C656.1 443.528 653.6 443.028 651.9 443.528L599.5 459.928C597.8 460.428 596.4 462.428 596.4 464.228V468.528C596.4 470.328 597.9 471.828 599.7 471.828H658C659.8 471.828 661.7 470.328 662.2 468.628Z" fill="#1E1E1E"/>
<path d="M764.6 557.028L751.4 543.928L750.8 544.528C752 543.228 752 541.228 750.7 539.928L749.5 538.728C749.3 538.528 749 538.328 748.8 538.228C749.2 537.828 749.4 537.628 749.4 537.628C751.2 535.828 751.4 531.728 749.2 529.828L690.9 480.128C681.3 472.128 681.1 468.628 680.6 463.528C680.1 458.528 680.2 457.328 680.5 452.928C680.8 448.528 680.2 446.128 675.8 441.428C671.4 436.728 672.2 437.028 667.2 433.128C662.2 429.328 654.5 429.328 647.1 431.328C639.7 433.428 587 449.328 587 449.328C587 449.328 587 451.928 587 456.228H580.3H577.7V458.928V461.128H572.4V454.928C572.4 453.528 571.3 452.428 569.9 452.428H326C324.6 452.428 322.5 452.928 321.3 453.528L314.1 457.028C312.9 457.628 311.9 459.228 311.9 460.528V469.728C311.9 471.128 312.9 472.728 314.1 473.328L321.4 477.228C322.6 477.828 324.7 478.428 326 478.428H569.9C571.3 478.428 572.4 477.328 572.4 475.928V469.928H577.7V474.728H580.3H587C587 479.128 587 483.828 587 488.728C587 502.028 592.2 510.328 595.5 514.328L657.4 588.528C670.4 603.528 688.2 599.428 694.7 593.528C698.5 590.128 716.1 571.928 730.4 557.228C730.5 557.328 730.6 557.428 730.7 557.528L731.9 558.728C733.2 560.028 735.2 560.028 736.5 558.828L735.9 559.428L749.1 572.528L751.5 574.928L767.1 559.328L764.6 557.028ZM562.3 475.728H329.8C327.1 475.728 324.9 475.328 324.9 474.728C324.9 474.128 327.1 473.728 329.8 473.728H562.3C565 473.728 567.2 474.128 567.2 474.728C567.2 475.328 565 475.728 562.3 475.728ZM562.3 469.628H329.8C327.1 469.628 324.9 467.728 324.9 465.528C324.9 463.328 327.1 461.428 329.8 461.428H562.3C565 461.428 567.2 463.228 567.2 465.528C567.2 467.828 565 469.628 562.3 469.628ZM562.3 457.228H329.8C327.1 457.228 324.9 456.828 324.9 456.228C324.9 455.628 327.1 455.228 329.8 455.228H562.3C565 455.228 567.2 455.628 567.2 456.228C567.2 456.828 565 457.228 562.3 457.228ZM587 463.528H580.3V458.928H587C587 460.328 587 461.928 587 463.528ZM591.8 472.328V460.728C591.8 458.428 593.6 455.828 595.9 455.128L651.9 437.828C654.1 437.128 657.4 437.728 659.2 439.328L669.2 448.228C671 449.828 671.9 452.928 671.2 455.128L666.2 472.528C665.6 474.828 663.1 476.628 660.8 476.628H596C593.7 476.628 591.8 474.728 591.8 472.328ZM710.5 566.828L688.8 588.528C682.4 594.928 672.4 594.528 666.5 587.628L613.3 524.828C607.5 517.928 608.9 508.328 616.6 503.528L636.2 491.228C643.9 486.428 655.3 487.728 661.7 494.228L710.5 543.728C717 549.928 716.9 560.428 710.5 566.828ZM755 566.528L741.8 553.428L748.9 546.328L762.1 559.428L755 566.528Z" fill="#1E1E1E"/>
<path d="M222.5 458.128V456.228H220.8H217.8V456.828C217.8 455.528 216.8 454.228 215.6 453.728L211.3 452.228C210.1 451.828 208.1 451.428 206.8 451.328L175.3 449.928C175 449.028 174.2 448.328 173.2 448.328C172 448.328 171 449.328 171 450.628V452.028V478.928V480.328C171 481.628 172 482.628 173.2 482.628C174.2 482.628 175 481.928 175.3 481.028L207 479.628C208.3 479.528 210.3 479.228 211.5 478.728L215.8 477.228C217 476.828 218 475.428 218 474.128V474.728H221H222.7V469.928H308.7V461.028H222.7V458.128H222.5ZM217.9 468.228V458.128H220.9V468.228H217.9Z" fill="#1E1E1E"/>
<path d="M562.3 463.428H329.8C328.3 463.428 327 464.428 327 465.528C327 466.628 328.3 467.628 329.8 467.628H562.3C563.8 467.628 565.1 466.628 565.1 465.528C565.1 464.328 563.8 463.428 562.3 463.428Z" fill="#1E1E1E"/>
<path d="M657.4 506.428C652.5 498.228 647.6 493.828 636 493.928L620.3 503.828C621.6 504.228 623.2 504.428 625.1 504.128C643.6 500.928 645.7 504.528 649.6 511.028C655.8 521.528 682.9 567.728 684.6 570.828C684.9 571.728 684.7 574.628 684.2 576.828C683.6 579.228 685.1 581.628 687.6 582.228C687.9 582.328 688.3 582.328 688.6 582.328C690.6 582.328 692.5 580.928 693 578.828C693.4 576.928 694.7 570.528 692.6 566.528C691 563.628 663.8 517.228 657.4 506.428Z" fill="#1E1E1E"/>
<defs>
<linearGradient id="paint0_linear_1_20" x1="468.5" y1="0" x2="468.5" y2="744" gradientUnits="userSpaceOnUse">
<stop stop-color="#50565B"/>
<stop offset="1" stop-color="#252525"/>
</linearGradient>
<linearGradient id="paint1_linear_1_20" x1="468.5" y1="0" x2="468.5" y2="744" gradientUnits="userSpaceOnUse">
<stop stop-color="#E8E8E8"/>
<stop offset="1" stop-color="#2E2E2E"/>
</linearGradient>
</defs>
</svg>
