<svg width="937" height="744" viewBox="0 0 937 744" fill="none" xmlns="http://www.w3.org/2000/svg">
<path d="M897 1H40C18.4609 1 1 18.4609 1 40V704C1 725.539 18.4609 743 40 743H897C918.539 743 936 725.539 936 704V40C936 18.4609 918.539 1 897 1Z" fill="url(#paint0_linear_2_49)" stroke="url(#paint1_linear_2_49)" stroke-width="2"/>
<path d="M469 360C551.843 360 619 292.843 619 210C619 127.157 551.843 60 469 60C386.157 60 319 127.157 319 210C319 292.843 386.157 360 469 360Z" fill="white"/>
<path d="M469 340C540.797 340 599 281.797 599 210C599 138.203 540.797 80 469 80C397.203 80 339 138.203 339 210C339 281.797 397.203 340 469 340Z" fill="#7FE409"/>
<path fill-rule="evenodd" clip-rule="evenodd" d="M298.549 268H84C67.4315 268 54 281.431 54 298V644C54 660.569 67.4314 674 84 674H854C870.569 674 884 660.569 884 644V298C884 281.431 870.569 268 854 268H639.451C615.315 338.954 548.118 390 469 390C389.882 390 322.685 338.954 298.549 268Z" fill="#7FE409"/>
<path d="M283.2 466.2H269.4V479.1H283.2V466.2Z" fill="#1E1E1E"/>
<path d="M202.7 459.1H198.5V402.3C198.5 397 194.2 392.7 188.9 392.7H177.3C182.6 392.7 186.9 397 186.9 402.3V543.1C186.9 548.4 182.6 552.7 177.3 552.7H188.8C194.1 552.7 198.4 548.4 198.4 543.1V486.3H202.6C205.6 486.3 208.1 483.8 208.1 480.8V464.6C208.1 461.5 205.7 459.1 202.7 459.1Z" fill="#1E1E1E"/>
<path d="M265.3 463.4L213.1 460.6C212 460.5 211.2 461.4 211.2 462.4V482.9C211.2 484 212.1 484.8 213.1 484.7L265.3 481.9C266.4 481.8 267.2 480.9 267.2 479.9V465.4C267.2 464.4 266.3 463.5 265.3 463.4Z" fill="#1E1E1E"/>
<path d="M181.6 542.9L127.4 556.9C128.5 555.8 129.6 554.6 130.5 553.3L182.6 540.7C182.8 539.9 183 539.1 183 538.2V538.1L132 550.4C132.4 549.4 132.8 548.4 133.1 547.4L182.9 536.2V533.7L133.7 544.8C133.8 543.9 133.9 542.9 133.9 542L182.9 531.7V529.2L133.9 539.5V536.7L182.9 527.2V524.7L133.9 534.2V531.4L182.9 522.7V520.2L133.9 528.9V526.1L182.9 518.2V515.7L133.9 523.6V521L182.9 513.9V511.5L133.9 518.6V515.8L182.9 509.5V507L133.9 513.3V510.5L182.9 505V502.6L133.9 508.1V505.3L182.9 500.6V498.2L133.9 502.9V500.1L182.9 496.1V493.7L133.9 497.7V494.9L182.9 491.7V489.3L133.9 492.5V489.7L182.9 487.3V484.9L133.9 487.3V484.5L182.9 482.9V480.5L133.9 482.1V479.3L182.9 478.5V476.1L133.9 476.9V474.1H182.9V471.7H133.9V468.9L182.9 469.7V467L133.9 466.2V463.4L182.9 465V462.6L133.9 461V458.2L182.9 460.6V458.2L133.9 455.8V453L182.9 456.2V453.8L133.9 450.6V447.8L182.9 451.7V449.3L133.9 445.4V442.6L182.9 447.3V444.9L133.9 440.2V437.4L182.9 442.9V440.5L133.9 435V432L182.9 438.3V435.9L133.9 429.6V426.8L182.9 433.9V431.5L133.9 424.4V421.6L182.9 429.5V427L133.9 419.1V416.3L182.9 425V422.5L133.9 413.8V411L182.9 420.5V418L133.9 408.5V405.7L182.9 416V413.5L133.9 403.2C133.9 402.3 133.8 401.3 133.7 400.4L182.9 411.5V409L133.1 397.9C132.8 396.9 132.4 395.8 132 394.9L182.9 407.2V407.1C182.9 406.2 182.8 405.4 182.5 404.6L130.4 392C129.5 390.7 128.5 389.5 127.3 388.4L181.6 402.4C180.6 400.8 179.1 399.5 177.4 398.8L131.1 386.9L120 384.1C117.9 383.4 115.8 383 113.5 383C102.2 383 93 392.3 93 403.6V541.8C93 553.1 102.2 562.4 113.5 562.4C115.9 562.4 118.2 562 120.3 561.2L177.5 546.5C179.2 545.7 180.6 544.5 181.6 542.9ZM131 542.9C131 543.7 130.4 544.4 129.5 544.4C128.7 544.4 128 543.7 128 542.9V542.8V542.7C128 541.9 128.7 541.2 129.5 541.2C130.3 541.2 131 541.9 131 542.7V542.8V542.9ZM129.6 538.3C128.8 538.3 128.1 537.6 128.1 536.8C128.1 536 128.8 535.3 129.6 535.3C130.4 535.3 131.1 536 131.1 536.8C131 537.7 130.4 538.3 129.6 538.3ZM129.6 532.5C128.8 532.5 128.1 531.8 128.1 531C128.1 530.2 128.8 529.5 129.6 529.5C130.4 529.5 131.1 530.2 131.1 531C131 531.9 130.4 532.5 129.6 532.5ZM129.6 526.7C128.8 526.7 128.1 526.1 128.1 525.2C128.1 524.4 128.8 523.7 129.6 523.7C130.4 523.7 131.1 524.4 131.1 525.2C131 526.1 130.4 526.7 129.6 526.7ZM129.6 520.9C128.8 520.9 128.1 520.3 128.1 519.4C128.1 518.6 128.8 517.9 129.6 517.9C130.4 517.9 131.1 518.6 131.1 519.4C131 520.3 130.4 520.9 129.6 520.9ZM129.6 515.1C128.8 515.1 128.1 514.5 128.1 513.6C128.1 512.8 128.8 512.1 129.6 512.1C130.4 512.1 131.1 512.8 131.1 513.6C131 514.5 130.4 515.1 129.6 515.1ZM129.6 509.3C128.8 509.3 128.1 508.6 128.1 507.8C128.1 507 128.8 506.4 129.6 506.4C130.4 506.4 131.1 507 131.1 507.8C131 508.6 130.4 509.3 129.6 509.3ZM129.6 503.5C128.8 503.5 128.1 502.8 128.1 502C128.1 501.2 128.8 500.5 129.6 500.5C130.4 500.5 131.1 501.1 131.1 502C131 502.8 130.4 503.5 129.6 503.5ZM129.6 497.7C128.8 497.7 128.1 497 128.1 496.2C128.1 495.4 128.8 494.7 129.6 494.7C130.4 494.7 131.1 495.3 131.1 496.2C131 497 130.4 497.7 129.6 497.7ZM129.6 491.9C128.8 491.9 128.1 491.2 128.1 490.4C128.1 489.6 128.8 488.9 129.6 488.9C130.4 488.9 131.1 489.5 131.1 490.4C131 491.2 130.4 491.9 129.6 491.9ZM129.6 486.1C128.8 486.1 128.1 485.4 128.1 484.6C128.1 483.8 128.8 483.1 129.6 483.1C130.4 483.1 131.1 483.7 131.1 484.6C131 485.4 130.4 486.1 129.6 486.1ZM129.6 480.3C128.8 480.3 128.1 479.6 128.1 478.8C128.1 478 128.8 477.3 129.6 477.3C130.4 477.3 131.1 477.9 131.1 478.8C131 479.6 130.4 480.3 129.6 480.3ZM129.6 474.4C128.8 474.4 128.1 473.7 128.1 472.9C128.1 472.1 128.8 471.4 129.6 471.4C130.4 471.4 131.1 472 131.1 472.9C131 473.8 130.4 474.4 129.6 474.4ZM129.6 468.6C128.8 468.6 128.1 467.9 128.1 467.1C128.1 466.3 128.8 465.6 129.6 465.6C130.4 465.6 131.1 466.2 131.1 467.1C131 468 130.4 468.6 129.6 468.6ZM129.6 462.8C128.8 462.8 128.1 462.2 128.1 461.3C128.1 460.5 128.8 459.8 129.6 459.8C130.4 459.8 131.1 460.4 131.1 461.3C131 462.2 130.4 462.8 129.6 462.8ZM129.6 457C128.8 457 128.1 456.4 128.1 455.5C128.1 454.7 128.8 454 129.6 454C130.4 454 131.1 454.6 131.1 455.5C131 456.4 130.4 457 129.6 457ZM129.6 451.2C128.8 451.2 128.1 450.6 128.1 449.7C128.1 448.8 128.8 448.2 129.6 448.2C130.4 448.2 131.1 448.8 131.1 449.7C131.1 450.6 130.4 451.2 129.6 451.2ZM129.6 445.4C128.8 445.4 128.1 444.8 128.1 443.9C128.1 443.1 128.8 442.4 129.6 442.4C130.4 442.4 131.1 443 131.1 443.9C131 444.8 130.4 445.4 129.6 445.4ZM129.6 439.6C128.8 439.6 128.1 439 128.1 438.1C128.1 437.3 128.8 436.6 129.6 436.6C130.4 436.6 131.1 437.2 131.1 438.1C131 438.9 130.4 439.6 129.6 439.6ZM129.6 433.8C128.8 433.8 128.1 433.2 128.1 432.3C128.1 431.5 128.8 430.8 129.6 430.8C130.4 430.8 131.1 431.4 131.1 432.3C131 433.1 130.4 433.8 129.6 433.8ZM129.6 428C128.8 428 128.1 427.4 128.1 426.5C128.1 425.7 128.8 425 129.6 425C130.4 425 131.1 425.6 131.1 426.5C131 427.3 130.4 428 129.6 428ZM129.6 422.2C128.8 422.2 128.1 421.6 128.1 420.7C128.1 419.9 128.8 419.2 129.6 419.2C130.4 419.2 131.1 419.8 131.1 420.7C131 421.5 130.4 422.2 129.6 422.2ZM129.6 416.4C128.8 416.4 128.1 415.8 128.1 414.9C128.1 414.1 128.8 413.4 129.6 413.4C130.4 413.4 131.1 414 131.1 414.9C131 415.7 130.4 416.4 129.6 416.4ZM129.6 410.5C128.8 410.5 128.1 409.9 128.1 409C128.1 408.1 128.8 407.5 129.6 407.5C130.4 407.5 131.1 408.1 131.1 409C131.1 409.9 130.4 410.5 129.6 410.5ZM131 403.3C131 404.1 130.4 404.8 129.5 404.8C128.7 404.8 128 404.2 128 403.3C128 402.4 128.7 401.8 129.5 401.8C130.4 401.8 131 402.5 131 403.3ZM128.3 396.2C129.1 395.9 129.9 396.3 130.2 397.1C130.5 397.9 130.1 398.7 129.3 398.9C129.1 399 128.9 399 128.8 399C128.2 399 127.6 398.6 127.4 398C127.1 397.3 127.5 396.5 128.3 396.2ZM123.5 397.9C124.3 397.6 125.1 398 125.4 398.7C125.7 399.5 125.3 400.3 124.6 400.6C124.4 400.7 124.3 400.7 124.1 400.7C123.5 400.7 123 400.3 122.7 399.8C122.4 399 122.8 398.2 123.5 397.9ZM124.7 415.2C125.5 415.2 126.2 415.9 126.2 416.7C126.2 417.5 125.6 418.2 124.7 418.2C123.9 418.2 123.2 417.6 123.2 416.7C123.3 415.8 123.9 415.2 124.7 415.2ZM123.3 410.8C123.3 410 124 409.3 124.8 409.3C125.6 409.3 126.3 410 126.3 410.8C126.3 411.6 125.7 412.3 124.8 412.3C123.9 412.2 123.3 411.6 123.3 410.8ZM124.7 421C125.5 421 126.2 421.7 126.2 422.5C126.2 423.3 125.6 424 124.7 424C123.9 424 123.2 423.4 123.2 422.5C123.3 421.6 123.9 421 124.7 421ZM124.7 426.8C125.5 426.8 126.2 427.5 126.2 428.3C126.2 429.1 125.6 429.8 124.7 429.8C123.9 429.8 123.2 429.2 123.2 428.3C123.3 427.4 123.9 426.8 124.7 426.8ZM124.7 432.6C125.5 432.6 126.2 433.3 126.2 434.1C126.2 434.9 125.6 435.6 124.7 435.6C123.9 435.6 123.2 435 123.2 434.1C123.3 433.2 123.9 432.6 124.7 432.6ZM124.7 438.4C125.5 438.4 126.2 439.1 126.2 439.9C126.2 440.7 125.6 441.3 124.7 441.3C123.9 441.3 123.2 440.6 123.2 439.9C123.3 439 123.9 438.4 124.7 438.4ZM124.7 444.2C125.5 444.2 126.2 444.9 126.2 445.7C126.2 446.5 125.6 447.2 124.7 447.2C123.9 447.2 123.2 446.5 123.2 445.7C123.3 444.8 123.9 444.2 124.7 444.2ZM124.7 450C125.5 450 126.2 450.7 126.2 451.5C126.2 452.3 125.6 453 124.7 453C123.9 453 123.2 452.3 123.2 451.5C123.3 450.7 123.9 450 124.7 450ZM124.7 455.8C125.5 455.8 126.2 456.5 126.2 457.3C126.2 458.1 125.6 458.8 124.7 458.8C123.9 458.8 123.2 458.1 123.2 457.3C123.3 456.5 123.9 455.8 124.7 455.8ZM124.7 461.6C125.5 461.6 126.2 462.3 126.2 463.1C126.2 463.9 125.6 464.6 124.7 464.6C123.9 464.6 123.2 463.9 123.2 463.1C123.3 462.3 123.9 461.6 124.7 461.6ZM124.7 467.4C125.5 467.4 126.2 468 126.2 468.9C126.2 469.7 125.6 470.3 124.7 470.3C123.9 470.3 123.2 469.6 123.2 468.9C123.3 468.1 123.9 467.4 124.7 467.4ZM124.7 473.2C125.5 473.2 126.2 473.9 126.2 474.7C126.2 475.5 125.6 476.1 124.7 476.1C123.9 476.1 123.2 475.5 123.2 474.7C123.3 473.9 123.9 473.2 124.7 473.2ZM124.7 479C125.5 479 126.2 479.7 126.2 480.5C126.2 481.3 125.6 482 124.7 482C123.9 482 123.2 481.4 123.2 480.5C123.3 479.7 123.9 479 124.7 479ZM124.7 484.9C125.5 484.9 126.2 485.6 126.2 486.4C126.2 487.2 125.6 487.9 124.7 487.9C123.9 487.9 123.2 487.3 123.2 486.4C123.3 485.5 123.9 484.9 124.7 484.9ZM124.7 490.7C125.5 490.7 126.2 491.4 126.2 492.2C126.2 493 125.6 493.7 124.7 493.7C123.9 493.7 123.2 493.1 123.2 492.2C123.3 491.3 123.9 490.7 124.7 490.7ZM124.7 496.5C125.5 496.5 126.2 497.2 126.2 498C126.2 498.8 125.6 499.5 124.7 499.5C123.9 499.5 123.2 498.9 123.2 498C123.3 497.1 123.9 496.5 124.7 496.5ZM124.7 502.3C125.5 502.3 126.2 502.9 126.2 503.7C126.2 504.5 125.6 505.2 124.7 505.2C123.9 505.2 123.2 504.6 123.2 503.7C123.3 502.9 123.9 502.3 124.7 502.3ZM124.7 508.1C125.5 508.1 126.2 508.8 126.2 509.6C126.2 510.4 125.6 511.1 124.7 511.1C123.9 511.1 123.2 510.5 123.2 509.6C123.3 508.7 123.9 508.1 124.7 508.1ZM124.7 513.9C125.5 513.9 126.2 514.6 126.2 515.4C126.2 516.2 125.6 516.9 124.7 516.9C123.9 516.9 123.2 516.3 123.2 515.4C123.3 514.6 123.9 513.9 124.7 513.9ZM124.7 519.7C125.5 519.7 126.2 520.4 126.2 521.2C126.2 522 125.6 522.7 124.7 522.7C123.9 522.7 123.2 522.1 123.2 521.2C123.3 520.4 123.9 519.7 124.7 519.7ZM124.7 525.5C125.5 525.5 126.2 526.1 126.2 527C126.2 527.8 125.6 528.5 124.7 528.5C123.9 528.5 123.2 527.9 123.2 527C123.3 526.2 123.9 525.5 124.7 525.5ZM124.7 531.3C125.5 531.3 126.2 532 126.2 532.8C126.2 533.6 125.6 534.3 124.7 534.3C123.9 534.3 123.2 533.7 123.2 532.8C123.3 532 123.9 531.3 124.7 531.3ZM124.7 537.1C125.5 537.1 126.2 537.7 126.2 538.6C126.2 539.4 125.6 540.1 124.7 540.1C123.9 540.1 123.2 539.5 123.2 538.6C123.3 537.8 123.9 537.1 124.7 537.1ZM124.7 540.7C125.5 540.7 126.2 541.4 126.2 542.2C126.2 543 125.5 543.7 124.7 543.7C123.9 543.7 123.2 543.1 123.2 542.2C123.3 541.4 123.9 540.7 124.7 540.7ZM124.7 406.4C123.9 406.4 123.2 405.7 123.2 404.9C123.2 404.1 123.9 403.4 124.7 403.4C125.5 403.4 126.2 404.1 126.2 404.9C126.2 405.8 125.5 406.4 124.7 406.4ZM120 388.3C120.4 387.6 121.2 387.3 122 387.7C122.7 388.1 123 388.9 122.6 389.7C122.3 390.2 121.8 390.5 121.3 390.5C121.1 390.5 120.8 390.4 120.6 390.3C119.9 389.9 119.7 389.1 120 388.3ZM119.5 393.7C120 393.1 120.9 393 121.5 393.5C122.1 394 122.2 394.9 121.7 395.5C121.4 395.9 121 396 120.6 396C120.3 396 120 395.9 119.7 395.7C119.1 395.2 119 394.3 119.5 393.7ZM120.9 541.5C120.9 542.3 120.3 543 119.4 543C118.6 543 117.9 542.3 117.9 541.5V541.4V541.3C117.9 540.5 118.6 539.8 119.4 539.8C120.2 539.8 120.9 540.5 120.9 541.3V541.4C120.9 541.4 120.9 541.4 120.9 541.5ZM119.4 536.9C118.6 536.9 117.9 536.2 117.9 535.4C117.9 534.6 118.6 533.9 119.4 533.9C120.2 533.9 120.9 534.6 120.9 535.4C120.9 536.2 120.2 536.9 119.4 536.9ZM119.4 531.1C118.6 531.1 117.9 530.5 117.9 529.6C117.9 528.8 118.6 528.1 119.4 528.1C120.2 528.1 120.9 528.8 120.9 529.6C120.9 530.4 120.2 531.1 119.4 531.1ZM119.4 525.3C118.6 525.3 117.9 524.6 117.9 523.8C117.9 523 118.6 522.3 119.4 522.3C120.2 522.3 120.9 523 120.9 523.8C120.9 524.6 120.2 525.3 119.4 525.3ZM119.4 519.5C118.6 519.5 117.9 518.9 117.9 518C117.9 517.2 118.6 516.5 119.4 516.5C120.2 516.5 120.9 517.2 120.9 518C120.9 518.8 120.2 519.5 119.4 519.5ZM119.4 513.7C118.6 513.7 117.9 513 117.9 512.2C117.9 511.4 118.6 510.7 119.4 510.7C120.2 510.7 120.9 511.4 120.9 512.2C120.9 513 120.2 513.7 119.4 513.7ZM119.4 507.8C118.6 507.8 117.9 507.2 117.9 506.4C117.9 505.6 118.6 504.9 119.4 504.9C120.2 504.9 120.9 505.5 120.9 506.4C120.9 507.2 120.2 507.8 119.4 507.8ZM119.4 502C118.6 502 117.9 501.3 117.9 500.5C117.9 499.7 118.6 499 119.4 499C120.2 499 120.9 499.6 120.9 500.5C120.9 501.4 120.2 502 119.4 502ZM119.4 496.2C118.6 496.2 117.9 495.5 117.9 494.7C117.9 493.9 118.6 493.2 119.4 493.2C120.2 493.2 120.9 493.8 120.9 494.7C120.9 495.6 120.2 496.2 119.4 496.2ZM119.4 490.4C118.6 490.4 117.9 489.7 117.9 488.9C117.9 488.1 118.6 487.4 119.4 487.4C120.2 487.4 120.9 488 120.9 488.9C120.9 489.8 120.2 490.4 119.4 490.4ZM119.4 484.6C118.6 484.6 117.9 483.9 117.9 483.1C117.9 482.3 118.6 481.6 119.4 481.6C120.2 481.6 120.9 482.2 120.9 483.1C120.9 484 120.2 484.6 119.4 484.6ZM119.4 478.8C118.6 478.8 117.9 478.1 117.9 477.3C117.9 476.5 118.6 475.8 119.4 475.8C120.2 475.8 120.9 476.4 120.9 477.3C120.9 478.2 120.2 478.8 119.4 478.8ZM119.4 473C118.6 473 117.9 472.3 117.9 471.5C117.9 470.7 118.6 470 119.4 470C120.2 470 120.9 470.6 120.9 471.5C120.9 472.3 120.2 473 119.4 473ZM119.4 467.2C118.6 467.2 117.9 466.6 117.9 465.7C117.9 464.9 118.6 464.2 119.4 464.2C120.2 464.2 120.9 464.8 120.9 465.7C120.9 466.5 120.2 467.2 119.4 467.2ZM119.4 461.4C118.6 461.4 117.9 460.7 117.9 459.9C117.9 459.1 118.6 458.4 119.4 458.4C120.2 458.4 120.9 459 120.9 459.9C120.9 460.7 120.2 461.4 119.4 461.4ZM119.4 455.6C118.6 455.6 117.9 455 117.9 454.1C117.9 453.3 118.6 452.6 119.4 452.6C120.2 452.6 120.9 453.2 120.9 454.1C120.9 454.9 120.2 455.6 119.4 455.6ZM119.4 449.8C118.6 449.8 117.9 449.1 117.9 448.3C117.9 447.5 118.6 446.8 119.4 446.8C120.2 446.8 120.9 447.4 120.9 448.3C120.9 449.1 120.2 449.8 119.4 449.8ZM119.4 443.9C118.6 443.9 117.9 443.3 117.9 442.4C117.9 441.6 118.6 440.9 119.4 440.9C120.2 440.9 120.9 441.5 120.9 442.4C120.9 443.3 120.2 443.9 119.4 443.9ZM119.4 438.1C118.6 438.1 117.9 437.4 117.9 436.6C117.9 435.8 118.6 435.1 119.4 435.1C120.2 435.1 120.9 435.7 120.9 436.6C120.9 437.5 120.2 438.1 119.4 438.1ZM119.4 432.3C118.6 432.3 117.9 431.7 117.9 430.8C117.9 430 118.6 429.3 119.4 429.3C120.2 429.3 120.9 429.9 120.9 430.8C120.9 431.7 120.2 432.3 119.4 432.3ZM119.4 426.5C118.6 426.5 117.9 425.9 117.9 425C117.9 424.2 118.6 423.5 119.4 423.5C120.2 423.5 120.9 424.1 120.9 425C120.9 425.9 120.2 426.5 119.4 426.5ZM119.4 420.7C118.6 420.7 117.9 420.1 117.9 419.2C117.9 418.4 118.6 417.7 119.4 417.7C120.2 417.7 120.9 418.3 120.9 419.2C120.9 420.1 120.2 420.7 119.4 420.7ZM119.4 414.9C118.6 414.9 117.9 414.3 117.9 413.4C117.9 412.5 118.6 411.9 119.4 411.9C120.2 411.9 120.9 412.5 120.9 413.4C120.9 414.3 120.2 414.9 119.4 414.9ZM119.4 409.1C118.6 409.1 117.9 408.5 117.9 407.6C117.9 406.8 118.6 406.1 119.4 406.1C120.2 406.1 120.9 406.7 120.9 407.6C120.9 408.4 120.2 409.1 119.4 409.1ZM118.8 400.4C119.6 400.2 120.4 400.7 120.6 401.5C120.8 402.3 120.3 403.1 119.5 403.3C119.4 403.3 119.3 403.3 119.1 403.3C118.5 403.3 117.9 402.9 117.7 402.2C117.5 401.4 118 400.6 118.8 400.4ZM115.9 386C116.7 386.1 117.3 386.8 117.2 387.6C117.1 388.4 116.5 388.9 115.8 388.9H115.7C114.9 388.8 114.3 388.1 114.4 387.3C114.4 386.5 115.1 385.9 115.9 386ZM114 392.1C114.1 391.3 114.8 390.7 115.6 390.9C116.4 391 117 391.7 116.8 392.5C116.7 393.2 116.1 393.8 115.4 393.8C115.3 393.8 115.3 393.8 115.2 393.8C114.4 393.6 113.9 392.9 114 392.1ZM117 398C116.8 398.5 116.2 398.9 115.7 398.9C115.5 398.9 115.3 398.9 115.1 398.8C114.4 398.5 114 397.6 114.3 396.9C114.6 396.2 115.5 395.8 116.2 396.1C117 396.4 117.4 397.3 117 398ZM113.9 400.4C114.7 400.4 115.4 401 115.4 401.9C115.4 402.7 114.8 403.4 113.9 403.4C113.1 403.4 112.4 402.7 112.4 401.9C112.5 401.1 113.2 400.4 113.9 400.4ZM113.9 406.2C114.7 406.2 115.4 406.8 115.4 407.7C115.4 408.5 114.8 409.2 113.9 409.2C113.1 409.2 112.4 408.5 112.4 407.7C112.5 406.9 113.2 406.2 113.9 406.2ZM113.9 412C114.7 412 115.4 412.6 115.4 413.5C115.4 414.3 114.8 415 113.9 415C113.1 415 112.4 414.3 112.4 413.5C112.5 412.7 113.2 412 113.9 412ZM113.9 417.9C114.7 417.9 115.4 418.5 115.4 419.4C115.4 420.2 114.8 420.9 113.9 420.9C113.1 420.9 112.4 420.2 112.4 419.4C112.5 418.5 113.2 417.9 113.9 417.9ZM113.9 423.7C114.7 423.7 115.4 424.3 115.4 425.1C115.4 425.9 114.8 426.6 113.9 426.6C113.1 426.6 112.4 425.9 112.4 425.1C112.5 424.3 113.2 423.7 113.9 423.7ZM113.9 429.5C114.7 429.5 115.4 430.2 115.4 431C115.4 431.8 114.8 432.5 113.9 432.5C113.1 432.5 112.4 431.8 112.4 431C112.5 430.1 113.2 429.5 113.9 429.5ZM113.9 435.3C114.7 435.3 115.4 436 115.4 436.8C115.4 437.6 114.8 438.3 113.9 438.3C113.1 438.3 112.4 437.6 112.4 436.8C112.5 435.9 113.2 435.3 113.9 435.3ZM113.9 441.1C114.7 441.1 115.4 441.8 115.4 442.6C115.4 443.4 114.8 444.1 113.9 444.1C113.1 444.1 112.4 443.4 112.4 442.6C112.5 441.7 113.2 441.1 113.9 441.1ZM113.9 446.9C114.7 446.9 115.4 447.6 115.4 448.4C115.4 449.2 114.8 449.9 113.9 449.9C113.1 449.9 112.4 449.2 112.4 448.4C112.5 447.6 113.2 446.9 113.9 446.9ZM113.9 452.7C114.7 452.7 115.4 453.4 115.4 454.2C115.4 455 114.8 455.7 113.9 455.7C113.1 455.7 112.4 455.1 112.4 454.2C112.5 453.4 113.2 452.7 113.9 452.7ZM113.9 458.5C114.7 458.5 115.4 459.2 115.4 460C115.4 460.8 114.8 461.4 113.9 461.4C113.1 461.4 112.4 460.8 112.4 460C112.5 459.2 113.2 458.5 113.9 458.5ZM113.9 464.3C114.7 464.3 115.4 464.9 115.4 465.8C115.4 466.6 114.8 467.3 113.9 467.3C113.1 467.3 112.4 466.6 112.4 465.8C112.5 465 113.2 464.3 113.9 464.3ZM113.9 470.1C114.7 470.1 115.4 470.7 115.4 471.6C115.4 472.4 114.8 473.1 113.9 473.1C113.1 473.1 112.4 472.4 112.4 471.6C112.5 470.8 113.2 470.1 113.9 470.1ZM113.9 475.9C114.7 475.9 115.4 476.5 115.4 477.4C115.4 478.2 114.8 478.9 113.9 478.9C113.1 478.9 112.4 478.2 112.4 477.4C112.5 476.6 113.2 475.9 113.9 475.9ZM113.9 481.8C114.7 481.8 115.4 482.4 115.4 483.2C115.4 484 114.8 484.7 113.9 484.7C113.1 484.7 112.4 484 112.4 483.2C112.5 482.4 113.2 481.8 113.9 481.8ZM113.9 487.6C114.7 487.6 115.4 488.2 115.4 489.1C115.4 489.9 114.8 490.6 113.9 490.6C113.1 490.6 112.4 489.9 112.4 489.1C112.5 488.2 113.2 487.6 113.9 487.6ZM113.9 493.4C114.7 493.4 115.4 494.1 115.4 494.9C115.4 495.7 114.8 496.4 113.9 496.4C113.1 496.4 112.4 495.7 112.4 494.9C112.5 494 113.2 493.4 113.9 493.4ZM113.9 499.2C114.7 499.2 115.4 499.8 115.4 500.7C115.4 501.5 114.8 502.2 113.9 502.2C113.1 502.2 112.4 501.5 112.4 500.7C112.5 499.8 113.2 499.2 113.9 499.2ZM113.9 505C114.7 505 115.4 505.6 115.4 506.5C115.4 507.3 114.8 508 113.9 508C113.1 508 112.4 507.3 112.4 506.5C112.5 505.6 113.2 505 113.9 505ZM113.9 510.8C114.7 510.8 115.4 511.4 115.4 512.3C115.4 513.1 114.8 513.7 113.9 513.7C113.1 513.7 112.4 513.1 112.4 512.3C112.5 511.4 113.2 510.8 113.9 510.8ZM113.9 516.6C114.7 516.6 115.4 517.2 115.4 518.1C115.4 518.9 114.8 519.6 113.9 519.6C113.1 519.6 112.4 518.9 112.4 518.1C112.5 517.3 113.2 516.6 113.9 516.6ZM113.9 522.4C114.7 522.4 115.4 523 115.4 523.8C115.4 524.6 114.8 525.3 113.9 525.3C113.1 525.3 112.4 524.7 112.4 523.8C112.5 523.1 113.2 522.4 113.9 522.4ZM113.9 528.2C114.7 528.2 115.4 528.8 115.4 529.7C115.4 530.5 114.8 531.2 113.9 531.2C113.1 531.2 112.4 530.5 112.4 529.7C112.5 528.9 113.2 528.2 113.9 528.2ZM113.9 534C114.7 534 115.4 534.6 115.4 535.4C115.4 536.2 114.8 536.9 113.9 536.9C113.1 536.9 112.4 536.2 112.4 535.4C112.5 534.7 113.2 534 113.9 534ZM113.9 539.8C114.7 539.8 115.4 540.4 115.4 541.3C115.4 542.1 114.8 542.8 113.9 542.8C113.1 542.8 112.4 542.1 112.4 541.3C112.5 540.5 113.2 539.8 113.9 539.8ZM109.4 399.7C108.8 399.2 108.8 398.2 109.3 397.6C109.8 397 110.8 397 111.4 397.5C112 398 112 399 111.5 399.5C111.2 399.8 110.8 400 110.4 400C110.1 400.1 109.7 400 109.4 399.7ZM109.1 544.8C109 544.8 108.9 544.8 108.8 544.8C108.1 544.8 107.5 544.3 107.4 543.7C107.2 542.9 107.7 542.1 108.5 542C109.3 541.8 110.1 542.3 110.2 543.1C110.3 543.8 109.8 544.6 109.1 544.8ZM109.7 386.3C110.5 386.1 111.3 386.6 111.4 387.4C111.6 388.2 111.1 389 110.3 389.1C110.2 389.1 110.1 389.1 110 389.1C109.3 389.1 108.7 388.6 108.6 388C108.4 387.3 108.9 386.5 109.7 386.3ZM109.1 391.8C109.8 391.5 110.7 391.8 111 392.5C111.3 393.2 111 394.1 110.2 394.4C110 394.5 109.8 394.5 109.6 394.5C109 394.5 108.5 394.2 108.3 393.6C108.1 392.9 108.4 392.1 109.1 391.8ZM108.5 402.5C109.3 402.5 110 403.2 110 404C110 404.8 109.4 405.5 108.5 405.5C107.7 405.5 107 404.9 107 404C107 403.2 107.7 402.5 108.5 402.5ZM108.5 408.4C109.3 408.4 110 409.1 110 409.9C110 410.7 109.4 411.4 108.5 411.4C107.7 411.4 107 410.8 107 409.9C107 409 107.7 408.4 108.5 408.4ZM108.5 414.2C109.3 414.2 110 414.9 110 415.7C110 416.5 109.4 417.2 108.5 417.2C107.7 417.2 107 416.6 107 415.7C107 414.8 107.7 414.2 108.5 414.2ZM108.5 420C109.3 420 110 420.7 110 421.5C110 422.3 109.4 423 108.5 423C107.7 423 107 422.4 107 421.5C107 420.6 107.7 420 108.5 420ZM108.5 425.8C109.3 425.8 110 426.5 110 427.3C110 428.1 109.4 428.8 108.5 428.8C107.7 428.8 107 428.2 107 427.3C107 426.4 107.7 425.8 108.5 425.8ZM108.5 431.6C109.3 431.6 110 432.3 110 433.1C110 433.9 109.4 434.6 108.5 434.6C107.7 434.6 107 434 107 433.1C107 432.2 107.7 431.6 108.5 431.6ZM108.5 437.4C109.3 437.4 110 438.1 110 438.9C110 439.7 109.4 440.4 108.5 440.4C107.7 440.4 107 439.8 107 438.9C107 438.1 107.7 437.4 108.5 437.4ZM108.5 443.2C109.3 443.2 110 443.8 110 444.7C110 445.5 109.4 446.2 108.5 446.2C107.7 446.2 107 445.6 107 444.7C107 443.9 107.7 443.2 108.5 443.2ZM108.5 449C109.3 449 110 449.7 110 450.5C110 451.3 109.4 452 108.5 452C107.7 452 107 451.4 107 450.5C107 449.7 107.7 449 108.5 449ZM108.5 454.8C109.3 454.8 110 455.4 110 456.3C110 457.2 109.4 457.8 108.5 457.8C107.7 457.8 107 457.2 107 456.3C107 455.4 107.7 454.8 108.5 454.8ZM108.5 460.6C109.3 460.6 110 461.3 110 462.1C110 462.9 109.4 463.6 108.5 463.6C107.7 463.6 107 463 107 462.1C107 461.3 107.7 460.6 108.5 460.6ZM108.5 466.4C109.3 466.4 110 467 110 467.9C110 468.7 109.4 469.4 108.5 469.4C107.7 469.4 107 468.8 107 467.9C107 467.1 107.7 466.4 108.5 466.4ZM108.5 472.3C109.3 472.3 110 473 110 473.8C110 474.6 109.4 475.3 108.5 475.3C107.7 475.3 107 474.7 107 473.8C107 472.9 107.7 472.3 108.5 472.3ZM108.5 478.1C109.3 478.1 110 478.8 110 479.6C110 480.4 109.4 481.1 108.5 481.1C107.7 481.1 107 480.5 107 479.6C107 478.7 107.7 478.1 108.5 478.1ZM108.5 483.9C109.3 483.9 110 484.6 110 485.4C110 486.2 109.4 486.9 108.5 486.9C107.7 486.9 107 486.3 107 485.4C107 484.5 107.7 483.9 108.5 483.9ZM108.5 489.7C109.3 489.7 110 490.4 110 491.2C110 492 109.4 492.7 108.5 492.7C107.7 492.7 107 492.1 107 491.2C107 490.3 107.7 489.7 108.5 489.7ZM108.5 495.5C109.3 495.5 110 496.2 110 497C110 497.8 109.4 498.5 108.5 498.5C107.7 498.5 107 497.9 107 497C107 496.1 107.7 495.5 108.5 495.5ZM108.5 501.3C109.3 501.3 110 502 110 502.8C110 503.6 109.4 504.3 108.5 504.3C107.7 504.3 107 503.7 107 502.8C107 502 107.7 501.3 108.5 501.3ZM108.5 507.1C109.3 507.1 110 507.7 110 508.6C110 509.4 109.4 510.1 108.5 510.1C107.7 510.1 107 509.4 107 508.6C107 507.8 107.7 507.1 108.5 507.1ZM108.5 512.9C109.3 512.9 110 513.6 110 514.4C110 515.2 109.4 515.9 108.5 515.9C107.7 515.9 107 515.2 107 514.4C107 513.6 107.7 512.9 108.5 512.9ZM108.5 518.7C109.3 518.7 110 519.3 110 520.2C110 521 109.4 521.7 108.5 521.7C107.7 521.7 107 521 107 520.2C107 519.4 107.7 518.7 108.5 518.7ZM108.5 524.5C109.3 524.5 110 525.2 110 526C110 526.8 109.4 527.5 108.5 527.5C107.7 527.5 107 526.8 107 526C107 525.2 107.7 524.5 108.5 524.5ZM108.5 530.3C109.3 530.3 110 530.9 110 531.8C110 532.6 109.4 533.3 108.5 533.3C107.7 533.3 107 532.6 107 531.8C107 531 107.7 530.3 108.5 530.3ZM108.5 536.2C109.3 536.2 110 536.9 110 537.7C110 538.5 109.4 539.2 108.5 539.2C107.7 539.2 107 538.5 107 537.7C107 536.8 107.7 536.2 108.5 536.2ZM103.9 389C104.6 388.5 105.5 388.7 105.9 389.3C106.4 390 106.2 390.9 105.6 391.3C105.3 391.5 105.1 391.6 104.8 391.6C104.3 391.6 103.9 391.4 103.6 391C103.1 390.3 103.2 389.4 103.9 389ZM103.4 400.6C104.2 400.7 104.8 401.4 104.7 402.2C104.6 402.9 104 403.5 103.3 403.5H103.2C102.4 403.4 101.8 402.7 101.9 401.9C101.9 401.1 102.6 400.5 103.4 400.6ZM103.2 531.3C102.4 531.3 101.7 530.7 101.7 529.9C101.7 529.1 102.4 528.4 103.2 528.4C104 528.4 104.7 529 104.7 529.9C104.6 530.7 104 531.3 103.2 531.3ZM104.6 535.7C104.6 536.5 104 537.2 103.1 537.2C102.3 537.2 101.6 536.5 101.6 535.7C101.6 534.9 102.3 534.3 103.1 534.3C104 534.2 104.6 534.9 104.6 535.7ZM103.2 525.5C102.4 525.5 101.7 524.8 101.7 524C101.7 523.2 102.4 522.5 103.2 522.5C104 522.5 104.7 523.2 104.7 524C104.6 524.9 104 525.5 103.2 525.5ZM103.2 519.7C102.4 519.7 101.7 519.1 101.7 518.2C101.7 517.4 102.4 516.8 103.2 516.8C104 516.8 104.7 517.4 104.7 518.2C104.6 519 104 519.7 103.2 519.7ZM103.2 513.9C102.4 513.9 101.7 513.3 101.7 512.5C101.7 511.7 102.4 511 103.2 511C104 511 104.7 511.7 104.7 512.5C104.6 513.2 104 513.9 103.2 513.9ZM103.2 508.1C102.4 508.1 101.7 507.4 101.7 506.6C101.7 505.8 102.4 505.1 103.2 505.1C104 505.1 104.7 505.8 104.7 506.6C104.6 507.4 104 508.1 103.2 508.1ZM103.2 502.3C102.4 502.3 101.7 501.7 101.7 500.9C101.7 500.1 102.4 499.4 103.2 499.4C104 499.4 104.7 500 104.7 500.9C104.6 501.6 104 502.3 103.2 502.3ZM103.2 496.5C102.4 496.5 101.7 495.8 101.7 495C101.7 494.2 102.4 493.5 103.2 493.5C104 493.5 104.7 494.2 104.7 495C104.6 495.8 104 496.5 103.2 496.5ZM103.2 490.7C102.4 490.7 101.7 490 101.7 489.2C101.7 488.4 102.4 487.8 103.2 487.8C104 487.8 104.7 488.4 104.7 489.2C104.6 490 104 490.7 103.2 490.7ZM103.2 484.8C102.4 484.8 101.7 484.1 101.7 483.3C101.7 482.5 102.4 481.8 103.2 481.8C104 481.8 104.7 482.4 104.7 483.3C104.6 484.2 104 484.8 103.2 484.8ZM103.2 479C102.4 479 101.7 478.3 101.7 477.5C101.7 476.7 102.4 476 103.2 476C104 476 104.7 476.6 104.7 477.5C104.6 478.4 104 479 103.2 479ZM103.2 473.2C102.4 473.2 101.7 472.6 101.7 471.8C101.7 471 102.4 470.3 103.2 470.3C104 470.3 104.7 470.9 104.7 471.8C104.6 472.6 104 473.2 103.2 473.2ZM103.2 467.4C102.4 467.4 101.7 466.7 101.7 465.9C101.7 465.1 102.4 464.4 103.2 464.4C104 464.4 104.7 465.1 104.7 465.9C104.6 466.8 104 467.4 103.2 467.4ZM103.2 461.6C102.4 461.6 101.7 460.9 101.7 460.1C101.7 459.3 102.4 458.7 103.2 458.7C104 458.7 104.7 459.3 104.7 460.1C104.6 461 104 461.6 103.2 461.6ZM103.2 455.8C102.4 455.8 101.7 455.2 101.7 454.4C101.7 453.6 102.4 452.9 103.2 452.9C104 452.9 104.7 453.5 104.7 454.4C104.6 455.1 104 455.8 103.2 455.8ZM103.2 450C102.4 450 101.7 449.3 101.7 448.5C101.7 447.7 102.4 447 103.2 447C104 447 104.7 447.6 104.7 448.5C104.6 449.3 104 450 103.2 450ZM103.2 444.2C102.4 444.2 101.7 443.5 101.7 442.7C101.7 441.9 102.4 441.2 103.2 441.2C104 441.2 104.7 441.8 104.7 442.7C104.6 443.5 104 444.2 103.2 444.2ZM103.2 438.4C102.4 438.4 101.7 437.7 101.7 436.9C101.7 436.1 102.4 435.4 103.2 435.4C104 435.4 104.7 436.1 104.7 436.9C104.6 437.7 104 438.4 103.2 438.4ZM103.2 432.6C102.4 432.6 101.7 431.9 101.7 431.1C101.7 430.3 102.4 429.7 103.2 429.7C104 429.7 104.7 430.4 104.7 431.1C104.6 431.9 104 432.6 103.2 432.6ZM103.2 426.8C102.4 426.8 101.7 426.1 101.7 425.4C101.7 424.6 102.4 423.9 103.2 423.9C104 423.9 104.7 424.6 104.7 425.4C104.6 426.1 104 426.8 103.2 426.8ZM103.2 420.9C102.4 420.9 101.7 420.2 101.7 419.4C101.7 418.6 102.4 417.9 103.2 417.9C104 417.9 104.7 418.6 104.7 419.4C104.6 420.3 104 420.9 103.2 420.9ZM103.2 415.1C102.4 415.1 101.7 414.4 101.7 413.6C101.7 412.8 102.4 412.1 103.2 412.1C104 412.1 104.7 412.8 104.7 413.6C104.6 414.5 104 415.1 103.2 415.1ZM103.2 409.3C102.4 409.3 101.7 408.6 101.7 407.8C101.7 407 102.4 406.3 103.2 406.3C104 406.3 104.7 407 104.7 407.8C104.6 408.7 104 409.3 103.2 409.3ZM99.5 393.5C99.9 392.8 100.8 392.6 101.5 393.1C102.2 393.5 102.4 394.4 101.9 395.1C101.6 395.5 101.2 395.8 100.7 395.8C100.4 395.8 100.2 395.7 99.9 395.6C99.3 395.1 99.1 394.2 99.5 393.5ZM97.2 399.4C97.3 398.6 98.1 398.1 98.9 398.2C99.7 398.4 100.2 399.1 100.1 399.9C100 400.6 99.4 401.1 98.7 401.1C98.6 401.1 98.5 401.1 98.4 401.1C97.5 400.9 97 400.2 97.2 399.4ZM98.3 404C99.1 404 99.8 404.6 99.8 405.5C99.8 406.3 99.2 407 98.3 407C97.5 407 96.8 406.3 96.8 405.5C96.9 404.7 97.5 404 98.3 404ZM98.3 409.8C99.1 409.8 99.8 410.4 99.8 411.3C99.8 412.1 99.2 412.8 98.3 412.8C97.5 412.8 96.8 412.2 96.8 411.3C96.9 410.5 97.5 409.8 98.3 409.8ZM98.3 415.6C99.1 415.6 99.8 416.2 99.8 417.1C99.8 417.9 99.2 418.6 98.3 418.6C97.5 418.6 96.8 417.9 96.8 417.1C96.9 416.3 97.5 415.6 98.3 415.6ZM98.3 421.4C99.1 421.4 99.8 422 99.8 422.9C99.8 423.7 99.2 424.4 98.3 424.4C97.5 424.4 96.8 423.7 96.8 422.9C96.9 422.1 97.5 421.4 98.3 421.4ZM98.3 427.2C99.1 427.2 99.8 427.8 99.8 428.7C99.8 429.5 99.2 430.2 98.3 430.2C97.5 430.2 96.8 429.5 96.8 428.7C96.9 427.9 97.5 427.2 98.3 427.2ZM98.3 433.1C99.1 433.1 99.8 433.7 99.8 434.6C99.8 435.4 99.2 436.1 98.3 436.1C97.5 436.1 96.8 435.4 96.8 434.6C96.9 433.7 97.5 433.1 98.3 433.1ZM98.3 438.9C99.1 438.9 99.8 439.5 99.8 440.3C99.8 441.1 99.2 441.8 98.3 441.8C97.5 441.8 96.8 441.2 96.8 440.3C96.9 439.5 97.5 438.9 98.3 438.9ZM98.3 444.7C99.1 444.7 99.8 445.4 99.8 446.2C99.8 447 99.2 447.7 98.3 447.7C97.5 447.7 96.8 447 96.8 446.2C96.9 445.3 97.5 444.7 98.3 444.7ZM98.3 450.5C99.1 450.5 99.8 451.1 99.8 452C99.8 452.8 99.2 453.5 98.3 453.5C97.5 453.5 96.8 452.8 96.8 452C96.9 451.1 97.5 450.5 98.3 450.5ZM98.3 456.3C99.1 456.3 99.8 456.9 99.8 457.8C99.8 458.6 99.2 459.3 98.3 459.3C97.5 459.3 96.8 458.6 96.8 457.8C96.9 456.9 97.5 456.3 98.3 456.3ZM98.3 462.1C99.1 462.1 99.8 462.7 99.8 463.6C99.8 464.4 99.2 465.1 98.3 465.1C97.5 465.1 96.8 464.4 96.8 463.6C96.9 462.7 97.5 462.1 98.3 462.1ZM98.3 467.9C99.1 467.9 99.8 468.5 99.8 469.4C99.8 470.2 99.2 470.9 98.3 470.9C97.5 470.9 96.8 470.2 96.8 469.4C96.9 468.6 97.5 467.9 98.3 467.9ZM98.3 473.7C99.1 473.7 99.8 474.3 99.8 475.2C99.8 476 99.2 476.7 98.3 476.7C97.5 476.7 96.8 476 96.8 475.2C96.9 474.4 97.5 473.7 98.3 473.7ZM98.3 479.5C99.1 479.5 99.8 480.1 99.8 481C99.8 481.8 99.2 482.5 98.3 482.5C97.5 482.5 96.8 481.8 96.8 481C96.9 480.2 97.5 479.5 98.3 479.5ZM98.3 485.3C99.1 485.3 99.8 485.9 99.8 486.8C99.8 487.6 99.2 488.3 98.3 488.3C97.5 488.3 96.8 487.6 96.8 486.8C96.9 486 97.5 485.3 98.3 485.3ZM98.3 491.1C99.1 491.1 99.8 491.7 99.8 492.6C99.8 493.4 99.2 494.1 98.3 494.1C97.5 494.1 96.8 493.4 96.8 492.6C96.9 491.8 97.5 491.1 98.3 491.1ZM98.3 497C99.1 497 99.8 497.6 99.8 498.5C99.8 499.3 99.2 500 98.3 500C97.5 500 96.8 499.3 96.8 498.5C96.9 497.6 97.5 497 98.3 497ZM98.3 502.8C99.1 502.8 99.8 503.4 99.8 504.3C99.8 505.1 99.2 505.8 98.3 505.8C97.5 505.8 96.8 505.1 96.8 504.3C96.9 503.4 97.5 502.8 98.3 502.8ZM98.3 508.6C99.1 508.6 99.8 509.2 99.8 510.1C99.8 510.9 99.2 511.6 98.3 511.6C97.5 511.6 96.8 510.9 96.8 510.1C96.9 509.2 97.5 508.6 98.3 508.6ZM98.3 514.4C99.1 514.4 99.8 515 99.8 515.9C99.8 516.7 99.2 517.4 98.3 517.4C97.5 517.4 96.8 516.7 96.8 515.9C96.9 515 97.5 514.4 98.3 514.4ZM98.3 520.2C99.1 520.2 99.8 520.8 99.8 521.7C99.8 522.5 99.2 523.2 98.3 523.2C97.5 523.2 96.8 522.5 96.8 521.7C96.9 520.8 97.5 520.2 98.3 520.2ZM98.3 526C99.1 526 99.8 526.6 99.8 527.5C99.8 528.3 99.2 529 98.3 529C97.5 529 96.8 528.3 96.8 527.5C96.9 526.6 97.5 526 98.3 526ZM98.3 531.8C99.1 531.8 99.8 532.4 99.8 533.3C99.8 534.1 99.2 534.8 98.3 534.8C97.5 534.8 96.8 534.1 96.8 533.3C96.9 532.5 97.5 531.8 98.3 531.8ZM98.3 537.6C99.1 537.6 99.8 538.3 99.8 539.1C99.8 539.9 99.2 540.6 98.3 540.6C97.5 540.6 96.8 539.9 96.8 539.1C96.9 538.3 97.5 537.6 98.3 537.6ZM98.5 546.3C97.8 546.3 97.2 545.8 97.1 545C97 544.2 97.6 543.5 98.4 543.4C99.2 543.3 99.9 543.9 100 544.6C100.1 545.4 99.5 546.1 98.7 546.2C98.6 546.3 98.5 546.3 98.5 546.3ZM101 551.6C100.8 551.7 100.5 551.8 100.3 551.8C99.8 551.8 99.3 551.5 99 551.1C98.6 550.4 98.8 549.5 99.5 549.1C100.2 548.7 101.1 548.9 101.5 549.6C102 550.3 101.7 551.2 101 551.6ZM101.7 541.5C101.7 540.7 102.4 540 103.2 540C104 540 104.7 540.7 104.7 541.5C104.7 542.3 104.1 542.9 103.2 542.9C102.4 542.9 101.7 542.3 101.7 541.5ZM105.2 555.6C104.9 556 104.5 556.1 104.1 556.1C103.8 556.1 103.5 556 103.2 555.8C102.6 555.3 102.5 554.4 103 553.8C103.5 553.2 104.4 553.1 105 553.6C105.6 554.1 105.7 555 105.2 555.6ZM105 548.4C104.8 548.5 104.6 548.6 104.4 548.6C103.9 548.6 103.4 548.3 103.1 547.8C102.7 547.1 103 546.2 103.8 545.9C104.5 545.5 105.4 545.8 105.7 546.6C106 547.2 105.7 548.1 105 548.4ZM105.3 398.1C105 398.1 104.7 398 104.5 397.8C103.8 397.3 103.7 396.4 104.2 395.8C104.7 395.2 105.6 395 106.2 395.5C106.9 396 107 396.9 106.5 397.5C106.2 397.9 105.7 398.1 105.3 398.1ZM106.9 550.6C107.3 549.9 108.2 549.7 108.9 550.2C109.6 550.6 109.8 551.5 109.3 552.2C109 552.6 108.6 552.9 108.1 552.9C107.8 552.9 107.5 552.8 107.3 552.7C106.7 552.2 106.5 551.3 106.9 550.6ZM110.6 557.8C110.4 558.4 109.8 558.8 109.2 558.8C109.1 558.8 108.9 558.8 108.8 558.7C108 558.5 107.6 557.7 107.8 556.9C108 556.1 108.8 555.7 109.6 555.9C110.4 556.2 110.8 557 110.6 557.8ZM111.5 549.2C110.8 548.9 110.5 548 110.8 547.3C111.1 546.6 112 546.3 112.7 546.6C113.4 546.9 113.7 547.8 113.4 548.5C113.2 549 112.6 549.3 112.1 549.3C111.9 549.4 111.7 549.3 111.5 549.2ZM112.1 553.1C112.1 552.3 112.8 551.7 113.6 551.7C114.4 551.7 115 552.4 115 553.2C115 554 114.3 554.6 113.5 554.6C112.7 554.6 112.1 553.9 112.1 553.1ZM115 559.4C115 559.4 114.9 559.4 115 559.4C114.2 559.4 113.5 558.8 113.5 558C113.5 557.2 114.1 556.5 114.9 556.5C115.7 556.5 116.4 557.1 116.4 557.9C116.4 558.7 115.8 559.4 115 559.4ZM116.4 547.8C115.8 547.2 115.8 546.3 116.4 545.7C117 545.1 117.9 545.1 118.5 545.7C119.1 546.3 119.1 547.2 118.5 547.8C118.2 548.1 117.8 548.2 117.5 548.2C117 548.2 116.7 548.1 116.4 547.8ZM117.9 552.5C117.5 551.8 117.7 550.9 118.4 550.5C119.1 550.1 120 550.4 120.4 551C120.8 551.7 120.6 552.6 119.9 553C119.7 553.1 119.4 553.2 119.2 553.2C118.7 553.2 118.2 553 117.9 552.5ZM121.2 558C121 558.1 120.8 558.1 120.6 558.1C120 558.1 119.5 557.8 119.3 557.2C119 556.5 119.3 555.6 120 555.3C120.7 555 121.6 555.3 121.9 556C122.2 556.8 121.9 557.7 121.2 558ZM122.5 549C121.8 548.6 121.6 547.7 122 547C122.4 546.3 123.3 546.1 124 546.5C124.7 546.9 124.9 547.8 124.5 548.5C124.2 549 123.7 549.2 123.2 549.2C123 549.2 122.7 549.1 122.5 549ZM126.3 554.4C126 554.7 125.6 554.8 125.3 554.8C124.9 554.8 124.6 554.7 124.3 554.4C123.7 553.8 123.7 552.9 124.3 552.3C124.9 551.7 125.8 551.7 126.4 552.3C126.9 552.9 126.9 553.8 126.3 554.4ZM125.9 394C125.5 394 125.1 393.8 124.8 393.5C124.3 392.9 124.3 392 124.9 391.4C125.5 391 126.4 391 127 391.6C127.5 392.2 127.5 393.1 126.9 393.6C126.5 393.9 126.2 394 125.9 394ZM127.1 548C127.4 547.3 128.3 546.9 129 547.2C129.7 547.5 130.1 548.4 129.8 549.1C129.6 549.7 129 550 128.5 550C128.3 550 128.1 550 128 549.9C127.2 549.6 126.8 548.8 127.1 548Z" fill="#1E1E1E"/>
<path d="M761.7 475.3L764.8 464.8C765.2 463.4 764.7 461.4 763.5 460.4L757.8 455.4C756.7 454.4 754.6 454 753.1 454.4L709.5 468C708.1 468.5 706.9 470.1 706.9 471.6V475.2C706.9 476.7 708.1 477.9 709.6 477.9H758.1C759.6 477.9 761.2 476.8 761.7 475.3Z" fill="#1E1E1E"/>
<path d="M847 549L836 538L835.5 538.5C836.5 537.4 836.5 535.7 835.4 534.7L834.4 533.7C834.2 533.5 834 533.4 833.8 533.2C834.1 532.9 834.3 532.7 834.3 532.7C835.8 531.2 835.9 527.8 834.1 526.2L785.5 484.8C777.5 478.2 777.4 475.2 776.9 471C776.5 466.8 776.6 465.8 776.8 462.1C777 458.4 776.6 456.4 772.9 452.5C769.2 448.6 769.9 448.8 765.7 445.6C761.5 442.4 755.1 442.4 748.9 444.1C742.7 445.8 698.9 459.1 698.9 459.1C698.9 459.1 698.9 461.3 698.9 464.9H693.4H691.2V467.1V469H686.7V463.9C686.7 462.8 685.8 461.8 684.6 461.8H481.6C480.5 461.8 478.7 462.2 477.7 462.7L471.7 465.6C470.7 466.1 469.8 467.4 469.8 468.6V469H285.3V476.4H469.8V476.3C469.8 477.4 470.6 478.8 471.6 479.3L477.7 482.6C478.7 483.1 480.4 483.6 481.6 483.6H684.8C685.9 483.6 686.9 482.7 686.9 481.5V476.4H691.4V480.4H693.6H699.1C699.1 484 699.1 488 699.1 492.1C699.1 503.2 703.5 510.1 706.2 513.5L757.8 575.4C768.6 587.9 783.4 584.5 788.9 579.6C792 576.8 806.8 561.6 818.6 549.3C818.7 549.4 818.7 549.5 818.8 549.6L819.8 550.6C820.8 551.6 822.5 551.7 823.6 550.7L823.1 551.2L834.1 562.2L836.1 564.2L849.1 551.2L847 549ZM678.4 481.2H484.7C482.5 481.2 480.6 480.8 480.6 480.4C480.6 479.9 482.4 479.6 484.7 479.6H678.4C680.6 479.6 682.5 480 682.5 480.4C682.5 480.9 680.7 481.2 678.4 481.2ZM678.4 476.1H484.7C482.5 476.1 480.6 474.6 480.6 472.7C480.6 470.8 482.4 469.3 484.7 469.3H678.4C680.6 469.3 682.5 470.8 682.5 472.7C682.5 474.6 680.7 476.1 678.4 476.1ZM678.4 465.8H484.7C482.5 465.8 480.6 465.4 480.6 465C480.6 464.5 482.4 464.2 484.7 464.2H678.4C680.6 464.2 682.5 464.6 682.5 465C682.5 465.4 680.7 465.8 678.4 465.8ZM699 471.1H693.5V467.2H699C699 468.4 699 469.7 699 471.1ZM703 478.4V468.7C703 466.7 704.5 464.6 706.4 464L753.1 449.6C755 449 757.7 449.6 759.2 450.9L767.6 458.3C769.1 459.6 769.8 462.2 769.3 464.1L765.2 478.6C764.7 480.5 762.6 482 760.7 482H706.7C704.6 482 703 480.4 703 478.4ZM801.9 557.2L783.8 575.3C778.5 580.6 770.1 580.3 765.2 574.5L721 522.1C716.1 516.3 717.4 508.3 723.8 504.3L740.1 494C746.5 490 756.1 491.1 761.3 496.5L801.9 537.8C807.3 543.1 807.3 551.9 801.9 557.2ZM839 557L828 546L833.9 540.1L844.9 551.1L839 557Z" fill="#1E1E1E"/>
<path d="M678.4 470.9H484.7C483.4 470.9 482.3 471.7 482.3 472.6C482.3 473.5 483.4 474.3 484.7 474.3H678.4C679.7 474.3 680.8 473.5 680.8 472.6C680.8 471.7 679.7 470.9 678.4 470.9Z" fill="#1E1E1E"/>
<path d="M757.6 506.8C753.5 499.9 749.5 496.3 739.8 496.4L726.7 504.6C727.8 504.9 729.1 505.1 730.7 504.8C746.1 502.1 747.9 505.1 751.1 510.6C756.3 519.3 778.8 557.9 780.3 560.5C780.6 561.2 780.4 563.7 780 565.5C779.5 567.5 780.8 569.5 782.8 570C783.1 570.1 783.4 570.1 783.7 570.1C785.4 570.1 786.9 568.9 787.4 567.2C787.8 565.6 788.8 560.2 787.1 556.9C785.7 554.6 763 515.9 757.6 506.8Z" fill="#1E1E1E"/>
<defs>
<linearGradient id="paint0_linear_2_49" x1="468.5" y1="3.50187e-09" x2="468.5" y2="744" gradientUnits="userSpaceOnUse">
<stop stop-color="#50565B"/>
<stop offset="1" stop-color="#252525"/>
</linearGradient>
<linearGradient id="paint1_linear_2_49" x1="468.5" y1="3.50187e-09" x2="468.5" y2="744" gradientUnits="userSpaceOnUse">
<stop stop-color="#E8E8E8"/>
<stop offset="1" stop-color="#2E2E2E"/>
</linearGradient>
</defs>
</svg>
