<svg width="800" height="636" viewBox="0 0 800 636" fill="none" xmlns="http://www.w3.org/2000/svg">
<rect x="1" y="1" width="798" height="633.219" rx="39" fill="url(#paint0_linear_7_75)" stroke="url(#paint1_linear_7_75)" stroke-width="2"/>
<circle cx="400.427" cy="179.296" r="128.068" fill="white"/>
<circle cx="400.427" cy="179.296" r="110.993" fill="#7FE409"/>
<path d="M359.118 219.91H382.497C383.2 231.042 389.03 236.638 399.987 236.697C405.261 236.697 409.45 235.115 412.556 231.951C415.72 228.728 417.302 224.363 417.302 218.855C417.302 213.347 415.691 209.04 412.468 205.935C409.304 202.771 404.909 201.189 399.284 201.189H395.857V180.886H399.284C404.441 180.886 408.425 179.48 411.237 176.667C414.05 173.855 415.456 169.929 415.456 164.89C415.456 159.968 414.021 156.013 411.15 153.025C408.278 149.978 404.499 148.454 399.812 148.454C390.319 148.454 385.046 153.611 383.991 163.923H360.525C360.993 157.536 362.019 152.556 363.601 148.982C366.472 142.244 371.13 136.97 377.575 133.161C384.021 129.353 391.433 127.449 399.812 127.449C411.237 127.449 420.583 130.906 427.849 137.82C435.173 144.675 438.835 153.494 438.835 164.275C438.835 172.302 436.638 178.923 432.243 184.138C430.427 186.189 427.702 188.269 424.069 190.378C427.761 192.546 430.778 194.831 433.122 197.234C438.161 202.976 440.681 210.417 440.681 219.558C440.681 231.218 436.989 240.505 429.607 247.419C422.224 254.275 412.292 257.703 399.812 257.703C387.097 257.703 376.96 254.04 369.402 246.716C363.366 240.857 359.939 231.921 359.118 219.91Z" fill="white"/>
<path fill-rule="evenodd" clip-rule="evenodd" d="M254.898 228.815L76.1046 228.815C59.536 228.815 46.1046 242.247 46.1046 258.815V545.454C46.1046 562.022 59.536 575.454 76.1046 575.454H724.749C741.318 575.454 754.749 562.022 754.749 545.454V258.815C754.749 242.247 741.318 228.815 724.749 228.815L545.956 228.815C525.349 289.395 467.977 332.978 400.427 332.978C332.876 332.978 275.505 289.395 254.898 228.815Z" fill="#7FE409"/>
<path d="M241.793 398.036H230.011V409.05H241.793V398.036Z" fill="#1E1E1E"/>
<path d="M173.063 391.974H169.477V343.479C169.477 338.954 165.806 335.283 161.281 335.283H151.377C155.902 335.283 159.573 338.954 159.573 343.479V463.693C159.573 468.218 155.902 471.889 151.377 471.889H161.195C165.72 471.889 169.392 468.218 169.392 463.693V415.197H172.978C175.539 415.197 177.673 413.063 177.673 410.502V396.67C177.673 394.023 175.624 391.974 173.063 391.974Z" fill="#1E1E1E"/>
<path d="M226.51 395.646L181.942 393.255C181.003 393.17 180.32 393.938 180.32 394.792V412.295C180.32 413.234 181.089 413.917 181.942 413.831L226.51 411.441C227.449 411.355 228.132 410.587 228.132 409.733V397.353C228.132 396.499 227.364 395.731 226.51 395.646Z" fill="#1E1E1E"/>
<path d="M155.048 463.522L108.773 475.475C109.712 474.536 110.651 473.511 111.419 472.401L155.902 461.644C156.073 460.961 156.243 460.277 156.243 459.509V459.424L112.7 469.925C113.042 469.071 113.383 468.218 113.639 467.364L156.158 457.801V455.667L114.152 465.144C114.237 464.376 114.322 463.522 114.322 462.753L156.158 453.959V451.825L114.322 460.619V458.228L156.158 450.117V447.983L114.322 456.094V453.703L156.158 446.275V444.141L114.322 451.569V449.178L156.158 442.433V440.299L114.322 447.044V444.824L156.158 438.762V436.713L114.322 442.775V440.384L156.158 435.005V432.871L114.322 438.25V435.859L156.158 431.163V429.114L114.322 433.81V431.419L156.158 427.407V425.358L114.322 429.37V426.98L156.158 423.565V421.515L114.322 424.931V422.54L156.158 419.808V417.759L114.322 420.491V418.1L156.158 416.051V414.002L114.322 416.051V413.661L156.158 412.295V410.245L114.322 411.612V409.221L156.158 408.538V406.489L114.322 407.172V404.781H156.158V402.732H114.322V400.342L156.158 401.025V398.719L114.322 398.036V395.646L156.158 397.012V394.963L114.322 393.597V391.206L156.158 393.255V391.206L114.322 389.157V386.766L156.158 389.498V387.449L114.322 384.717V382.327L156.158 385.656V383.607L114.322 380.277V377.887L156.158 381.9V379.851L114.322 375.838V373.447L156.158 378.143V376.094L114.322 371.398V368.837L156.158 374.216V372.166L114.322 366.788V364.397L156.158 370.459V368.41L114.322 362.348V359.957L156.158 366.702V364.568L114.322 357.823V355.432L156.158 362.86V360.726L114.322 353.298V350.907L156.158 359.018V356.884L114.322 348.773V346.382L156.158 355.176V353.042L114.322 344.248C114.322 343.479 114.237 342.625 114.152 341.857L156.158 351.334V349.2L113.639 339.723C113.383 338.869 113.042 337.93 112.7 337.161L156.158 347.663V347.577C156.158 346.809 156.073 346.126 155.816 345.443L111.334 334.685C110.566 333.575 109.712 332.551 108.687 331.612L155.048 343.565C154.194 342.199 152.914 341.089 151.462 340.491L111.932 330.331L102.455 327.94C100.662 327.343 98.8687 327.001 96.905 327.001C87.2572 327.001 79.4023 334.941 79.4023 344.589V462.583C79.4023 472.231 87.2572 480.171 96.905 480.171C98.9541 480.171 100.918 479.829 102.711 479.146L151.547 466.596C152.999 465.912 154.194 464.888 155.048 463.522ZM111.846 463.522C111.846 464.205 111.334 464.803 110.566 464.803C109.883 464.803 109.285 464.205 109.285 463.522V463.437V463.351C109.285 462.668 109.883 462.07 110.566 462.07C111.249 462.07 111.846 462.668 111.846 463.351V463.437V463.522ZM110.651 459.594C109.968 459.594 109.37 458.997 109.37 458.314C109.37 457.631 109.968 457.033 110.651 457.033C111.334 457.033 111.932 457.631 111.932 458.314C111.846 459.082 111.334 459.594 110.651 459.594ZM110.651 454.642C109.968 454.642 109.37 454.045 109.37 453.362C109.37 452.679 109.968 452.081 110.651 452.081C111.334 452.081 111.932 452.679 111.932 453.362C111.846 454.13 111.334 454.642 110.651 454.642ZM110.651 449.69C109.968 449.69 109.37 449.178 109.37 448.41C109.37 447.727 109.968 447.129 110.651 447.129C111.334 447.129 111.932 447.727 111.932 448.41C111.846 449.178 111.334 449.69 110.651 449.69ZM110.651 444.739C109.968 444.739 109.37 444.226 109.37 443.458C109.37 442.775 109.968 442.177 110.651 442.177C111.334 442.177 111.932 442.775 111.932 443.458C111.846 444.226 111.334 444.739 110.651 444.739ZM110.651 439.787C109.968 439.787 109.37 439.274 109.37 438.506C109.37 437.823 109.968 437.225 110.651 437.225C111.334 437.225 111.932 437.823 111.932 438.506C111.846 439.274 111.334 439.787 110.651 439.787ZM110.651 434.835C109.968 434.835 109.37 434.237 109.37 433.554C109.37 432.871 109.968 432.359 110.651 432.359C111.334 432.359 111.932 432.871 111.932 433.554C111.846 434.237 111.334 434.835 110.651 434.835ZM110.651 429.883C109.968 429.883 109.37 429.285 109.37 428.602C109.37 427.919 109.968 427.321 110.651 427.321C111.334 427.321 111.932 427.834 111.932 428.602C111.846 429.285 111.334 429.883 110.651 429.883ZM110.651 424.931C109.968 424.931 109.37 424.333 109.37 423.65C109.37 422.967 109.968 422.369 110.651 422.369C111.334 422.369 111.932 422.882 111.932 423.65C111.846 424.333 111.334 424.931 110.651 424.931ZM110.651 419.979C109.968 419.979 109.37 419.381 109.37 418.698C109.37 418.015 109.968 417.417 110.651 417.417C111.334 417.417 111.932 417.93 111.932 418.698C111.846 419.381 111.334 419.979 110.651 419.979ZM110.651 415.027C109.968 415.027 109.37 414.429 109.37 413.746C109.37 413.063 109.968 412.465 110.651 412.465C111.334 412.465 111.932 412.978 111.932 413.746C111.846 414.429 111.334 415.027 110.651 415.027ZM110.651 410.075C109.968 410.075 109.37 409.477 109.37 408.794C109.37 408.111 109.968 407.513 110.651 407.513C111.334 407.513 111.932 408.026 111.932 408.794C111.846 409.477 111.334 410.075 110.651 410.075ZM110.651 405.037C109.968 405.037 109.37 404.44 109.37 403.757C109.37 403.074 109.968 402.476 110.651 402.476C111.334 402.476 111.932 402.988 111.932 403.757C111.846 404.525 111.334 405.037 110.651 405.037ZM110.651 400.085C109.968 400.085 109.37 399.488 109.37 398.805C109.37 398.122 109.968 397.524 110.651 397.524C111.334 397.524 111.932 398.036 111.932 398.805C111.846 399.573 111.334 400.085 110.651 400.085ZM110.651 395.133C109.968 395.133 109.37 394.621 109.37 393.853C109.37 393.17 109.968 392.572 110.651 392.572C111.334 392.572 111.932 393.084 111.932 393.853C111.846 394.621 111.334 395.133 110.651 395.133ZM110.651 390.181C109.968 390.181 109.37 389.669 109.37 388.901C109.37 388.218 109.968 387.62 110.651 387.62C111.334 387.62 111.932 388.132 111.932 388.901C111.846 389.669 111.334 390.181 110.651 390.181ZM110.651 385.229C109.968 385.229 109.37 384.717 109.37 383.949C109.37 383.18 109.968 382.668 110.651 382.668C111.334 382.668 111.932 383.18 111.932 383.949C111.932 384.717 111.334 385.229 110.651 385.229ZM110.651 380.277C109.968 380.277 109.37 379.765 109.37 378.997C109.37 378.314 109.968 377.716 110.651 377.716C111.334 377.716 111.932 378.228 111.932 378.997C111.846 379.765 111.334 380.277 110.651 380.277ZM110.651 375.326C109.968 375.326 109.37 374.813 109.37 374.045C109.37 373.362 109.968 372.764 110.651 372.764C111.334 372.764 111.932 373.276 111.932 374.045C111.846 374.728 111.334 375.326 110.651 375.326ZM110.651 370.374C109.968 370.374 109.37 369.861 109.37 369.093C109.37 368.41 109.968 367.812 110.651 367.812C111.334 367.812 111.932 368.324 111.932 369.093C111.846 369.776 111.334 370.374 110.651 370.374ZM110.651 365.422C109.968 365.422 109.37 364.909 109.37 364.141C109.37 363.458 109.968 362.86 110.651 362.86C111.334 362.86 111.932 363.372 111.932 364.141C111.846 364.824 111.334 365.422 110.651 365.422ZM110.651 360.47C109.968 360.47 109.37 359.957 109.37 359.189C109.37 358.506 109.968 357.908 110.651 357.908C111.334 357.908 111.932 358.42 111.932 359.189C111.846 359.872 111.334 360.47 110.651 360.47ZM110.651 355.518C109.968 355.518 109.37 355.005 109.37 354.237C109.37 353.554 109.968 352.956 110.651 352.956C111.334 352.956 111.932 353.469 111.932 354.237C111.846 354.92 111.334 355.518 110.651 355.518ZM110.651 350.48C109.968 350.48 109.37 349.968 109.37 349.2C109.37 348.431 109.968 347.919 110.651 347.919C111.334 347.919 111.932 348.431 111.932 349.2C111.932 349.968 111.334 350.48 110.651 350.48ZM111.846 344.333C111.846 345.016 111.334 345.614 110.566 345.614C109.883 345.614 109.285 345.101 109.285 344.333C109.285 343.565 109.883 343.052 110.566 343.052C111.334 343.052 111.846 343.65 111.846 344.333ZM109.541 338.271C110.224 338.015 110.907 338.356 111.163 339.039C111.419 339.723 111.078 340.406 110.395 340.576C110.224 340.662 110.053 340.662 109.968 340.662C109.456 340.662 108.943 340.32 108.773 339.808C108.517 339.21 108.858 338.527 109.541 338.271ZM105.443 339.723C106.126 339.466 106.809 339.808 107.065 340.406C107.321 341.089 106.98 341.772 106.382 342.028C106.211 342.113 106.126 342.113 105.955 342.113C105.443 342.113 105.016 341.772 104.76 341.345C104.504 340.662 104.845 339.979 105.443 339.723ZM106.467 354.493C107.15 354.493 107.748 355.091 107.748 355.774C107.748 356.457 107.236 357.054 106.467 357.054C105.784 357.054 105.187 356.542 105.187 355.774C105.272 355.005 105.784 354.493 106.467 354.493ZM105.272 350.736C105.272 350.053 105.87 349.456 106.553 349.456C107.236 349.456 107.834 350.053 107.834 350.736C107.834 351.419 107.321 352.017 106.553 352.017C105.784 351.932 105.272 351.419 105.272 350.736ZM106.467 359.445C107.15 359.445 107.748 360.043 107.748 360.726C107.748 361.409 107.236 362.006 106.467 362.006C105.784 362.006 105.187 361.494 105.187 360.726C105.272 359.957 105.784 359.445 106.467 359.445ZM106.467 364.397C107.15 364.397 107.748 364.995 107.748 365.678C107.748 366.361 107.236 366.958 106.467 366.958C105.784 366.958 105.187 366.446 105.187 365.678C105.272 364.909 105.784 364.397 106.467 364.397ZM106.467 369.349C107.15 369.349 107.748 369.947 107.748 370.63C107.748 371.313 107.236 371.91 106.467 371.91C105.784 371.91 105.187 371.398 105.187 370.63C105.272 369.861 105.784 369.349 106.467 369.349ZM106.467 374.301C107.15 374.301 107.748 374.899 107.748 375.582C107.748 376.265 107.236 376.777 106.467 376.777C105.784 376.777 105.187 376.179 105.187 375.582C105.272 374.813 105.784 374.301 106.467 374.301ZM106.467 379.253C107.15 379.253 107.748 379.851 107.748 380.534C107.748 381.217 107.236 381.814 106.467 381.814C105.784 381.814 105.187 381.217 105.187 380.534C105.272 379.765 105.784 379.253 106.467 379.253ZM106.467 384.205C107.15 384.205 107.748 384.803 107.748 385.486C107.748 386.169 107.236 386.766 106.467 386.766C105.784 386.766 105.187 386.169 105.187 385.486C105.272 384.803 105.784 384.205 106.467 384.205ZM106.467 389.157C107.15 389.157 107.748 389.755 107.748 390.438C107.748 391.121 107.236 391.718 106.467 391.718C105.784 391.718 105.187 391.121 105.187 390.438C105.272 389.755 105.784 389.157 106.467 389.157ZM106.467 394.109C107.15 394.109 107.748 394.707 107.748 395.39C107.748 396.073 107.236 396.67 106.467 396.67C105.784 396.67 105.187 396.073 105.187 395.39C105.272 394.707 105.784 394.109 106.467 394.109ZM106.467 399.061C107.15 399.061 107.748 399.573 107.748 400.342C107.748 401.025 107.236 401.537 106.467 401.537C105.784 401.537 105.187 400.939 105.187 400.342C105.272 399.658 105.784 399.061 106.467 399.061ZM106.467 404.013C107.15 404.013 107.748 404.61 107.748 405.293C107.748 405.977 107.236 406.489 106.467 406.489C105.784 406.489 105.187 405.977 105.187 405.293C105.272 404.61 105.784 404.013 106.467 404.013ZM106.467 408.965C107.15 408.965 107.748 409.562 107.748 410.245C107.748 410.928 107.236 411.526 106.467 411.526C105.784 411.526 105.187 411.014 105.187 410.245C105.272 409.562 105.784 408.965 106.467 408.965ZM106.467 414.002C107.15 414.002 107.748 414.6 107.748 415.283C107.748 415.966 107.236 416.564 106.467 416.564C105.784 416.564 105.187 416.051 105.187 415.283C105.272 414.514 105.784 414.002 106.467 414.002ZM106.467 418.954C107.15 418.954 107.748 419.552 107.748 420.235C107.748 420.918 107.236 421.515 106.467 421.515C105.784 421.515 105.187 421.003 105.187 420.235C105.272 419.466 105.784 418.954 106.467 418.954ZM106.467 423.906C107.15 423.906 107.748 424.504 107.748 425.187C107.748 425.87 107.236 426.467 106.467 426.467C105.784 426.467 105.187 425.955 105.187 425.187C105.272 424.418 105.784 423.906 106.467 423.906ZM106.467 428.858C107.15 428.858 107.748 429.37 107.748 430.053C107.748 430.736 107.236 431.334 106.467 431.334C105.784 431.334 105.187 430.822 105.187 430.053C105.272 429.37 105.784 428.858 106.467 428.858ZM106.467 433.81C107.15 433.81 107.748 434.408 107.748 435.091C107.748 435.774 107.236 436.371 106.467 436.371C105.784 436.371 105.187 435.859 105.187 435.091C105.272 434.322 105.784 433.81 106.467 433.81ZM106.467 438.762C107.15 438.762 107.748 439.36 107.748 440.043C107.748 440.726 107.236 441.323 106.467 441.323C105.784 441.323 105.187 440.811 105.187 440.043C105.272 439.36 105.784 438.762 106.467 438.762ZM106.467 443.714C107.15 443.714 107.748 444.312 107.748 444.995C107.748 445.678 107.236 446.275 106.467 446.275C105.784 446.275 105.187 445.763 105.187 444.995C105.272 444.312 105.784 443.714 106.467 443.714ZM106.467 448.666C107.15 448.666 107.748 449.178 107.748 449.947C107.748 450.63 107.236 451.227 106.467 451.227C105.784 451.227 105.187 450.715 105.187 449.947C105.272 449.264 105.784 448.666 106.467 448.666ZM106.467 453.618C107.15 453.618 107.748 454.216 107.748 454.899C107.748 455.582 107.236 456.179 106.467 456.179C105.784 456.179 105.187 455.667 105.187 454.899C105.272 454.216 105.784 453.618 106.467 453.618ZM106.467 458.57C107.15 458.57 107.748 459.082 107.748 459.851C107.748 460.534 107.236 461.131 106.467 461.131C105.784 461.131 105.187 460.619 105.187 459.851C105.272 459.168 105.784 458.57 106.467 458.57ZM106.467 461.644C107.15 461.644 107.748 462.241 107.748 462.924C107.748 463.607 107.15 464.205 106.467 464.205C105.784 464.205 105.187 463.693 105.187 462.924C105.272 462.241 105.784 461.644 106.467 461.644ZM106.467 346.98C105.784 346.98 105.187 346.382 105.187 345.699C105.187 345.016 105.784 344.418 106.467 344.418C107.15 344.418 107.748 345.016 107.748 345.699C107.748 346.467 107.15 346.98 106.467 346.98ZM102.455 331.526C102.796 330.928 103.479 330.672 104.162 331.014C104.76 331.355 105.016 332.038 104.674 332.721C104.418 333.148 103.991 333.404 103.565 333.404C103.394 333.404 103.138 333.319 102.967 333.234C102.369 332.892 102.199 332.209 102.455 331.526ZM102.028 336.137C102.455 335.624 103.223 335.539 103.735 335.966C104.248 336.393 104.333 337.161 103.906 337.673C103.65 338.015 103.308 338.1 102.967 338.1C102.711 338.1 102.455 338.015 102.199 337.844C101.686 337.417 101.601 336.649 102.028 336.137ZM103.223 462.327C103.223 463.01 102.711 463.607 101.942 463.607C101.259 463.607 100.662 463.01 100.662 462.327V462.241V462.156C100.662 461.473 101.259 460.875 101.942 460.875C102.625 460.875 103.223 461.473 103.223 462.156V462.241C103.223 462.241 103.223 462.241 103.223 462.327ZM101.942 458.399C101.259 458.399 100.662 457.801 100.662 457.118C100.662 456.435 101.259 455.838 101.942 455.838C102.625 455.838 103.223 456.435 103.223 457.118C103.223 457.801 102.625 458.399 101.942 458.399ZM101.942 453.447C101.259 453.447 100.662 452.935 100.662 452.166C100.662 451.483 101.259 450.886 101.942 450.886C102.625 450.886 103.223 451.483 103.223 452.166C103.223 452.85 102.625 453.447 101.942 453.447ZM101.942 448.495C101.259 448.495 100.662 447.898 100.662 447.215C100.662 446.531 101.259 445.934 101.942 445.934C102.625 445.934 103.223 446.531 103.223 447.215C103.223 447.898 102.625 448.495 101.942 448.495ZM101.942 443.543C101.259 443.543 100.662 443.031 100.662 442.263C100.662 441.58 101.259 440.982 101.942 440.982C102.625 440.982 103.223 441.58 103.223 442.263C103.223 442.946 102.625 443.543 101.942 443.543ZM101.942 438.591C101.259 438.591 100.662 437.994 100.662 437.311C100.662 436.628 101.259 436.03 101.942 436.03C102.625 436.03 103.223 436.628 103.223 437.311C103.223 437.994 102.625 438.591 101.942 438.591ZM101.942 433.554C101.259 433.554 100.662 433.042 100.662 432.359C100.662 431.676 101.259 431.078 101.942 431.078C102.625 431.078 103.223 431.59 103.223 432.359C103.223 433.042 102.625 433.554 101.942 433.554ZM101.942 428.602C101.259 428.602 100.662 428.004 100.662 427.321C100.662 426.638 101.259 426.041 101.942 426.041C102.625 426.041 103.223 426.553 103.223 427.321C103.223 428.09 102.625 428.602 101.942 428.602ZM101.942 423.65C101.259 423.65 100.662 423.052 100.662 422.369C100.662 421.686 101.259 421.089 101.942 421.089C102.625 421.089 103.223 421.601 103.223 422.369C103.223 423.138 102.625 423.65 101.942 423.65ZM101.942 418.698C101.259 418.698 100.662 418.1 100.662 417.417C100.662 416.734 101.259 416.137 101.942 416.137C102.625 416.137 103.223 416.649 103.223 417.417C103.223 418.186 102.625 418.698 101.942 418.698ZM101.942 413.746C101.259 413.746 100.662 413.148 100.662 412.465C100.662 411.782 101.259 411.185 101.942 411.185C102.625 411.185 103.223 411.697 103.223 412.465C103.223 413.234 102.625 413.746 101.942 413.746ZM101.942 408.794C101.259 408.794 100.662 408.196 100.662 407.513C100.662 406.83 101.259 406.233 101.942 406.233C102.625 406.233 103.223 406.745 103.223 407.513C103.223 408.282 102.625 408.794 101.942 408.794ZM101.942 403.842C101.259 403.842 100.662 403.244 100.662 402.561C100.662 401.878 101.259 401.281 101.942 401.281C102.625 401.281 103.223 401.793 103.223 402.561C103.223 403.244 102.625 403.842 101.942 403.842ZM101.942 398.89C101.259 398.89 100.662 398.378 100.662 397.609C100.662 396.926 101.259 396.329 101.942 396.329C102.625 396.329 103.223 396.841 103.223 397.609C103.223 398.292 102.625 398.89 101.942 398.89ZM101.942 393.938C101.259 393.938 100.662 393.34 100.662 392.657C100.662 391.974 101.259 391.377 101.942 391.377C102.625 391.377 103.223 391.889 103.223 392.657C103.223 393.34 102.625 393.938 101.942 393.938ZM101.942 388.986C101.259 388.986 100.662 388.474 100.662 387.705C100.662 387.022 101.259 386.425 101.942 386.425C102.625 386.425 103.223 386.937 103.223 387.705C103.223 388.388 102.625 388.986 101.942 388.986ZM101.942 384.034C101.259 384.034 100.662 383.437 100.662 382.753C100.662 382.07 101.259 381.473 101.942 381.473C102.625 381.473 103.223 381.985 103.223 382.753C103.223 383.437 102.625 384.034 101.942 384.034ZM101.942 378.997C101.259 378.997 100.662 378.485 100.662 377.716C100.662 377.033 101.259 376.435 101.942 376.435C102.625 376.435 103.223 376.948 103.223 377.716C103.223 378.485 102.625 378.997 101.942 378.997ZM101.942 374.045C101.259 374.045 100.662 373.447 100.662 372.764C100.662 372.081 101.259 371.483 101.942 371.483C102.625 371.483 103.223 371.996 103.223 372.764C103.223 373.533 102.625 374.045 101.942 374.045ZM101.942 369.093C101.259 369.093 100.662 368.581 100.662 367.812C100.662 367.129 101.259 366.531 101.942 366.531C102.625 366.531 103.223 367.044 103.223 367.812C103.223 368.581 102.625 369.093 101.942 369.093ZM101.942 364.141C101.259 364.141 100.662 363.629 100.662 362.86C100.662 362.177 101.259 361.58 101.942 361.58C102.625 361.58 103.223 362.092 103.223 362.86C103.223 363.629 102.625 364.141 101.942 364.141ZM101.942 359.189C101.259 359.189 100.662 358.677 100.662 357.908C100.662 357.225 101.259 356.628 101.942 356.628C102.625 356.628 103.223 357.14 103.223 357.908C103.223 358.677 102.625 359.189 101.942 359.189ZM101.942 354.237C101.259 354.237 100.662 353.725 100.662 352.956C100.662 352.188 101.259 351.676 101.942 351.676C102.625 351.676 103.223 352.188 103.223 352.956C103.223 353.725 102.625 354.237 101.942 354.237ZM101.942 349.285C101.259 349.285 100.662 348.773 100.662 348.004C100.662 347.321 101.259 346.724 101.942 346.724C102.625 346.724 103.223 347.236 103.223 348.004C103.223 348.687 102.625 349.285 101.942 349.285ZM101.43 341.857C102.113 341.686 102.796 342.113 102.967 342.796C103.138 343.479 102.711 344.162 102.028 344.333C101.942 344.333 101.857 344.333 101.686 344.333C101.174 344.333 100.662 343.991 100.491 343.394C100.32 342.711 100.747 342.028 101.43 341.857ZM98.9541 329.562C99.6371 329.648 100.149 330.245 100.064 330.928C99.9787 331.612 99.4664 332.038 98.8687 332.038H98.7833C98.1003 331.953 97.588 331.355 97.6734 330.672C97.6734 329.989 98.2711 329.477 98.9541 329.562ZM97.3319 334.771C97.4173 334.088 98.0149 333.575 98.698 333.746C99.381 333.831 99.8933 334.429 99.7225 335.112C99.6371 335.71 99.1249 336.222 98.5272 336.222C98.4418 336.222 98.4418 336.222 98.3565 336.222C97.6734 336.051 97.2465 335.454 97.3319 334.771ZM99.8933 339.808C99.7225 340.235 99.2102 340.576 98.7833 340.576C98.6126 340.576 98.4418 340.576 98.2711 340.491C97.6734 340.235 97.3319 339.466 97.588 338.869C97.8442 338.271 98.6126 337.93 99.2102 338.186C99.8933 338.442 100.235 339.21 99.8933 339.808ZM97.2465 341.857C97.9296 341.857 98.5272 342.369 98.5272 343.138C98.5272 343.821 98.0149 344.418 97.2465 344.418C96.5635 344.418 95.9658 343.821 95.9658 343.138C96.0512 342.455 96.6489 341.857 97.2465 341.857ZM97.2465 346.809C97.9296 346.809 98.5272 347.321 98.5272 348.09C98.5272 348.773 98.0149 349.37 97.2465 349.37C96.5635 349.37 95.9658 348.773 95.9658 348.09C96.0512 347.407 96.6489 346.809 97.2465 346.809ZM97.2465 351.761C97.9296 351.761 98.5272 352.273 98.5272 353.042C98.5272 353.725 98.0149 354.322 97.2465 354.322C96.5635 354.322 95.9658 353.725 95.9658 353.042C96.0512 352.359 96.6489 351.761 97.2465 351.761ZM97.2465 356.798C97.9296 356.798 98.5272 357.311 98.5272 358.079C98.5272 358.762 98.0149 359.36 97.2465 359.36C96.5635 359.36 95.9658 358.762 95.9658 358.079C96.0512 357.311 96.6489 356.798 97.2465 356.798ZM97.2465 361.75C97.9296 361.75 98.5272 362.263 98.5272 362.946C98.5272 363.629 98.0149 364.226 97.2465 364.226C96.5635 364.226 95.9658 363.629 95.9658 362.946C96.0512 362.263 96.6489 361.75 97.2465 361.75ZM97.2465 366.702C97.9296 366.702 98.5272 367.3 98.5272 367.983C98.5272 368.666 98.0149 369.264 97.2465 369.264C96.5635 369.264 95.9658 368.666 95.9658 367.983C96.0512 367.215 96.6489 366.702 97.2465 366.702ZM97.2465 371.654C97.9296 371.654 98.5272 372.252 98.5272 372.935C98.5272 373.618 98.0149 374.216 97.2465 374.216C96.5635 374.216 95.9658 373.618 95.9658 372.935C96.0512 372.166 96.6489 371.654 97.2465 371.654ZM97.2465 376.606C97.9296 376.606 98.5272 377.204 98.5272 377.887C98.5272 378.57 98.0149 379.168 97.2465 379.168C96.5635 379.168 95.9658 378.57 95.9658 377.887C96.0512 377.118 96.6489 376.606 97.2465 376.606ZM97.2465 381.558C97.9296 381.558 98.5272 382.156 98.5272 382.839C98.5272 383.522 98.0149 384.12 97.2465 384.12C96.5635 384.12 95.9658 383.522 95.9658 382.839C96.0512 382.156 96.6489 381.558 97.2465 381.558ZM97.2465 386.51C97.9296 386.51 98.5272 387.108 98.5272 387.791C98.5272 388.474 98.0149 389.072 97.2465 389.072C96.5635 389.072 95.9658 388.559 95.9658 387.791C96.0512 387.108 96.6489 386.51 97.2465 386.51ZM97.2465 391.462C97.9296 391.462 98.5272 392.06 98.5272 392.743C98.5272 393.426 98.0149 393.938 97.2465 393.938C96.5635 393.938 95.9658 393.426 95.9658 392.743C96.0512 392.06 96.6489 391.462 97.2465 391.462ZM97.2465 396.414C97.9296 396.414 98.5272 396.926 98.5272 397.695C98.5272 398.378 98.0149 398.975 97.2465 398.975C96.5635 398.975 95.9658 398.378 95.9658 397.695C96.0512 397.012 96.6489 396.414 97.2465 396.414ZM97.2465 401.366C97.9296 401.366 98.5272 401.878 98.5272 402.647C98.5272 403.33 98.0149 403.927 97.2465 403.927C96.5635 403.927 95.9658 403.33 95.9658 402.647C96.0512 401.964 96.6489 401.366 97.2465 401.366ZM97.2465 406.318C97.9296 406.318 98.5272 406.83 98.5272 407.599C98.5272 408.282 98.0149 408.879 97.2465 408.879C96.5635 408.879 95.9658 408.282 95.9658 407.599C96.0512 406.916 96.6489 406.318 97.2465 406.318ZM97.2465 411.355C97.9296 411.355 98.5272 411.868 98.5272 412.551C98.5272 413.234 98.0149 413.831 97.2465 413.831C96.5635 413.831 95.9658 413.234 95.9658 412.551C96.0512 411.868 96.6489 411.355 97.2465 411.355ZM97.2465 416.307C97.9296 416.307 98.5272 416.82 98.5272 417.588C98.5272 418.271 98.0149 418.869 97.2465 418.869C96.5635 418.869 95.9658 418.271 95.9658 417.588C96.0512 416.82 96.6489 416.307 97.2465 416.307ZM97.2465 421.259C97.9296 421.259 98.5272 421.857 98.5272 422.54C98.5272 423.223 98.0149 423.821 97.2465 423.821C96.5635 423.821 95.9658 423.223 95.9658 422.54C96.0512 421.772 96.6489 421.259 97.2465 421.259ZM97.2465 426.211C97.9296 426.211 98.5272 426.724 98.5272 427.492C98.5272 428.175 98.0149 428.773 97.2465 428.773C96.5635 428.773 95.9658 428.175 95.9658 427.492C96.0512 426.724 96.6489 426.211 97.2465 426.211ZM97.2465 431.163C97.9296 431.163 98.5272 431.676 98.5272 432.444C98.5272 433.127 98.0149 433.725 97.2465 433.725C96.5635 433.725 95.9658 433.127 95.9658 432.444C96.0512 431.676 96.6489 431.163 97.2465 431.163ZM97.2465 436.115C97.9296 436.115 98.5272 436.628 98.5272 437.396C98.5272 438.079 98.0149 438.591 97.2465 438.591C96.5635 438.591 95.9658 438.079 95.9658 437.396C96.0512 436.628 96.6489 436.115 97.2465 436.115ZM97.2465 441.067C97.9296 441.067 98.5272 441.58 98.5272 442.348C98.5272 443.031 98.0149 443.629 97.2465 443.629C96.5635 443.629 95.9658 443.031 95.9658 442.348C96.0512 441.665 96.6489 441.067 97.2465 441.067ZM97.2465 446.019C97.9296 446.019 98.5272 446.531 98.5272 447.215C98.5272 447.898 98.0149 448.495 97.2465 448.495C96.5635 448.495 95.9658 447.983 95.9658 447.215C96.0512 446.617 96.6489 446.019 97.2465 446.019ZM97.2465 450.971C97.9296 450.971 98.5272 451.483 98.5272 452.252C98.5272 452.935 98.0149 453.533 97.2465 453.533C96.5635 453.533 95.9658 452.935 95.9658 452.252C96.0512 451.569 96.6489 450.971 97.2465 450.971ZM97.2465 455.923C97.9296 455.923 98.5272 456.435 98.5272 457.118C98.5272 457.801 98.0149 458.399 97.2465 458.399C96.5635 458.399 95.9658 457.801 95.9658 457.118C96.0512 456.521 96.6489 455.923 97.2465 455.923ZM97.2465 460.875C97.9296 460.875 98.5272 461.387 98.5272 462.156C98.5272 462.839 98.0149 463.437 97.2465 463.437C96.5635 463.437 95.9658 462.839 95.9658 462.156C96.0512 461.473 96.6489 460.875 97.2465 460.875ZM93.4045 341.259C92.8922 340.832 92.8922 339.979 93.3191 339.466C93.746 338.954 94.5998 338.954 95.1121 339.381C95.6243 339.808 95.6243 340.662 95.1974 341.089C94.9413 341.345 94.5998 341.515 94.2583 341.515C94.0021 341.601 93.6606 341.515 93.4045 341.259ZM93.1483 465.144C93.063 465.144 92.9776 465.144 92.8922 465.144C92.2946 465.144 91.7823 464.717 91.6969 464.205C91.5261 463.522 91.953 462.839 92.6361 462.753C93.3191 462.583 94.0021 463.01 94.0875 463.693C94.1729 464.29 93.746 464.973 93.1483 465.144ZM93.6606 329.819C94.3436 329.648 95.0267 330.075 95.1121 330.758C95.2828 331.441 94.8559 332.124 94.1729 332.209C94.0875 332.209 94.0021 332.209 93.9168 332.209C93.3191 332.209 92.8068 331.782 92.7214 331.27C92.5507 330.672 92.9776 329.989 93.6606 329.819ZM93.1483 334.514C93.746 334.258 94.5144 334.514 94.7705 335.112C95.0267 335.71 94.7705 336.478 94.0875 336.734C93.9168 336.82 93.746 336.82 93.5752 336.82C93.063 336.82 92.6361 336.564 92.4653 336.051C92.2946 335.454 92.5507 334.771 93.1483 334.514ZM92.6361 343.65C93.3191 343.65 93.9168 344.248 93.9168 344.931C93.9168 345.614 93.4045 346.211 92.6361 346.211C91.953 346.211 91.3554 345.699 91.3554 344.931C91.3554 344.248 91.953 343.65 92.6361 343.65ZM92.6361 348.687C93.3191 348.687 93.9168 349.285 93.9168 349.968C93.9168 350.651 93.4045 351.249 92.6361 351.249C91.953 351.249 91.3554 350.736 91.3554 349.968C91.3554 349.2 91.953 348.687 92.6361 348.687ZM92.6361 353.639C93.3191 353.639 93.9168 354.237 93.9168 354.92C93.9168 355.603 93.4045 356.201 92.6361 356.201C91.953 356.201 91.3554 355.688 91.3554 354.92C91.3554 354.152 91.953 353.639 92.6361 353.639ZM92.6361 358.591C93.3191 358.591 93.9168 359.189 93.9168 359.872C93.9168 360.555 93.4045 361.153 92.6361 361.153C91.953 361.153 91.3554 360.64 91.3554 359.872C91.3554 359.104 91.953 358.591 92.6361 358.591ZM92.6361 363.543C93.3191 363.543 93.9168 364.141 93.9168 364.824C93.9168 365.507 93.4045 366.105 92.6361 366.105C91.953 366.105 91.3554 365.592 91.3554 364.824C91.3554 364.055 91.953 363.543 92.6361 363.543ZM92.6361 368.495C93.3191 368.495 93.9168 369.093 93.9168 369.776C93.9168 370.459 93.4045 371.057 92.6361 371.057C91.953 371.057 91.3554 370.544 91.3554 369.776C91.3554 369.007 91.953 368.495 92.6361 368.495ZM92.6361 373.447C93.3191 373.447 93.9168 374.045 93.9168 374.728C93.9168 375.411 93.4045 376.009 92.6361 376.009C91.953 376.009 91.3554 375.496 91.3554 374.728C91.3554 374.045 91.953 373.447 92.6361 373.447ZM92.6361 378.399C93.3191 378.399 93.9168 378.911 93.9168 379.68C93.9168 380.363 93.4045 380.961 92.6361 380.961C91.953 380.961 91.3554 380.448 91.3554 379.68C91.3554 378.997 91.953 378.399 92.6361 378.399ZM92.6361 383.351C93.3191 383.351 93.9168 383.949 93.9168 384.632C93.9168 385.315 93.4045 385.912 92.6361 385.912C91.953 385.912 91.3554 385.4 91.3554 384.632C91.3554 383.949 91.953 383.351 92.6361 383.351ZM92.6361 388.303C93.3191 388.303 93.9168 388.815 93.9168 389.584C93.9168 390.352 93.4045 390.864 92.6361 390.864C91.953 390.864 91.3554 390.352 91.3554 389.584C91.3554 388.815 91.953 388.303 92.6361 388.303ZM92.6361 393.255C93.3191 393.255 93.9168 393.853 93.9168 394.536C93.9168 395.219 93.4045 395.816 92.6361 395.816C91.953 395.816 91.3554 395.304 91.3554 394.536C91.3554 393.853 91.953 393.255 92.6361 393.255ZM92.6361 398.207C93.3191 398.207 93.9168 398.719 93.9168 399.488C93.9168 400.171 93.4045 400.768 92.6361 400.768C91.953 400.768 91.3554 400.256 91.3554 399.488C91.3554 398.805 91.953 398.207 92.6361 398.207ZM92.6361 403.244C93.3191 403.244 93.9168 403.842 93.9168 404.525C93.9168 405.208 93.4045 405.806 92.6361 405.806C91.953 405.806 91.3554 405.293 91.3554 404.525C91.3554 403.757 91.953 403.244 92.6361 403.244ZM92.6361 408.196C93.3191 408.196 93.9168 408.794 93.9168 409.477C93.9168 410.16 93.4045 410.758 92.6361 410.758C91.953 410.758 91.3554 410.245 91.3554 409.477C91.3554 408.709 91.953 408.196 92.6361 408.196ZM92.6361 413.148C93.3191 413.148 93.9168 413.746 93.9168 414.429C93.9168 415.112 93.4045 415.71 92.6361 415.71C91.953 415.71 91.3554 415.197 91.3554 414.429C91.3554 413.661 91.953 413.148 92.6361 413.148ZM92.6361 418.1C93.3191 418.1 93.9168 418.698 93.9168 419.381C93.9168 420.064 93.4045 420.662 92.6361 420.662C91.953 420.662 91.3554 420.149 91.3554 419.381C91.3554 418.613 91.953 418.1 92.6361 418.1ZM92.6361 423.052C93.3191 423.052 93.9168 423.65 93.9168 424.333C93.9168 425.016 93.4045 425.614 92.6361 425.614C91.953 425.614 91.3554 425.101 91.3554 424.333C91.3554 423.565 91.953 423.052 92.6361 423.052ZM92.6361 428.004C93.3191 428.004 93.9168 428.602 93.9168 429.285C93.9168 429.968 93.4045 430.566 92.6361 430.566C91.953 430.566 91.3554 430.053 91.3554 429.285C91.3554 428.602 91.953 428.004 92.6361 428.004ZM92.6361 432.956C93.3191 432.956 93.9168 433.469 93.9168 434.237C93.9168 434.92 93.4045 435.518 92.6361 435.518C91.953 435.518 91.3554 434.92 91.3554 434.237C91.3554 433.554 91.953 432.956 92.6361 432.956ZM92.6361 437.908C93.3191 437.908 93.9168 438.506 93.9168 439.189C93.9168 439.872 93.4045 440.47 92.6361 440.47C91.953 440.47 91.3554 439.872 91.3554 439.189C91.3554 438.506 91.953 437.908 92.6361 437.908ZM92.6361 442.86C93.3191 442.86 93.9168 443.372 93.9168 444.141C93.9168 444.824 93.4045 445.422 92.6361 445.422C91.953 445.422 91.3554 444.824 91.3554 444.141C91.3554 443.458 91.953 442.86 92.6361 442.86ZM92.6361 447.812C93.3191 447.812 93.9168 448.41 93.9168 449.093C93.9168 449.776 93.4045 450.374 92.6361 450.374C91.953 450.374 91.3554 449.776 91.3554 449.093C91.3554 448.41 91.953 447.812 92.6361 447.812ZM92.6361 452.764C93.3191 452.764 93.9168 453.276 93.9168 454.045C93.9168 454.728 93.4045 455.326 92.6361 455.326C91.953 455.326 91.3554 454.728 91.3554 454.045C91.3554 453.362 91.953 452.764 92.6361 452.764ZM92.6361 457.801C93.3191 457.801 93.9168 458.399 93.9168 459.082C93.9168 459.765 93.4045 460.363 92.6361 460.363C91.953 460.363 91.3554 459.765 91.3554 459.082C91.3554 458.314 91.953 457.801 92.6361 457.801ZM88.7086 332.124C89.3063 331.697 90.0747 331.868 90.4162 332.38C90.8431 332.978 90.6724 333.746 90.1601 334.088C89.9039 334.258 89.7332 334.344 89.4771 334.344C89.0502 334.344 88.7086 334.173 88.4525 333.831C88.0256 333.234 88.111 332.465 88.7086 332.124ZM88.2817 342.028C88.9648 342.113 89.477 342.711 89.3917 343.394C89.3063 343.991 88.794 344.504 88.1964 344.504H88.111C87.428 344.418 86.9157 343.821 87.0011 343.138C87.0011 342.455 87.5987 341.942 88.2817 342.028ZM88.111 453.618C87.428 453.618 86.8303 453.106 86.8303 452.423C86.8303 451.74 87.428 451.142 88.111 451.142C88.794 451.142 89.3917 451.654 89.3917 452.423C89.3063 453.106 88.794 453.618 88.111 453.618ZM89.3063 457.375C89.3063 458.058 88.794 458.655 88.0256 458.655C87.3426 458.655 86.7449 458.058 86.7449 457.375C86.7449 456.692 87.3426 456.179 88.0256 456.179C88.794 456.094 89.3063 456.692 89.3063 457.375ZM88.111 448.666C87.428 448.666 86.8303 448.068 86.8303 447.385C86.8303 446.702 87.428 446.105 88.111 446.105C88.794 446.105 89.3917 446.702 89.3917 447.385C89.3063 448.154 88.794 448.666 88.111 448.666ZM88.111 443.714C87.428 443.714 86.8303 443.202 86.8303 442.433C86.8303 441.75 87.428 441.238 88.111 441.238C88.794 441.238 89.3917 441.75 89.3917 442.433C89.3063 443.116 88.794 443.714 88.111 443.714ZM88.111 438.762C87.428 438.762 86.8303 438.25 86.8303 437.567C86.8303 436.884 87.428 436.286 88.111 436.286C88.794 436.286 89.3917 436.884 89.3917 437.567C89.3063 438.164 88.794 438.762 88.111 438.762ZM88.111 433.81C87.428 433.81 86.8303 433.212 86.8303 432.529C86.8303 431.846 87.428 431.249 88.111 431.249C88.794 431.249 89.3917 431.846 89.3917 432.529C89.3063 433.212 88.794 433.81 88.111 433.81ZM88.111 428.858C87.428 428.858 86.8303 428.346 86.8303 427.663C86.8303 426.98 87.428 426.382 88.111 426.382C88.794 426.382 89.3917 426.894 89.3917 427.663C89.3063 428.26 88.794 428.858 88.111 428.858ZM88.111 423.906C87.428 423.906 86.8303 423.308 86.8303 422.625C86.8303 421.942 87.428 421.345 88.111 421.345C88.794 421.345 89.3917 421.942 89.3917 422.625C89.3063 423.308 88.794 423.906 88.111 423.906ZM88.111 418.954C87.428 418.954 86.8303 418.356 86.8303 417.673C86.8303 416.99 87.428 416.478 88.111 416.478C88.794 416.478 89.3917 416.99 89.3917 417.673C89.3063 418.356 88.794 418.954 88.111 418.954ZM88.111 413.917C87.428 413.917 86.8303 413.319 86.8303 412.636C86.8303 411.953 87.428 411.355 88.111 411.355C88.794 411.355 89.3917 411.868 89.3917 412.636C89.3063 413.404 88.794 413.917 88.111 413.917ZM88.111 408.965C87.428 408.965 86.8303 408.367 86.8303 407.684C86.8303 407.001 87.428 406.403 88.111 406.403C88.794 406.403 89.3917 406.916 89.3917 407.684C89.3063 408.453 88.794 408.965 88.111 408.965ZM88.111 404.013C87.428 404.013 86.8303 403.501 86.8303 402.818C86.8303 402.134 87.428 401.537 88.111 401.537C88.794 401.537 89.3917 402.049 89.3917 402.818C89.3063 403.501 88.794 404.013 88.111 404.013ZM88.111 399.061C87.428 399.061 86.8303 398.463 86.8303 397.78C86.8303 397.097 87.428 396.499 88.111 396.499C88.794 396.499 89.3917 397.097 89.3917 397.78C89.3063 398.549 88.794 399.061 88.111 399.061ZM88.111 394.109C87.428 394.109 86.8303 393.511 86.8303 392.828C86.8303 392.145 87.428 391.633 88.111 391.633C88.794 391.633 89.3917 392.145 89.3917 392.828C89.3063 393.597 88.794 394.109 88.111 394.109ZM88.111 389.157C87.428 389.157 86.8303 388.645 86.8303 387.962C86.8303 387.279 87.428 386.681 88.111 386.681C88.794 386.681 89.3917 387.193 89.3917 387.962C89.3063 388.559 88.794 389.157 88.111 389.157ZM88.111 384.205C87.428 384.205 86.8303 383.607 86.8303 382.924C86.8303 382.241 87.428 381.644 88.111 381.644C88.794 381.644 89.3917 382.156 89.3917 382.924C89.3063 383.607 88.794 384.205 88.111 384.205ZM88.111 379.253C87.428 379.253 86.8303 378.655 86.8303 377.972C86.8303 377.289 87.428 376.692 88.111 376.692C88.794 376.692 89.3917 377.204 89.3917 377.972C89.3063 378.655 88.794 379.253 88.111 379.253ZM88.111 374.301C87.428 374.301 86.8303 373.703 86.8303 373.02C86.8303 372.337 87.428 371.74 88.111 371.74C88.794 371.74 89.3917 372.337 89.3917 373.02C89.3063 373.703 88.794 374.301 88.111 374.301ZM88.111 369.349C87.428 369.349 86.8303 368.751 86.8303 368.068C86.8303 367.385 87.428 366.873 88.111 366.873C88.794 366.873 89.3917 367.471 89.3917 368.068C89.3063 368.751 88.794 369.349 88.111 369.349ZM88.111 364.397C87.428 364.397 86.8303 363.799 86.8303 363.202C86.8303 362.519 87.428 361.921 88.111 361.921C88.794 361.921 89.3917 362.519 89.3917 363.202C89.3063 363.799 88.794 364.397 88.111 364.397ZM88.111 359.36C87.428 359.36 86.8303 358.762 86.8303 358.079C86.8303 357.396 87.428 356.798 88.111 356.798C88.794 356.798 89.3917 357.396 89.3917 358.079C89.3063 358.847 88.794 359.36 88.111 359.36ZM88.111 354.408C87.428 354.408 86.8303 353.81 86.8303 353.127C86.8303 352.444 87.428 351.846 88.111 351.846C88.794 351.846 89.3917 352.444 89.3917 353.127C89.3063 353.895 88.794 354.408 88.111 354.408ZM88.111 349.456C87.428 349.456 86.8303 348.858 86.8303 348.175C86.8303 347.492 87.428 346.894 88.111 346.894C88.794 346.894 89.3917 347.492 89.3917 348.175C89.3063 348.943 88.794 349.456 88.111 349.456ZM84.952 335.966C85.2935 335.368 86.0619 335.197 86.6595 335.624C87.2572 335.966 87.428 336.734 87.0011 337.332C86.7449 337.673 86.4034 337.93 85.9765 337.93C85.7204 337.93 85.5496 337.844 85.2935 337.759C84.7812 337.332 84.6105 336.564 84.952 335.966ZM82.9883 341.003C83.0736 340.32 83.7567 339.893 84.4397 339.979C85.1227 340.149 85.5496 340.747 85.4642 341.43C85.3789 342.028 84.8666 342.455 84.2689 342.455C84.1836 342.455 84.0982 342.455 84.0128 342.455C83.2444 342.284 82.8175 341.686 82.9883 341.003ZM83.9274 344.931C84.6105 344.931 85.2081 345.443 85.2081 346.211C85.2081 346.894 84.6958 347.492 83.9274 347.492C83.2444 347.492 82.6467 346.894 82.6467 346.211C82.7321 345.528 83.2444 344.931 83.9274 344.931ZM83.9274 349.883C84.6105 349.883 85.2081 350.395 85.2081 351.163C85.2081 351.846 84.6958 352.444 83.9274 352.444C83.2444 352.444 82.6467 351.932 82.6467 351.163C82.7321 350.48 83.2444 349.883 83.9274 349.883ZM83.9274 354.835C84.6105 354.835 85.2081 355.347 85.2081 356.115C85.2081 356.798 84.6958 357.396 83.9274 357.396C83.2444 357.396 82.6467 356.798 82.6467 356.115C82.7321 355.432 83.2444 354.835 83.9274 354.835ZM83.9274 359.787C84.6105 359.787 85.2081 360.299 85.2081 361.067C85.2081 361.75 84.6958 362.348 83.9274 362.348C83.2444 362.348 82.6467 361.75 82.6467 361.067C82.7321 360.384 83.2444 359.787 83.9274 359.787ZM83.9274 364.739C84.6105 364.739 85.2081 365.251 85.2081 366.019C85.2081 366.702 84.6958 367.3 83.9274 367.3C83.2444 367.3 82.6467 366.702 82.6467 366.019C82.7321 365.336 83.2444 364.739 83.9274 364.739ZM83.9274 369.776C84.6105 369.776 85.2081 370.288 85.2081 371.057C85.2081 371.74 84.6958 372.337 83.9274 372.337C83.2444 372.337 82.6467 371.74 82.6467 371.057C82.7321 370.288 83.2444 369.776 83.9274 369.776ZM83.9274 374.728C84.6105 374.728 85.2081 375.24 85.2081 375.923C85.2081 376.606 84.6958 377.204 83.9274 377.204C83.2444 377.204 82.6467 376.692 82.6467 375.923C82.7321 375.24 83.2444 374.728 83.9274 374.728ZM83.9274 379.68C84.6105 379.68 85.2081 380.277 85.2081 380.961C85.2081 381.644 84.6958 382.241 83.9274 382.241C83.2444 382.241 82.6467 381.644 82.6467 380.961C82.7321 380.192 83.2444 379.68 83.9274 379.68ZM83.9274 384.632C84.6105 384.632 85.2081 385.144 85.2081 385.912C85.2081 386.596 84.6958 387.193 83.9274 387.193C83.2444 387.193 82.6467 386.596 82.6467 385.912C82.7321 385.144 83.2444 384.632 83.9274 384.632ZM83.9274 389.584C84.6105 389.584 85.2081 390.096 85.2081 390.864C85.2081 391.547 84.6958 392.145 83.9274 392.145C83.2444 392.145 82.6467 391.547 82.6467 390.864C82.7321 390.096 83.2444 389.584 83.9274 389.584ZM83.9274 394.536C84.6105 394.536 85.2081 395.048 85.2081 395.816C85.2081 396.499 84.6958 397.097 83.9274 397.097C83.2444 397.097 82.6467 396.499 82.6467 395.816C82.7321 395.048 83.2444 394.536 83.9274 394.536ZM83.9274 399.488C84.6105 399.488 85.2081 400 85.2081 400.768C85.2081 401.451 84.6958 402.049 83.9274 402.049C83.2444 402.049 82.6467 401.451 82.6467 400.768C82.7321 400.085 83.2444 399.488 83.9274 399.488ZM83.9274 404.44C84.6105 404.44 85.2081 404.952 85.2081 405.72C85.2081 406.403 84.6958 407.001 83.9274 407.001C83.2444 407.001 82.6467 406.403 82.6467 405.72C82.7321 405.037 83.2444 404.44 83.9274 404.44ZM83.9274 409.392C84.6105 409.392 85.2081 409.904 85.2081 410.672C85.2081 411.355 84.6958 411.953 83.9274 411.953C83.2444 411.953 82.6467 411.355 82.6467 410.672C82.7321 409.989 83.2444 409.392 83.9274 409.392ZM83.9274 414.344C84.6105 414.344 85.2081 414.856 85.2081 415.624C85.2081 416.307 84.6958 416.905 83.9274 416.905C83.2444 416.905 82.6467 416.307 82.6467 415.624C82.7321 414.941 83.2444 414.344 83.9274 414.344ZM83.9274 419.296C84.6105 419.296 85.2081 419.808 85.2081 420.576C85.2081 421.259 84.6958 421.857 83.9274 421.857C83.2444 421.857 82.6467 421.259 82.6467 420.576C82.7321 419.893 83.2444 419.296 83.9274 419.296ZM83.9274 424.333C84.6105 424.333 85.2081 424.845 85.2081 425.614C85.2081 426.297 84.6958 426.894 83.9274 426.894C83.2444 426.894 82.6467 426.297 82.6467 425.614C82.7321 424.845 83.2444 424.333 83.9274 424.333ZM83.9274 429.285C84.6105 429.285 85.2081 429.797 85.2081 430.566C85.2081 431.249 84.6958 431.846 83.9274 431.846C83.2444 431.846 82.6467 431.249 82.6467 430.566C82.7321 429.797 83.2444 429.285 83.9274 429.285ZM83.9274 434.237C84.6105 434.237 85.2081 434.749 85.2081 435.518C85.2081 436.201 84.6958 436.798 83.9274 436.798C83.2444 436.798 82.6467 436.201 82.6467 435.518C82.7321 434.749 83.2444 434.237 83.9274 434.237ZM83.9274 439.189C84.6105 439.189 85.2081 439.701 85.2081 440.47C85.2081 441.153 84.6958 441.75 83.9274 441.75C83.2444 441.75 82.6467 441.153 82.6467 440.47C82.7321 439.701 83.2444 439.189 83.9274 439.189ZM83.9274 444.141C84.6105 444.141 85.2081 444.653 85.2081 445.422C85.2081 446.105 84.6958 446.702 83.9274 446.702C83.2444 446.702 82.6467 446.105 82.6467 445.422C82.7321 444.653 83.2444 444.141 83.9274 444.141ZM83.9274 449.093C84.6105 449.093 85.2081 449.605 85.2081 450.374C85.2081 451.057 84.6958 451.654 83.9274 451.654C83.2444 451.654 82.6467 451.057 82.6467 450.374C82.7321 449.605 83.2444 449.093 83.9274 449.093ZM83.9274 454.045C84.6105 454.045 85.2081 454.557 85.2081 455.326C85.2081 456.009 84.6958 456.606 83.9274 456.606C83.2444 456.606 82.6467 456.009 82.6467 455.326C82.7321 454.642 83.2444 454.045 83.9274 454.045ZM83.9274 458.997C84.6105 458.997 85.2081 459.594 85.2081 460.277C85.2081 460.961 84.6958 461.558 83.9274 461.558C83.2444 461.558 82.6467 460.961 82.6467 460.277C82.7321 459.594 83.2444 458.997 83.9274 458.997ZM84.0982 466.425C83.5005 466.425 82.9883 465.998 82.9029 465.315C82.8175 464.632 83.3298 464.034 84.0128 463.949C84.6958 463.863 85.2935 464.376 85.3789 464.973C85.4642 465.656 84.952 466.254 84.2689 466.339C84.1836 466.425 84.0982 466.425 84.0982 466.425ZM86.2327 470.95C86.0619 471.035 85.8058 471.121 85.635 471.121C85.2081 471.121 84.7812 470.864 84.5251 470.523C84.1836 469.925 84.3543 469.157 84.952 468.815C85.5496 468.474 86.318 468.645 86.6595 469.242C87.0864 469.84 86.8303 470.608 86.2327 470.95ZM86.8303 462.327C86.8303 461.644 87.428 461.046 88.111 461.046C88.794 461.046 89.3917 461.644 89.3917 462.327C89.3917 463.01 88.8794 463.522 88.111 463.522C87.428 463.522 86.8303 463.01 86.8303 462.327ZM89.8186 474.365C89.5624 474.707 89.2209 474.792 88.8794 474.792C88.6233 474.792 88.3671 474.707 88.111 474.536C87.5987 474.109 87.5133 473.34 87.9402 472.828C88.3671 472.316 89.1355 472.231 89.6478 472.657C90.1601 473.084 90.2455 473.853 89.8186 474.365ZM89.6478 468.218C89.4771 468.303 89.3063 468.388 89.1355 468.388C88.7086 468.388 88.2817 468.132 88.0256 467.705C87.6841 467.108 87.9402 466.339 88.6233 466.083C89.2209 465.742 89.9893 465.998 90.2455 466.681C90.5016 467.193 90.2455 467.962 89.6478 468.218ZM89.9039 339.893C89.6478 339.893 89.3917 339.808 89.2209 339.637C88.6233 339.21 88.5379 338.442 88.9648 337.93C89.3917 337.417 90.1601 337.247 90.6724 337.673C91.27 338.1 91.3554 338.869 90.9285 339.381C90.6724 339.723 90.2455 339.893 89.9039 339.893ZM91.27 470.096C91.6115 469.498 92.3799 469.328 92.9776 469.755C93.5752 470.096 93.746 470.864 93.3191 471.462C93.063 471.804 92.7214 472.06 92.2946 472.06C92.0384 472.06 91.7823 471.974 91.6115 471.889C91.0992 471.462 90.9285 470.694 91.27 470.096ZM94.429 476.243C94.2583 476.756 93.746 477.097 93.2337 477.097C93.1483 477.097 92.9776 477.097 92.8922 477.012C92.2092 476.841 91.8677 476.158 92.0384 475.475C92.2092 474.792 92.8922 474.45 93.5752 474.621C94.2583 474.877 94.5998 475.56 94.429 476.243ZM95.1974 468.901C94.5998 468.645 94.3436 467.876 94.5998 467.279C94.8559 466.681 95.6243 466.425 96.222 466.681C96.8196 466.937 97.0758 467.705 96.8196 468.303C96.6489 468.73 96.1366 468.986 95.7097 468.986C95.539 469.072 95.3682 468.986 95.1974 468.901ZM95.7097 472.231C95.7097 471.547 96.3074 471.035 96.9904 471.035C97.6734 471.035 98.1857 471.633 98.1857 472.316C98.1857 472.999 97.588 473.511 96.905 473.511C96.222 473.511 95.7097 472.914 95.7097 472.231ZM98.1857 477.609C98.1857 477.609 98.1003 477.609 98.1857 477.609C97.5027 477.609 96.905 477.097 96.905 476.414C96.905 475.731 97.4173 475.133 98.1003 475.133C98.7833 475.133 99.381 475.646 99.381 476.329C99.381 477.012 98.8687 477.609 98.1857 477.609ZM99.381 467.705C98.8687 467.193 98.8687 466.425 99.381 465.912C99.8933 465.4 100.662 465.4 101.174 465.912C101.686 466.425 101.686 467.193 101.174 467.705C100.918 467.962 100.576 468.047 100.32 468.047C99.8933 468.047 99.6371 467.962 99.381 467.705ZM100.662 471.718C100.32 471.121 100.491 470.352 101.089 470.011C101.686 469.669 102.455 469.925 102.796 470.438C103.138 471.035 102.967 471.804 102.369 472.145C102.199 472.231 101.942 472.316 101.772 472.316C101.345 472.316 100.918 472.145 100.662 471.718ZM103.479 476.414C103.308 476.499 103.138 476.499 102.967 476.499C102.455 476.499 102.028 476.243 101.857 475.731C101.601 475.133 101.857 474.365 102.455 474.109C103.052 473.853 103.821 474.109 104.077 474.707C104.333 475.39 104.077 476.158 103.479 476.414ZM104.589 468.73C103.991 468.388 103.821 467.62 104.162 467.022C104.504 466.425 105.272 466.254 105.87 466.596C106.467 466.937 106.638 467.705 106.297 468.303C106.041 468.73 105.614 468.901 105.187 468.901C105.016 468.901 104.76 468.815 104.589 468.73ZM107.834 473.34C107.577 473.597 107.236 473.682 106.98 473.682C106.638 473.682 106.382 473.597 106.126 473.34C105.614 472.828 105.614 472.06 106.126 471.547C106.638 471.035 107.407 471.035 107.919 471.547C108.346 472.06 108.346 472.828 107.834 473.34ZM107.492 336.393C107.15 336.393 106.809 336.222 106.553 335.966C106.126 335.454 106.126 334.685 106.638 334.173C107.15 333.831 107.919 333.831 108.431 334.344C108.858 334.856 108.858 335.624 108.346 336.051C108.004 336.307 107.748 336.393 107.492 336.393ZM108.517 467.876C108.773 467.279 109.541 466.937 110.139 467.193C110.736 467.449 111.078 468.218 110.822 468.815C110.651 469.328 110.139 469.584 109.712 469.584C109.541 469.584 109.37 469.584 109.285 469.498C108.602 469.242 108.26 468.559 108.517 467.876Z" fill="#1E1E1E"/>
<path d="M650.331 405.806L652.978 396.841C653.319 395.646 652.892 393.938 651.868 393.084L647.001 388.815C646.062 387.962 644.269 387.62 642.988 387.962L605.763 399.573C604.568 400 603.543 401.366 603.543 402.647V405.72C603.543 407.001 604.568 408.026 605.848 408.026H647.257C648.538 408.026 649.904 407.086 650.331 405.806Z" fill="#1E1E1E"/>
<path d="M723.159 468.73L713.767 459.338L713.34 459.765C714.194 458.826 714.194 457.375 713.255 456.521L712.401 455.667C712.231 455.496 712.06 455.411 711.889 455.24C712.145 454.984 712.316 454.813 712.316 454.813C713.597 453.533 713.682 450.63 712.145 449.264L670.651 413.917C663.821 408.282 663.735 405.72 663.308 402.134C662.967 398.549 663.052 397.695 663.223 394.536C663.394 391.377 663.052 389.669 659.893 386.339C656.734 383.01 657.332 383.18 653.746 380.448C650.16 377.716 644.696 377.716 639.402 379.168C634.109 380.619 596.713 391.974 596.713 391.974C596.713 391.974 596.713 393.853 596.713 396.926H592.017H590.139V398.805V400.427H586.297V396.073C586.297 395.133 585.528 394.28 584.504 394.28H411.185C410.245 394.28 408.709 394.621 407.855 395.048L402.732 397.524C401.878 397.951 401.11 399.061 401.11 400.085V400.427H243.586V406.745H401.11V406.66C401.11 407.599 401.793 408.794 402.647 409.221L407.855 412.038C408.709 412.465 410.16 412.892 411.185 412.892H584.674C585.614 412.892 586.467 412.124 586.467 411.099V406.745H590.31V410.16H592.188H596.884C596.884 413.234 596.884 416.649 596.884 420.149C596.884 429.626 600.64 435.518 602.946 438.42L647.001 491.27C656.222 501.942 668.858 499.039 673.554 494.856C676.201 492.465 688.837 479.488 698.911 468.986C698.997 469.072 698.997 469.157 699.082 469.242L699.936 470.096C700.79 470.95 702.241 471.035 703.18 470.181L702.753 470.608L712.145 480L713.853 481.708L724.952 470.608L723.159 468.73ZM579.21 410.843H413.831C411.953 410.843 410.331 410.502 410.331 410.16C410.331 409.733 411.868 409.477 413.831 409.477H579.21C581.089 409.477 582.711 409.819 582.711 410.16C582.711 410.587 581.174 410.843 579.21 410.843ZM579.21 406.489H413.831C411.953 406.489 410.331 405.208 410.331 403.586C410.331 401.964 411.868 400.683 413.831 400.683H579.21C581.089 400.683 582.711 401.964 582.711 403.586C582.711 405.208 581.174 406.489 579.21 406.489ZM579.21 397.695H413.831C411.953 397.695 410.331 397.353 410.331 397.012C410.331 396.585 411.868 396.329 413.831 396.329H579.21C581.089 396.329 582.711 396.67 582.711 397.012C582.711 397.353 581.174 397.695 579.21 397.695ZM596.798 402.22H592.102V398.89H596.798C596.798 399.915 596.798 401.025 596.798 402.22ZM600.213 408.453V400.171C600.213 398.463 601.494 396.67 603.116 396.158L642.988 383.863C644.61 383.351 646.916 383.863 648.196 384.973L655.368 391.291C656.649 392.401 657.247 394.621 656.82 396.243L653.319 408.623C652.892 410.245 651.099 411.526 649.477 411.526H603.372C601.58 411.526 600.213 410.16 600.213 408.453ZM684.653 475.731L669.2 491.185C664.674 495.71 657.503 495.454 653.319 490.502L615.582 445.763C611.398 440.811 612.508 433.981 617.972 430.566L631.889 421.772C637.353 418.356 645.55 419.296 649.989 423.906L684.653 459.168C689.264 463.693 689.264 471.206 684.653 475.731ZM716.329 475.56L706.937 466.169L711.974 461.131L721.366 470.523L716.329 475.56Z" fill="#1E1E1E"/>
<path d="M579.21 402.049H413.831C412.721 402.049 411.782 402.732 411.782 403.501C411.782 404.269 412.721 404.952 413.831 404.952H579.21C580.32 404.952 581.259 404.269 581.259 403.501C581.259 402.732 580.32 402.049 579.21 402.049Z" fill="#1E1E1E"/>
<path d="M646.83 432.7C643.33 426.809 639.915 423.735 631.633 423.821L620.448 430.822C621.387 431.078 622.497 431.249 623.863 430.993C637.012 428.687 638.549 431.249 641.281 435.945C645.72 443.372 664.931 476.329 666.211 478.549C666.467 479.146 666.297 481.281 665.955 482.818C665.528 484.525 666.638 486.233 668.346 486.66C668.602 486.745 668.858 486.745 669.114 486.745C670.566 486.745 671.846 485.72 672.273 484.269C672.615 482.903 673.468 478.292 672.017 475.475C670.822 473.511 651.441 440.47 646.83 432.7Z" fill="#1E1E1E"/>
<defs>
<linearGradient id="paint0_linear_7_75" x1="400" y1="0" x2="400" y2="635.219" gradientUnits="userSpaceOnUse">
<stop stop-color="#50565B"/>
<stop offset="1" stop-color="#252525"/>
</linearGradient>
<linearGradient id="paint1_linear_7_75" x1="400" y1="0" x2="400" y2="635.219" gradientUnits="userSpaceOnUse">
<stop stop-color="#E8E8E8"/>
<stop offset="1" stop-color="#2E2E2E"/>
</linearGradient>
</defs>
</svg>
