<svg width="800" height="636" viewBox="0 0 800 636" fill="none" xmlns="http://www.w3.org/2000/svg">
<rect x="1" y="1" width="798" height="633.219" rx="39" fill="url(#paint0_linear_6_56)" stroke="url(#paint1_linear_6_56)" stroke-width="2"/>
<circle cx="400.427" cy="179.296" r="128.068" fill="white"/>
<circle cx="400.427" cy="179.296" r="110.993" fill="#FF0303"/>
<path d="M362.194 256.648V235.554L410.095 180.007C414.548 174.968 416.745 169.783 416.687 164.451C416.687 159.529 415.31 155.632 412.556 152.761C409.802 149.89 406.023 148.454 401.218 148.454C391.257 148.454 386.042 153.933 385.573 164.89H362.194C362.546 158.152 363.513 152.966 365.095 149.333C368.083 142.361 372.741 136.97 379.069 133.161C385.456 129.353 392.898 127.449 401.394 127.449C412.937 127.449 422.282 130.876 429.431 137.732C436.579 144.529 440.153 153.435 440.153 164.451C440.153 169.841 439.216 174.529 437.341 178.513C435.466 182.497 431.833 187.654 426.443 193.982L390.583 235.554H440.153V256.648H362.194Z" fill="white"/>
<path fill-rule="evenodd" clip-rule="evenodd" d="M254.898 228.815L76.1046 228.815C59.536 228.815 46.1046 242.247 46.1046 258.815V545.454C46.1046 562.022 59.536 575.454 76.1046 575.454H724.749C741.318 575.454 754.749 562.022 754.749 545.454V258.815C754.749 242.247 741.318 228.815 724.749 228.815L545.956 228.815C525.349 289.395 467.977 332.978 400.427 332.978C332.876 332.978 275.505 289.395 254.898 228.815Z" fill="#FF0303"/>
<path d="M363.885 379.082H359.018V397.439H363.885V379.082Z" fill="#1E1E1E"/>
<path d="M356.286 380.875H347.834V395.56H356.286V380.875Z" fill="#1E1E1E"/>
<path d="M342.967 375.582L268.943 368.922C268.687 367.897 267.834 367.044 266.724 367.044C265.528 367.044 264.504 368.068 264.504 369.434V369.605L239.061 371.91V404.44L264.504 406.83V407.001C264.504 408.282 265.528 409.392 266.724 409.392C267.834 409.392 268.687 408.623 268.943 407.513L342.967 400.854C344.248 400.768 345.358 399.573 345.358 398.292V378.143C345.358 376.862 344.248 375.667 342.967 375.582Z" fill="#1E1E1E"/>
<path d="M453.533 391.462L457.375 378.57C457.887 376.777 457.204 374.301 455.752 373.106L448.666 366.958C447.3 365.763 444.653 365.165 442.86 365.763L389.242 382.497C387.449 383.095 385.998 385.059 385.998 386.852V391.291C385.998 393.17 387.535 394.706 389.413 394.706H449.093C451.057 394.706 452.935 393.255 453.533 391.462Z" fill="#1E1E1E"/>
<path d="M558.463 482.049L544.973 468.559L544.376 469.157C545.571 467.876 545.571 465.742 544.29 464.461L543.095 463.266C542.839 463.01 542.583 462.839 542.327 462.668C542.753 462.241 542.924 462.07 542.924 462.07C544.717 460.192 544.973 456.008 542.668 454.045L482.903 403.159C473.084 394.963 472.914 391.377 472.316 386.169C471.804 381.046 471.974 379.765 472.231 375.24C472.572 370.715 471.889 368.239 467.364 363.458C462.839 358.591 463.693 358.933 458.57 355.005C453.447 351.078 445.507 351.078 437.908 353.212C430.309 355.347 376.35 371.654 376.35 371.654C376.35 371.654 376.35 374.301 376.35 378.741H366.873V381.473H376.35C376.35 382.924 376.35 384.546 376.35 386.254H366.873V397.695H376.35C376.35 402.22 376.35 407.001 376.35 412.038C376.35 425.699 381.729 434.151 385.059 438.335L448.495 514.408C461.814 529.861 480 525.592 486.745 519.53C490.587 516.03 508.687 497.417 523.287 482.305C523.372 482.391 523.458 482.561 523.543 482.647L524.739 483.842C526.019 485.123 528.154 485.123 529.434 483.927L528.837 484.525L542.327 498.015L544.803 500.491L560.854 484.525L558.463 482.049ZM381.387 395.304V383.351C381.387 380.96 383.266 378.399 385.571 377.631L443.031 359.872C445.336 359.103 448.666 359.786 450.459 361.409L460.704 370.544C462.497 372.166 463.436 375.325 462.753 377.631L457.631 395.475C456.948 397.78 454.472 399.658 452.081 399.658H385.742C383.351 399.658 381.387 397.695 381.387 395.304ZM503.052 492.124L480.854 514.322C474.28 520.896 464.034 520.47 458.058 513.383L403.586 448.922C397.609 441.836 399.146 432.017 407.001 427.065L427.065 414.429C434.92 409.477 446.702 410.843 453.191 417.417L503.223 468.132C509.626 474.792 509.626 485.55 503.052 492.124ZM548.645 491.868L535.155 478.378L542.497 471.121L555.987 484.61L548.645 491.868Z" fill="#1E1E1E"/>
<path d="M448.581 430.224C443.629 421.772 438.591 417.332 426.724 417.417L410.672 427.577C412.038 428.004 413.661 428.175 415.624 427.833C434.578 424.589 436.713 428.26 440.726 434.92C447.044 445.678 474.877 493.063 476.585 496.222C476.926 497.076 476.67 500.064 476.158 502.369C475.56 504.845 477.097 507.321 479.573 507.919C479.915 508.004 480.256 508.004 480.598 508.004C482.732 508.004 484.61 506.553 485.123 504.418C485.55 502.455 486.916 495.88 484.696 491.782C482.988 488.879 455.155 441.323 448.581 430.224Z" fill="#1E1E1E"/>
<defs>
<linearGradient id="paint0_linear_6_56" x1="400" y1="0" x2="400" y2="635.219" gradientUnits="userSpaceOnUse">
<stop stop-color="#50565B"/>
<stop offset="1" stop-color="#252525"/>
</linearGradient>
<linearGradient id="paint1_linear_6_56" x1="400" y1="0" x2="400" y2="635.219" gradientUnits="userSpaceOnUse">
<stop stop-color="#E8E8E8"/>
<stop offset="1" stop-color="#2E2E2E"/>
</linearGradient>
</defs>
</svg>
