<svg width="75" height="75" viewBox="0 0 75 75" fill="none" xmlns="http://www.w3.org/2000/svg">
<g clip-path="url(#clip0_1_2)">
<path fill-rule="evenodd" clip-rule="evenodd" d="M37.0021 0C16.5663 0 0 16.5663 0 37.0021C0 57.4379 16.5663 74.0042 37.0021 74.0042C57.4379 74.0042 74.0042 57.4379 74.0042 37.0021C74.0042 16.5663 57.4379 0 37.0021 0Z" fill="#40C4FF"/>
<path fill-rule="evenodd" clip-rule="evenodd" d="M37 4C18.7747 4 4 18.7747 4 37C4 55.2253 18.7747 70 37 70C55.2253 70 70 55.2253 70 37C70 18.7747 55.2253 4 37 4Z" fill="#121212"/>
<path fill-rule="evenodd" clip-rule="evenodd" d="M52.0235 27H20.9993C17.68 27 15 29.6818 15 33.0011V44.7469C15 46.0219 16.0204 47.0441 17.2972 47.0441C18.5739 47.0441 19.5961 46.0219 19.5961 44.7469V40.6601H53.4285V44.6187C53.4285 45.8955 54.4488 46.9158 55.7256 46.9158C57.0024 46.9158 58.0246 45.8955 58.0246 44.6187V33.0011C58.0246 29.6818 55.3428 27 52.0235 27ZM19.5957 36.0639V33.001C19.5957 32.1071 20.3614 31.4678 21.1271 31.4678H51.8948C52.7888 31.4678 53.4281 32.2335 53.4281 33.001V36.0639H19.5957Z" fill="#FEFEFE"/>
</g>
<defs>
<clipPath id="clip0_1_2">
<rect width="75" height="75" fill="white"/>
</clipPath>
</defs>
</svg>
