<svg width="916" height="59" viewBox="0 0 916 59" fill="none" xmlns="http://www.w3.org/2000/svg">
<path fill-rule="evenodd" clip-rule="evenodd" d="M1.5 54H914.203V57H1.5V54Z" stroke="url(#paint0_radial_1_12)" stroke-width="3" stroke-linecap="square"/>
<path fill-rule="evenodd" clip-rule="evenodd" d="M473.536 19.8535H436.5V2.29004C436.5 1.01681 437.519 0 438.792 0C440.063 0 441.082 1.01681 441.082 2.29004V15.2717H473.536C474.809 15.2717 475.826 16.2902 475.826 17.5635C475.826 18.8349 474.809 19.8535 473.536 19.8535Z" fill="white"/>
<path fill-rule="evenodd" clip-rule="evenodd" d="M404.536 19.8535H367.5V2.29004C367.5 1.01681 368.519 0 369.792 0C371.063 0 372.082 1.01681 372.082 2.29004V15.2717H404.536C405.809 15.2717 406.826 16.2902 406.826 17.5635C406.826 18.8349 405.809 19.8535 404.536 19.8535Z" fill="white"/>
<path fill-rule="evenodd" clip-rule="evenodd" d="M547.099 4.58186H508.792C507.519 4.58186 506.5 3.56327 506.5 2.29182C506.5 1.01859 507.519 0 508.792 0H547.099C548.372 0 549.389 1.01859 549.389 2.29182C549.389 3.56327 548.372 4.58186 547.099 4.58186Z" fill="white"/>
<path fill-rule="evenodd" clip-rule="evenodd" d="M547.099 19.5819H508.792C507.519 19.5819 506.5 18.5633 506.5 17.2918C506.5 16.0186 507.519 15 508.792 15H547.099C548.372 15 549.389 16.0186 549.389 17.2918C549.389 18.5633 548.372 19.5819 547.099 19.5819Z" fill="white"/>
<path fill-rule="evenodd" clip-rule="evenodd" d="M547.099 12.5819H508.792C507.519 12.5819 506.5 11.5633 506.5 10.2918C506.5 9.01859 507.519 8 508.792 8H547.099C548.372 8 549.389 9.01859 549.389 10.2918C549.389 11.5633 548.372 12.5819 547.099 12.5819Z" fill="white"/>
<path fill-rule="evenodd" clip-rule="evenodd" d="M613.718 19.7271H582.792C581.519 19.7271 580.5 18.7085 580.5 17.4371C580.5 16.1638 581.519 15.1452 582.792 15.1452H613.718C614.482 15.1452 615.118 14.5095 615.118 13.7456C615.118 12.8552 614.482 12.2177 613.718 12.2177H586.482C583.173 12.2177 580.5 9.54479 580.5 6.23617V5.98152C580.5 2.6729 583.173 0 586.482 0H617.41C618.681 0 619.7 1.01859 619.7 2.29182C619.7 3.56327 618.681 4.58186 617.41 4.58186H586.482C585.719 4.58186 585.082 5.21758 585.082 5.98152V6.23617C585.082 7.00011 585.719 7.63583 586.482 7.63583H613.718C617.027 7.63583 619.7 10.3087 619.7 13.6174C619.7 17.0542 617.027 19.7271 613.718 19.7271Z" fill="white"/>
<path fill-rule="evenodd" clip-rule="evenodd" d="M634.554 0C632.9 0 631.5 1.39967 631.5 3.05398C631.5 4.70829 632.9 6.10973 634.554 6.10973C636.208 6.10973 637.608 4.70829 637.608 3.05398C637.608 1.39967 636.208 0 634.554 0ZM634.554 5.34577C633.28 5.34577 632.264 4.32719 632.264 3.05395C632.264 1.7825 633.28 0.763916 634.554 0.763916C635.827 0.763916 636.844 1.7825 636.844 3.05395C636.844 4.32719 635.827 5.34577 634.554 5.34577Z" fill="white"/>
<path fill-rule="evenodd" clip-rule="evenodd" d="M633.881 4.1636C633.881 4.41825 633.5 4.41825 633.5 4.1636V2.25465C633.5 2.12643 633.626 2 633.755 2H634.645C635.535 2 635.664 3.14502 634.9 3.39967L635.281 3.90896C635.409 4.1636 635.154 4.41825 634.9 4.1636L634.39 3.39967H633.881V4.1636ZM633.881 3.04881H634.679C635.06 3.04881 635.063 2.41309 634.679 2.41309H633.881V3.04881Z" fill="white"/>
<defs>
<radialGradient id="paint0_radial_1_12" cx="0" cy="0" r="1" gradientUnits="userSpaceOnUse" gradientTransform="translate(2 509.851) rotate(90) scale(912.703 1.03675)">
<stop stop-color="white"/>
<stop offset="1" stop-color="#121212"/>
</radialGradient>
</defs>
</svg>
