<svg width="937" height="744" viewBox="0 0 937 744" fill="none" xmlns="http://www.w3.org/2000/svg">
<path d="M897 1H40C18.4609 1 1 18.4609 1 40V704C1 725.539 18.4609 743 40 743H897C918.539 743 936 725.539 936 704V40C936 18.4609 918.539 1 897 1Z" fill="url(#paint0_linear_2_34)" stroke="url(#paint1_linear_2_34)" stroke-width="2"/>
<path d="M469 360C551.843 360 619 292.843 619 210C619 127.157 551.843 60 469 60C386.157 60 319 127.157 319 210C319 292.843 386.157 360 469 360Z" fill="white"/>
<path d="M469 340C540.797 340 599 281.797 599 210C599 138.203 540.797 80 469 80C397.203 80 339 138.203 339 210C339 281.797 397.203 340 469 340Z" fill="#FF0303"/>
<path fill-rule="evenodd" clip-rule="evenodd" d="M298.549 268H84C67.4315 268 54 281.431 54 298V644C54 660.569 67.4314 674 84 674H854C870.569 674 884 660.569 884 644V298C884 281.431 870.569 268 854 268H639.451C615.315 338.954 548.118 390 469 390C389.882 390 322.685 338.954 298.549 268Z" fill="#FF0303"/>
<path d="M426.2 444H420.5V465.5H426.2V444Z" fill="#1E1E1E"/>
<path d="M417.3 446.1H407.4V463.3H417.3V446.1Z" fill="#1E1E1E"/>
<path d="M401.7 439.9L315 432.1C314.7 430.9 313.7 429.9 312.4 429.9C311 429.9 309.8 431.1 309.8 432.7V432.9L280 435.6V473.7L309.8 476.5V476.7C309.8 478.2 311 479.5 312.4 479.5C313.7 479.5 314.7 478.6 315 477.3L401.7 469.5C403.2 469.4 404.5 468 404.5 466.5V442.9C404.5 441.4 403.2 440 401.7 439.9Z" fill="#1E1E1E"/>
<path d="M531.2 458.5L535.7 443.4C536.3 441.3 535.5 438.4 533.8 437L525.5 429.8C523.9 428.4 520.8 427.7 518.7 428.4L455.9 448C453.8 448.7 452.1 451 452.1 453.1V458.3C452.1 460.5 453.9 462.3 456.1 462.3H526C528.3 462.3 530.5 460.6 531.2 458.5Z" fill="#1E1E1E"/>
<path d="M654.1 564.6L638.3 548.8L637.6 549.5C639 548 639 545.5 637.5 544L636.1 542.6C635.8 542.3 635.5 542.1 635.2 541.9C635.7 541.4 635.9 541.2 635.9 541.2C638 539 638.3 534.1 635.6 531.8L565.6 472.2C554.1 462.6 553.9 458.4 553.2 452.3C552.6 446.3 552.8 444.8 553.1 439.5C553.5 434.2 552.7 431.3 547.4 425.7C542.1 420 543.1 420.4 537.1 415.8C531.1 411.2 521.8 411.2 512.9 413.7C504 416.2 440.8 435.3 440.8 435.3C440.8 435.3 440.8 438.4 440.8 443.6H429.7V446.8H440.8C440.8 448.5 440.8 450.4 440.8 452.4H429.7V465.8H440.8C440.8 471.1 440.8 476.7 440.8 482.6C440.8 498.6 447.1 508.5 451 513.4L525.3 602.5C540.9 620.6 562.2 615.6 570.1 608.5C574.6 604.4 595.8 582.6 612.9 564.9C613 565 613.1 565.2 613.2 565.3L614.6 566.7C616.1 568.2 618.6 568.2 620.1 566.8L619.4 567.5L635.2 583.3L638.1 586.2L656.9 567.5L654.1 564.6ZM446.7 463V449C446.7 446.2 448.9 443.2 451.6 442.3L518.9 421.5C521.6 420.6 525.5 421.4 527.6 423.3L539.6 434C541.7 435.9 542.8 439.6 542 442.3L536 463.2C535.2 465.9 532.3 468.1 529.5 468.1H451.8C449 468.1 446.7 465.8 446.7 463ZM589.2 576.4L563.2 602.4C555.5 610.1 543.5 609.6 536.5 601.3L472.7 525.8C465.7 517.5 467.5 506 476.7 500.2L500.2 485.4C509.4 479.6 523.2 481.2 530.8 488.9L589.4 548.3C596.9 556.1 596.9 568.7 589.2 576.4ZM642.6 576.1L626.8 560.3L635.4 551.8L651.2 567.6L642.6 576.1Z" fill="#1E1E1E"/>
<path d="M525.4 503.9C519.6 494 513.7 488.8 499.8 488.9L481 500.8C482.6 501.3 484.5 501.5 486.8 501.1C509 497.3 511.5 501.6 516.2 509.4C523.6 522 556.2 577.5 558.2 581.2C558.6 582.2 558.3 585.7 557.7 588.4C557 591.3 558.8 594.2 561.7 594.9C562.1 595 562.5 595 562.9 595C565.4 595 567.6 593.3 568.2 590.8C568.7 588.5 570.3 580.8 567.7 576C565.7 572.6 533.1 516.9 525.4 503.9Z" fill="#1E1E1E"/>
<defs>
<linearGradient id="paint0_linear_2_34" x1="468.5" y1="3.50187e-09" x2="468.5" y2="744" gradientUnits="userSpaceOnUse">
<stop stop-color="#50565B"/>
<stop offset="1" stop-color="#252525"/>
</linearGradient>
<linearGradient id="paint1_linear_2_34" x1="468.5" y1="3.50187e-09" x2="468.5" y2="744" gradientUnits="userSpaceOnUse">
<stop stop-color="#E8E8E8"/>
<stop offset="1" stop-color="#2E2E2E"/>
</linearGradient>
</defs>
</svg>
